<?xml version="1.0" encoding="UTF-8"?>
<!-- Generator: CustomSymbols v2.5.1.36 by @serious_bret https://bretlester.com/app_content/CustomSymbols/ -->
<!-- Guides: Left/Right 0.022/0.022 Cap/Base 0.107/0.107 -->
<!-- Settings: RefScale 1.0 Min/Max Stroke Scales 1.0/2.21 -->
<!DOCTYPE svg
PUBLIC "-//W3C//DTD SVG 1.1//EN"
       "http://www.w3.org/Graphics/SVG/1.1/DTD/svg11.dtd">
<svg version="1.1" xmlns="http://www.w3.org/2000/svg" xmlns:xlink="http://www.w3.org/1999/xlink" width="3300" height="2200">
<![CDATA[<?xml version="1.0" encoding="UTF-8" standalone="no"?>
<!DOCTYPE svg PUBLIC "-//W3C//DTD SVG 1.1//EN" "http://www.w3.org/Graphics/SVG/1.1/DTD/svg11.dtd">
<!-- Created with Vectornator (http://vectornator.io/) -->
<svg height="100%" stroke-miterlimit="10" style="fill-rule:nonzero;clip-rule:evenodd;stroke-linecap:round;stroke-linejoin:round;" version="1.1" viewBox="0 0 534.765 491.916" width="100%" xml:space="preserve" xmlns="http://www.w3.org/2000/svg" xmlns:vectornator="http://vectornator.io" xmlns:xlink="http://www.w3.org/1999/xlink">
<defs/>
<g id="Untitled" vectornator:layerName="Untitled">
<path d="M336.382 12.458C290.979 34.3269 271.692 88.0632 279.882 137.208C285.67 171.936 315.409 212.602 355.507 198.052C405.869 179.778 421.328 113.603 414.789 66.5205C411.167 40.4463 393.468 15.1562 366.914 8.30177C355.031 5.23433 346.992 7.34802 336.382 12.458ZM162.382 10.458C98.1333 26.5954 105.396 123.381 143.132 169.958C158.327 188.712 183.141 205.515 208.132 199.583C249.026 189.876 256.778 140.655 253.257 105.583C248.085 54.0548 216.69-3.18239 162.382 10.458ZM456.882 149.958C413.109 166.024 392.763 210.042 392.632 256.458C392.514 298.675 427.794 332.228 469.882 313.958C513.688 294.943 531.562 243.081 528.945 198.427C528.456 190.078 523.647 177.582 519.632 170.958C503.946 145.077 482.919 140.402 456.882 149.958ZM44.8825 157.458C-25.4642 179.158 8.76196 286.427 60.3825 316.208C74.3624 324.273 93.646 330.796 109.882 325.958C139.138 317.241 145.847 279.798 143.632 254.333C139.366 205.271 97.8788 141.11 44.8825 157.458ZM252.882 223.458C232.642 228.757 213.484 240.472 198.882 255.458C181.789 273.002 168.442 293.855 152.507 312.458C135.387 332.445 115.926 350.435 99.7487 371.193C90.0317 383.661 84.6569 407.626 83.695 422.427C82.7951 436.273 87.35 452.05 96.0075 462.958C112.074 483.201 139.453 488.487 163.664 482.614C190.335 476.145 215.921 465.704 242.507 458.896C254.557 455.81 266.918 453.322 279.351 452.989C329.732 451.64 372.184 496.503 422.757 485.333C431.257 483.456 438.995 478.811 446.382 474.208C463.628 463.462 464.049 442.829 462.757 424.458C461.208 402.422 453.526 385.426 440.007 368.083C411.676 331.735 381.788 296.616 351.882 261.552C325.761 230.925 291.442 213.362 252.882 223.458Z" fill="#000000" fill-rule="nonzero" opacity="1" stroke="none"/>
</g>
</svg>
]]>
 <g id="Notes">
  <rect height="2200" id="artboard" style="fill:white;opacity:1" width="3300" x="0" y="0"/>
  <line id="" style="fill:none;stroke:black;opacity:1;stroke-width:0.5;" x1="263" x2="3036" y1="292" y2="292"/>
  <text id="reftext1" style="stroke:none;fill:black;font-family:-apple-system,&quot;SF Pro Display&quot;,&quot;SF Pro Text&quot;,Helvetica,sans-serif;font-weight:bold;" transform="matrix(1 0 0 1 263 322)">Weight/Scale Variations</text>
  <text id="reftext2" style="stroke:none;fill:black;font-family:-apple-system,&quot;SF Pro Display&quot;,&quot;SF Pro Text&quot;,Helvetica,sans-serif;text-anchor:middle;" transform="matrix(1 0 0 1 559.711 322)">Ultralight</text>
  <text style="stroke:none;fill:black;font-family:-apple-system,&quot;SF Pro Display&quot;,&quot;SF Pro Text&quot;,Helvetica,sans-serif;text-anchor:middle;" transform="matrix(1 0 0 1 856.422 322)">Thin</text>
  <text style="stroke:none;fill:black;font-family:-apple-system,&quot;SF Pro Display&quot;,&quot;SF Pro Text&quot;,Helvetica,sans-serif;text-anchor:middle;" transform="matrix(1 0 0 1 1153.13 322)">Light</text>
  <text style="stroke:none;fill:black;font-family:-apple-system,&quot;SF Pro Display&quot;,&quot;SF Pro Text&quot;,Helvetica,sans-serif;text-anchor:middle;" transform="matrix(1 0 0 1 1449.84 322)">Regular</text>
  <text style="stroke:none;fill:black;font-family:-apple-system,&quot;SF Pro Display&quot;,&quot;SF Pro Text&quot;,Helvetica,sans-serif;text-anchor:middle;" transform="matrix(1 0 0 1 1746.56 322)">Medium</text>
  <text style="stroke:none;fill:black;font-family:-apple-system,&quot;SF Pro Display&quot;,&quot;SF Pro Text&quot;,Helvetica,sans-serif;text-anchor:middle;" transform="matrix(1 0 0 1 2043.27 322)">Semibold</text>
  <text style="stroke:none;fill:black;font-family:-apple-system,&quot;SF Pro Display&quot;,&quot;SF Pro Text&quot;,Helvetica,sans-serif;text-anchor:middle;" transform="matrix(1 0 0 1 2339.98 322)">Bold</text>
  <text style="stroke:none;fill:black;font-family:-apple-system,&quot;SF Pro Display&quot;,&quot;SF Pro Text&quot;,Helvetica,sans-serif;text-anchor:middle;" transform="matrix(1 0 0 1 2636.69 322)">Heavy</text>
  <text style="stroke:none;fill:black;font-family:-apple-system,&quot;SF Pro Display&quot;,&quot;SF Pro Text&quot;,Helvetica,sans-serif;text-anchor:middle;" transform="matrix(1 0 0 1 2933.4 322)">Black</text>
  <line id="" style="fill:none;stroke:black;opacity:1;stroke-width:0.5;" x1="263" x2="3036" y1="1903" y2="1903"/>
  <g id="" transform="matrix(1 0 0 1 263 1933)">
   <path d="M9.24805 0.830078C13.5547 0.830078 17.1387-2.74414 17.1387-7.05078C17.1387-11.3574 13.5449-14.9316 9.23828-14.9316C4.94141-14.9316 1.36719-11.3574 1.36719-7.05078C1.36719-2.74414 4.95117 0.830078 9.24805 0.830078ZM9.24805-0.654297C5.70312-0.654297 2.87109-3.49609 2.87109-7.05078C2.87109-10.6055 5.69336-13.4473 9.23828-13.4473C12.793-13.4473 15.6348-10.6055 15.6445-7.05078C15.6543-3.49609 12.8027-0.654297 9.24805-0.654297ZM6.39648-6.31836L8.50586-6.31836L8.50586-4.19922C8.50586-3.75977 8.79883-3.45703 9.22852-3.45703C9.67773-3.45703 9.9707-3.75977 9.9707-4.19922L9.9707-6.31836L12.0996-6.31836C12.5391-6.31836 12.8418-6.61133 12.8418-7.04102C12.8418-7.48047 12.5391-7.7832 12.0996-7.7832L9.9707-7.7832L9.9707-9.89258C9.9707-10.3418 9.67773-10.6445 9.22852-10.6445C8.79883-10.6445 8.50586-10.3418 8.50586-9.89258L8.50586-7.7832L6.39648-7.7832C5.94727-7.7832 5.64453-7.48047 5.64453-7.04102C5.64453-6.61133 5.94727-6.31836 6.39648-6.31836Z"/>
  </g>
  <g id="" transform="matrix(1 0 0 1 281.506 1933)">
   <path d="M11.709 2.91016C17.1582 2.91016 21.6699-1.61133 21.6699-7.05078C21.6699-12.5 17.1484-17.0117 11.6992-17.0117C6.25977-17.0117 1.74805-12.5 1.74805-7.05078C1.74805-1.61133 6.26953 2.91016 11.709 2.91016ZM11.709 1.25C7.09961 1.25 3.41797-2.44141 3.41797-7.05078C3.41797-11.6602 7.08984-15.3516 11.6992-15.3516C16.3086-15.3516 20-11.6602 20.0098-7.05078C20.0195-2.44141 16.3184 1.25 11.709 1.25ZM7.98828-6.23047L10.8789-6.23047L10.8789-3.32031C10.8789-2.83203 11.2109-2.5 11.6895-2.5C12.1777-2.5 12.5195-2.83203 12.5195-3.32031L12.5195-6.23047L15.4297-6.23047C15.918-6.23047 16.25-6.5625 16.25-7.04102C16.25-7.5293 15.918-7.87109 15.4297-7.87109L12.5195-7.87109L12.5195-10.7617C12.5195-11.2695 12.1777-11.6016 11.6895-11.6016C11.2109-11.6016 10.8789-11.2598 10.8789-10.7617L10.8789-7.87109L7.98828-7.87109C7.48047-7.87109 7.14844-7.5293 7.14844-7.04102C7.14844-6.5625 7.49023-6.23047 7.98828-6.23047Z"/>
  </g>
  <g id="" transform="matrix(1 0 0 1 304.924 1933)">
   <path d="M14.9707 5.66406C21.9336 5.66406 27.6953-0.0976562 27.6953-7.05078C27.6953-14.0137 21.9238-19.7754 14.9609-19.7754C8.00781-19.7754 2.25586-14.0137 2.25586-7.05078C2.25586-0.0976562 8.01758 5.66406 14.9707 5.66406ZM14.9707 3.84766C8.93555 3.84766 4.08203-1.01562 4.08203-7.05078C4.08203-13.0957 8.92578-17.9492 14.9609-17.9492C21.0059-17.9492 25.8594-13.0957 25.8691-7.05078C25.8789-1.01562 21.0156 3.84766 14.9707 3.84766ZM10.0586-6.14258L14.0625-6.14258L14.0625-2.12891C14.0625-1.5918 14.4336-1.2207 14.9512-1.2207C15.4883-1.2207 15.8594-1.5918 15.8594-2.12891L15.8594-6.14258L19.8828-6.14258C20.4102-6.14258 20.791-6.51367 20.791-7.03125C20.791-7.56836 20.4199-7.94922 19.8828-7.94922L15.8594-7.94922L15.8594-11.9531C15.8594-12.5098 15.4883-12.8809 14.9512-12.8809C14.4336-12.8809 14.0625-12.5 14.0625-11.9531L14.0625-7.94922L10.0586-7.94922C9.50195-7.94922 9.13086-7.56836 9.13086-7.03125C9.13086-6.51367 9.51172-6.14258 10.0586-6.14258Z"/>
  </g>
  <text style="stroke:none;fill:black;font-family:-apple-system,&quot;SF Pro Display&quot;,&quot;SF Pro Text&quot;,Helvetica,sans-serif;font-weight:bold;" transform="matrix(1 0 0 1 263 1953)">Design Variations</text>
  <text style="stroke:none;fill:black;font-family:-apple-system,&quot;SF Pro Display&quot;,&quot;SF Pro Text&quot;,Helvetica,sans-serif;" transform="matrix(1 0 0 1 263 1971)">Symbols are supported in up to nine weights and three scales.</text>
  <text style="stroke:none;fill:black;font-family:-apple-system,&quot;SF Pro Display&quot;,&quot;SF Pro Text&quot;,Helvetica,sans-serif;" transform="matrix(1 0 0 1 263 1989)">For optimal layout with text and other symbols, vertically align</text>
  <text style="stroke:none;fill:black;font-family:-apple-system,&quot;SF Pro Display&quot;,&quot;SF Pro Text&quot;,Helvetica,sans-serif;" transform="matrix(1 0 0 1 263 2007)">symbols with the adjacent text.</text>
  <line id="" style="fill:none;stroke:#00AEEF;stroke-width:0.5;opacity:1.0;" x1="776" x2="776" y1="1919" y2="1933"/>
  <g id="" transform="matrix(1 0 0 1 776 1933)">
   <path d="M3.31055 0.126953C3.82812 0.126953 4.08203-0.0683594 4.26758-0.605469L5.52734-4.0625L11.2891-4.0625L12.5488-0.605469C12.7344-0.0683594 12.9883 0.126953 13.4961 0.126953C14.0137 0.126953 14.3457-0.185547 14.3457-0.673828C14.3457-0.839844 14.3164-0.986328 14.2383-1.20117L9.6582-13.3887C9.43359-13.9941 9.0332-14.2871 8.4082-14.2871C7.80273-14.2871 7.39258-13.9941 7.17773-13.3984L2.59766-1.19141C2.51953-0.976562 2.49023-0.830078 2.49023-0.664062C2.49023-0.175781 2.80273 0.126953 3.31055 0.126953ZM6.00586-5.53711L8.37891-12.1094L8.42773-12.1094L10.8008-5.53711Z"/>
  </g>
  <line id="" style="fill:none;stroke:#00AEEF;stroke-width:0.5;opacity:1.0;" x1="792.836" x2="792.836" y1="1919" y2="1933"/>
  <text style="stroke:none;fill:black;font-family:-apple-system,&quot;SF Pro Display&quot;,&quot;SF Pro Text&quot;,Helvetica,sans-serif;font-weight:bold;" transform="matrix(1 0 0 1 776 1953)">Margins</text>
  <text style="stroke:none;fill:black;font-family:-apple-system,&quot;SF Pro Display&quot;,&quot;SF Pro Text&quot;,Helvetica,sans-serif;" transform="matrix(1 0 0 1 776 1971)">Leading and trailing margins on the left and right side of each symbol</text>
  <text style="stroke:none;fill:black;font-family:-apple-system,&quot;SF Pro Display&quot;,&quot;SF Pro Text&quot;,Helvetica,sans-serif;" transform="matrix(1 0 0 1 776 1989)">can be adjusted by modifying the x-location of the margin guidelines.</text>
  <text style="stroke:none;fill:black;font-family:-apple-system,&quot;SF Pro Display&quot;,&quot;SF Pro Text&quot;,Helvetica,sans-serif;" transform="matrix(1 0 0 1 776 2007)">Modifications are automatically applied proportionally to all</text>
  <text style="stroke:none;fill:black;font-family:-apple-system,&quot;SF Pro Display&quot;,&quot;SF Pro Text&quot;,Helvetica,sans-serif;" transform="matrix(1 0 0 1 776 2025)">scales and weights.</text>
  <g id="" transform="matrix(1 0 0 1 1289 1933)">
   <path d="M2.8418 1.86523L4.54102 3.57422C5.40039 4.44336 6.38672 4.38477 7.31445 3.35938L17.4902-7.85156C17.7539-7.76367 18.0273-7.7832 18.3398-7.8418L19.4043-8.03711L20.0684-7.36328L20.0293-6.80664C19.9902-6.30859 20.1172-5.92773 20.6055-5.44922L21.3672-4.70703C21.8457-4.22852 22.4609-4.19922 22.9297-4.66797L25.8398-7.58789C26.3086-8.05664 26.2891-8.65234 25.8105-9.13086L25.0391-9.89258C24.5605-10.3711 24.1895-10.5273 23.7109-10.4883L23.1348-10.4395L22.4902-11.0742L22.7344-12.1973C22.8613-12.7637 22.7051-13.2031 22.1191-13.7891L19.9219-15.9766C16.582-19.2969 12.1484-19.2188 9.25781-16.3281C8.83789-15.918 8.80859-15.3418 9.04297-14.9512C9.27734-14.5898 9.73633-14.3555 10.3809-14.5215C11.8457-14.8633 13.3691-14.9219 14.7949-13.9844L14.209-12.5293C14.0137-12.0508 13.9844-11.6504 14.1113-11.2891L3.04688-0.898438C2.06055 0.0195312 1.98242 0.996094 2.8418 1.86523ZM10.752-15.957C13.1836-17.7344 16.4746-17.4316 18.7012-15.2051L21.1328-12.793C21.3672-12.5586 21.4062-12.373 21.3379-12.0312L21.0156-10.5469L22.5195-9.0625L23.5059-9.12109C23.7598-9.13086 23.8379-9.11133 24.0332-8.91602L24.6094-8.33984L22.168-5.89844L21.5918-6.47461C21.3965-6.66992 21.3672-6.74805 21.377-7.01172L21.4453-7.98828L19.9512-9.47266L18.4277-9.21875C18.1055-9.15039 17.959-9.17969 17.7148-9.41406L15.7129-11.416C15.459-11.6504 15.4297-11.8164 15.5859-12.1875L16.4648-14.2773C14.9023-15.7324 12.8711-16.3574 10.8398-15.7617C10.6836-15.7227 10.625-15.8496 10.752-15.957ZM5.27344 2.30469L4.10156 1.14258C3.63281 0.683594 3.74023 0.341797 4.14062-0.0195312L14.9512-10.1953L16.416-8.71094L6.42578 2.27539C6.07422 2.67578 5.74219 2.77344 5.27344 2.30469Z"/>
  </g>
  <text style="stroke:none;fill:black;font-family:-apple-system,&quot;SF Pro Display&quot;,&quot;SF Pro Text&quot;,Helvetica,sans-serif;font-weight:bold;" transform="matrix(1 0 0 1 1289 1953)">Exporting</text>
  <text style="stroke:none;fill:black;font-family:-apple-system,&quot;SF Pro Display&quot;,&quot;SF Pro Text&quot;,Helvetica,sans-serif;" transform="matrix(1 0 0 1 1289 1971)">Symbols should be outlined when exporting to ensure the</text>
  <text style="stroke:none;fill:black;font-family:-apple-system,&quot;SF Pro Display&quot;,&quot;SF Pro Text&quot;,Helvetica,sans-serif;" transform="matrix(1 0 0 1 1289 1989)">design is preserved when submitting to Xcode.</text>
  <text id="template-version" style="stroke:none;fill:black;font-family:-apple-system,&quot;SF Pro Display&quot;,&quot;SF Pro Text&quot;,Helvetica,sans-serif;text-anchor:end;" transform="matrix(1 0 0 1 3036 1933)">Template v.2.0</text>
  <text style="stroke:none;fill:black;font-family:-apple-system,&quot;SF Pro Display&quot;,&quot;SF Pro Text&quot;,Helvetica,sans-serif;text-anchor:end;" transform="matrix(1 0 0 1 3036 1951)">Requires Xcode 12 or greater</text>
  <text style="stroke:none;fill:black;font-family:-apple-system,&quot;SF Pro Display&quot;,&quot;SF Pro Text&quot;,Helvetica,sans-serif;" transform="matrix(1 0 0 1 263 726)">Small</text>
  <text style="stroke:none;fill:black;font-family:-apple-system,&quot;SF Pro Display&quot;,&quot;SF Pro Text&quot;,Helvetica,sans-serif;" transform="matrix(1 0 0 1 263 1156)">Medium</text>
  <text style="stroke:none;fill:black;font-family:-apple-system,&quot;SF Pro Display&quot;,&quot;SF Pro Text&quot;,Helvetica,sans-serif;" transform="matrix(1 0 0 1 263 1586)">Large</text>
 </g>
 <g id="Guides">
  <g id="H-reference" style="fill:#27AAE1;stroke:none;" transform="matrix(1 0 0 1 339 696)">
   <path d="M0.976562 0L3.66211 0L12.9883-24.4629L45.752-24.4629L55.127 0L57.7637 0L30.6152-70.459L28.125-70.459ZM29.3457-67.1387L29.4434-67.1387L44.873-26.709L13.8672-26.709Z"/>
  </g>
  <line id="Baseline-S" style="fill:none;stroke:#27AAE1;opacity:1;stroke-width:0.5;" x1="263" x2="3036" y1="696" y2="696"/>
  <line id="Capline-S" style="fill:none;stroke:#27AAE1;opacity:1;stroke-width:0.5;" x1="263" x2="3036" y1="625.541" y2="625.541"/>
  <g id="H-reference" style="fill:#27AAE1;stroke:none;" transform="matrix(1 0 0 1 339 1126)">
   <path d="M0.976562 0L3.66211 0L12.9883-24.4629L45.752-24.4629L55.127 0L57.7637 0L30.6152-70.459L28.125-70.459ZM29.3457-67.1387L29.4434-67.1387L44.873-26.709L13.8672-26.709Z"/>
  </g>
  <line id="Baseline-M" style="fill:none;stroke:#27AAE1;opacity:1;stroke-width:0.5;" x1="263" x2="3036" y1="1126" y2="1126"/>
  <line id="Capline-M" style="fill:none;stroke:#27AAE1;opacity:1;stroke-width:0.5;" x1="263" x2="3036" y1="1055.54" y2="1055.54"/>
  <g id="H-reference" style="fill:#27AAE1;stroke:none;" transform="matrix(1 0 0 1 339 1556)">
   <path d="M0.976562 0L3.66211 0L12.9883-24.4629L45.752-24.4629L55.127 0L57.7637 0L30.6152-70.459L28.125-70.459ZM29.3457-67.1387L29.4434-67.1387L44.873-26.709L13.8672-26.709Z"/>
  </g>
  <line id="Baseline-L" style="fill:none;stroke:#27AAE1;opacity:1;stroke-width:0.5;" x1="263" x2="3036" y1="1556" y2="1556"/>
  <line id="Capline-L" style="fill:none;stroke:#27AAE1;opacity:1;stroke-width:0.5;" x1="263" x2="3036" y1="1485.54" y2="1485.54"/>
  <line id="left-margin" x1="1404.547823639435" x2="1404.547823639435" y1="1030.79" y2="1150.12" style="fill:none;stroke:#00AEEF;stroke-width:0.5;opacity:1.0;"/>
  <line id="right-margin" x1="1497.7121763605649" x2="1497.7121763605649" y1="1030.79" y2="1150.12" style="fill:none;stroke:#00AEEF;stroke-width:0.5;opacity:1.0;"/>
 </g>
 <g id="Symbols">
  <g id="Black-L" transform="matrix(1.0,0.0,0.0,1.0,2871.823297588777,1462.9498225787213)">  <path opacity="1" clip-rule="evenodd" xmlns:vectornator="http://vectornator.io" stroke-linejoin="round" stroke-opacity="1" stroke="none" fill="#000000" xml:space="preserve" stroke-miterlimit="10" xmlns:xlink="http://www.w3.org/1999/xlink" fill-opacity="1" stroke-width="1px" stroke-linecap="round" vectornator:layerName="Untitled" fill-rule="nonzero" stroke-dasharray="none" version="1.1" d="M79.077,2.929C68.404,8.07,63.87,20.702,65.795,32.255C67.156,40.419,74.147,49.979,83.573,46.558C95.412,42.262,99.046,26.706,97.509,15.638C96.658,9.508,92.497,3.563,86.255,1.952C83.461,1.23,81.571,1.727,79.077,2.929ZM38.173,2.458C23.069,6.252,24.777,29.005,33.648,39.954C37.22,44.363,43.053,48.313,48.928,46.918C58.541,44.636,60.364,33.065,59.536,24.821C58.32,12.707,50.94,-0.748,38.173,2.458ZM107.405,35.252C97.114,39.029,92.331,49.377,92.301,60.289C92.273,70.213,100.566,78.101,110.461,73.806C120.759,69.336,124.96,57.144,124.345,46.647C124.23,44.684,123.1,41.746,122.156,40.189C118.468,34.105,113.525,33.006,107.405,35.252ZM10.551,37.015C-5.986,42.117,2.06,67.334,14.195,74.335C17.481,76.231,22.014,77.764,25.831,76.627C32.709,74.578,34.286,65.775,33.765,59.789C32.762,48.255,23.01,33.172,10.551,37.015ZM59.448,52.531C54.69,53.777,50.186,56.531,46.753,60.053C42.735,64.178,39.598,69.08,35.852,73.453C31.827,78.152,27.252,82.381,23.449,87.261C21.165,90.192,19.901,95.825,19.675,99.305C19.464,102.56,20.534,106.269,22.57,108.833C26.347,113.592,32.783,114.834,38.474,113.454C44.744,111.933,50.759,109.478,57.009,107.878C59.842,107.153,62.748,106.568,65.67,106.489C77.514,106.172,87.494,116.719,99.382,114.093C101.381,113.652,103.2,112.56,104.936,111.478C108.99,108.951,109.089,104.101,108.786,99.782C108.422,94.602,106.616,90.607,103.438,86.53C96.777,77.985,89.751,69.729,82.721,61.486C76.58,54.286,68.513,50.157,59.448,52.531ZM59.448,52.531"/>
</g>
  <g id="Heavy-L" transform="matrix(1.0,0.0,0.0,1.0,2575.113297588777,1462.9498225787213)">  <path xmlns:vectornator="http://vectornator.io" xml:space="preserve" xmlns:xlink="http://www.w3.org/1999/xlink" fill-rule="nonzero" stroke-width="1px" fill-opacity="1" stroke-opacity="1" stroke="none" version="1.1" clip-rule="evenodd" stroke-miterlimit="10" fill="#000000" stroke-linejoin="round" stroke-linecap="round" stroke-dasharray="none" opacity="1" vectornator:layerName="Untitled" d="M79.077,2.929C68.404,8.07,63.87,20.702,65.795,32.255C67.156,40.419,74.147,49.979,83.573,46.558C95.412,42.262,99.046,26.706,97.509,15.638C96.658,9.508,92.497,3.563,86.255,1.952C83.461,1.23,81.571,1.727,79.077,2.929ZM38.173,2.458C23.069,6.252,24.777,29.005,33.648,39.954C37.22,44.363,43.053,48.313,48.928,46.918C58.541,44.636,60.364,33.065,59.536,24.821C58.32,12.707,50.94,-0.748,38.173,2.458ZM107.405,35.252C97.114,39.029,92.331,49.377,92.301,60.289C92.273,70.213,100.566,78.101,110.461,73.806C120.759,69.336,124.96,57.144,124.345,46.647C124.23,44.684,123.1,41.746,122.156,40.189C118.468,34.105,113.525,33.006,107.405,35.252ZM10.551,37.015C-5.986,42.117,2.06,67.334,14.195,74.335C17.481,76.231,22.014,77.764,25.831,76.627C32.709,74.578,34.286,65.775,33.765,59.789C32.762,48.255,23.01,33.172,10.551,37.015ZM59.448,52.531C54.69,53.777,50.186,56.531,46.753,60.053C42.735,64.178,39.598,69.08,35.852,73.453C31.827,78.152,27.252,82.381,23.449,87.261C21.165,90.192,19.901,95.825,19.675,99.305C19.464,102.56,20.534,106.269,22.57,108.833C26.347,113.592,32.783,114.834,38.474,113.454C44.744,111.933,50.759,109.478,57.009,107.878C59.842,107.153,62.748,106.568,65.67,106.489C77.514,106.172,87.494,116.719,99.382,114.093C101.381,113.652,103.2,112.56,104.936,111.478C108.99,108.951,109.089,104.101,108.786,99.782C108.422,94.602,106.616,90.607,103.438,86.53C96.777,77.985,89.751,69.729,82.721,61.486C76.58,54.286,68.513,50.157,59.448,52.531ZM59.448,52.531"/>
</g>
  <g id="Bold-L" transform="matrix(1.0,0.0,0.0,1.0,2278.403297588777,1462.9498225787213)">  <path xmlns:vectornator="http://vectornator.io" stroke="none" stroke-linejoin="round" xml:space="preserve" stroke-miterlimit="10" clip-rule="evenodd" stroke-linecap="round" opacity="1" version="1.1" stroke-width="1px" vectornator:layerName="Untitled" fill="#000000" xmlns:xlink="http://www.w3.org/1999/xlink" fill-opacity="1" stroke-opacity="1" fill-rule="nonzero" stroke-dasharray="none" d="M79.077,2.929C68.404,8.07,63.87,20.702,65.795,32.255C67.156,40.419,74.147,49.979,83.573,46.558C95.412,42.262,99.046,26.706,97.509,15.638C96.658,9.508,92.497,3.563,86.255,1.952C83.461,1.23,81.571,1.727,79.077,2.929ZM38.173,2.458C23.069,6.252,24.777,29.005,33.648,39.954C37.22,44.363,43.053,48.313,48.928,46.918C58.541,44.636,60.364,33.065,59.536,24.821C58.32,12.707,50.94,-0.748,38.173,2.458ZM107.405,35.252C97.114,39.029,92.331,49.377,92.301,60.289C92.273,70.213,100.566,78.101,110.461,73.806C120.759,69.336,124.96,57.144,124.345,46.647C124.23,44.684,123.1,41.746,122.156,40.189C118.468,34.105,113.525,33.006,107.405,35.252ZM10.551,37.015C-5.986,42.117,2.06,67.334,14.195,74.335C17.481,76.231,22.014,77.764,25.831,76.627C32.709,74.578,34.286,65.775,33.765,59.789C32.762,48.255,23.01,33.172,10.551,37.015ZM59.448,52.531C54.69,53.777,50.186,56.531,46.753,60.053C42.735,64.178,39.598,69.08,35.852,73.453C31.827,78.152,27.252,82.381,23.449,87.261C21.165,90.192,19.901,95.825,19.675,99.305C19.464,102.56,20.534,106.269,22.57,108.833C26.347,113.592,32.783,114.834,38.474,113.454C44.744,111.933,50.759,109.478,57.009,107.878C59.842,107.153,62.748,106.568,65.67,106.489C77.514,106.172,87.494,116.719,99.382,114.093C101.381,113.652,103.2,112.56,104.936,111.478C108.99,108.951,109.089,104.101,108.786,99.782C108.422,94.602,106.616,90.607,103.438,86.53C96.777,77.985,89.751,69.729,82.721,61.486C76.58,54.286,68.513,50.157,59.448,52.531ZM59.448,52.531"/>
</g>
  <g id="Semibold-L" transform="matrix(1.0,0.0,0.0,1.0,1981.6932975887773,1462.9498225787213)">  <path stroke-linecap="round" stroke-opacity="1" version="1.1" stroke-width="1px" xmlns:xlink="http://www.w3.org/1999/xlink" stroke-miterlimit="10" xmlns:vectornator="http://vectornator.io" fill="#000000" clip-rule="evenodd" opacity="1" stroke-linejoin="round" fill-rule="nonzero" fill-opacity="1" stroke-dasharray="none" xml:space="preserve" stroke="none" vectornator:layerName="Untitled" d="M79.077,2.929C68.404,8.07,63.87,20.702,65.795,32.255C67.156,40.419,74.147,49.979,83.573,46.558C95.412,42.262,99.046,26.706,97.509,15.638C96.658,9.508,92.497,3.563,86.255,1.952C83.461,1.23,81.571,1.727,79.077,2.929ZM38.173,2.458C23.069,6.252,24.777,29.005,33.648,39.954C37.22,44.363,43.053,48.313,48.928,46.918C58.541,44.636,60.364,33.065,59.536,24.821C58.32,12.707,50.94,-0.748,38.173,2.458ZM107.405,35.252C97.114,39.029,92.331,49.377,92.301,60.289C92.273,70.213,100.566,78.101,110.461,73.806C120.759,69.336,124.96,57.144,124.345,46.647C124.23,44.684,123.1,41.746,122.156,40.189C118.468,34.105,113.525,33.006,107.405,35.252ZM10.551,37.015C-5.986,42.117,2.06,67.334,14.195,74.335C17.481,76.231,22.014,77.764,25.831,76.627C32.709,74.578,34.286,65.775,33.765,59.789C32.762,48.255,23.01,33.172,10.551,37.015ZM59.448,52.531C54.69,53.777,50.186,56.531,46.753,60.053C42.735,64.178,39.598,69.08,35.852,73.453C31.827,78.152,27.252,82.381,23.449,87.261C21.165,90.192,19.901,95.825,19.675,99.305C19.464,102.56,20.534,106.269,22.57,108.833C26.347,113.592,32.783,114.834,38.474,113.454C44.744,111.933,50.759,109.478,57.009,107.878C59.842,107.153,62.748,106.568,65.67,106.489C77.514,106.172,87.494,116.719,99.382,114.093C101.381,113.652,103.2,112.56,104.936,111.478C108.99,108.951,109.089,104.101,108.786,99.782C108.422,94.602,106.616,90.607,103.438,86.53C96.777,77.985,89.751,69.729,82.721,61.486C76.58,54.286,68.513,50.157,59.448,52.531ZM59.448,52.531"/>
</g>
  <g id="Medium-L" transform="matrix(1.0,0.0,0.0,1.0,1684.9832975887773,1462.9498225787213)">  <path stroke="none" vectornator:layerName="Untitled" version="1.1" opacity="1" xml:space="preserve" stroke-opacity="1" stroke-linecap="round" fill="#000000" xmlns:vectornator="http://vectornator.io" stroke-width="1px" fill-rule="nonzero" fill-opacity="1" xmlns:xlink="http://www.w3.org/1999/xlink" clip-rule="evenodd" stroke-dasharray="none" stroke-miterlimit="10" stroke-linejoin="round" d="M79.077,2.929C68.404,8.07,63.87,20.702,65.795,32.255C67.156,40.419,74.147,49.979,83.573,46.558C95.412,42.262,99.046,26.706,97.509,15.638C96.658,9.508,92.497,3.563,86.255,1.952C83.461,1.23,81.571,1.727,79.077,2.929ZM38.173,2.458C23.069,6.252,24.777,29.005,33.648,39.954C37.22,44.363,43.053,48.313,48.928,46.918C58.541,44.636,60.364,33.065,59.536,24.821C58.32,12.707,50.94,-0.748,38.173,2.458ZM107.405,35.252C97.114,39.029,92.331,49.377,92.301,60.289C92.273,70.213,100.566,78.101,110.461,73.806C120.759,69.336,124.96,57.144,124.345,46.647C124.23,44.684,123.1,41.746,122.156,40.189C118.468,34.105,113.525,33.006,107.405,35.252ZM10.551,37.015C-5.986,42.117,2.06,67.334,14.195,74.335C17.481,76.231,22.014,77.764,25.831,76.627C32.709,74.578,34.286,65.775,33.765,59.789C32.762,48.255,23.01,33.172,10.551,37.015ZM59.448,52.531C54.69,53.777,50.186,56.531,46.753,60.053C42.735,64.178,39.598,69.08,35.852,73.453C31.827,78.152,27.252,82.381,23.449,87.261C21.165,90.192,19.901,95.825,19.675,99.305C19.464,102.56,20.534,106.269,22.57,108.833C26.347,113.592,32.783,114.834,38.474,113.454C44.744,111.933,50.759,109.478,57.009,107.878C59.842,107.153,62.748,106.568,65.67,106.489C77.514,106.172,87.494,116.719,99.382,114.093C101.381,113.652,103.2,112.56,104.936,111.478C108.99,108.951,109.089,104.101,108.786,99.782C108.422,94.602,106.616,90.607,103.438,86.53C96.777,77.985,89.751,69.729,82.721,61.486C76.58,54.286,68.513,50.157,59.448,52.531ZM59.448,52.531"/>
</g>
  <g id="Regular-L" transform="matrix(1.0,0.0,0.0,1.0,1388.2732975887773,1462.9498225787213)">  <path stroke-dasharray="none" fill="#000000" opacity="1" xmlns:xlink="http://www.w3.org/1999/xlink" clip-rule="evenodd" fill-rule="nonzero" stroke-miterlimit="10" stroke-linejoin="round" stroke="none" xmlns:vectornator="http://vectornator.io" stroke-linecap="round" version="1.1" stroke-width="1px" vectornator:layerName="Untitled" fill-opacity="1" stroke-opacity="1" xml:space="preserve" d="M79.077,2.929C68.404,8.07,63.87,20.702,65.795,32.255C67.156,40.419,74.147,49.979,83.573,46.558C95.412,42.262,99.046,26.706,97.509,15.638C96.658,9.508,92.497,3.563,86.255,1.952C83.461,1.23,81.571,1.727,79.077,2.929ZM38.173,2.458C23.069,6.252,24.777,29.005,33.648,39.954C37.22,44.363,43.053,48.313,48.928,46.918C58.541,44.636,60.364,33.065,59.536,24.821C58.32,12.707,50.94,-0.748,38.173,2.458ZM107.405,35.252C97.114,39.029,92.331,49.377,92.301,60.289C92.273,70.213,100.566,78.101,110.461,73.806C120.759,69.336,124.96,57.144,124.345,46.647C124.23,44.684,123.1,41.746,122.156,40.189C118.468,34.105,113.525,33.006,107.405,35.252ZM10.551,37.015C-5.986,42.117,2.06,67.334,14.195,74.335C17.481,76.231,22.014,77.764,25.831,76.627C32.709,74.578,34.286,65.775,33.765,59.789C32.762,48.255,23.01,33.172,10.551,37.015ZM59.448,52.531C54.69,53.777,50.186,56.531,46.753,60.053C42.735,64.178,39.598,69.08,35.852,73.453C31.827,78.152,27.252,82.381,23.449,87.261C21.165,90.192,19.901,95.825,19.675,99.305C19.464,102.56,20.534,106.269,22.57,108.833C26.347,113.592,32.783,114.834,38.474,113.454C44.744,111.933,50.759,109.478,57.009,107.878C59.842,107.153,62.748,106.568,65.67,106.489C77.514,106.172,87.494,116.719,99.382,114.093C101.381,113.652,103.2,112.56,104.936,111.478C108.99,108.951,109.089,104.101,108.786,99.782C108.422,94.602,106.616,90.607,103.438,86.53C96.777,77.985,89.751,69.729,82.721,61.486C76.58,54.286,68.513,50.157,59.448,52.531ZM59.448,52.531"/>
</g>
  <g id="Light-L" transform="matrix(1.0,0.0,0.0,1.0,1091.5632975887775,1462.9498225787213)">  <path opacity="1" stroke-linejoin="round" xmlns:vectornator="http://vectornator.io" stroke-dasharray="none" clip-rule="evenodd" stroke-miterlimit="10" stroke-opacity="1" fill-opacity="1" version="1.1" xml:space="preserve" stroke-linecap="round" xmlns:xlink="http://www.w3.org/1999/xlink" stroke="none" fill="#000000" vectornator:layerName="Untitled" stroke-width="1px" fill-rule="nonzero" d="M79.077,2.929C68.404,8.07,63.87,20.702,65.795,32.255C67.156,40.419,74.147,49.979,83.573,46.558C95.412,42.262,99.046,26.706,97.509,15.638C96.658,9.508,92.497,3.563,86.255,1.952C83.461,1.23,81.571,1.727,79.077,2.929ZM38.173,2.458C23.069,6.252,24.777,29.005,33.648,39.954C37.22,44.363,43.053,48.313,48.928,46.918C58.541,44.636,60.364,33.065,59.536,24.821C58.32,12.707,50.94,-0.748,38.173,2.458ZM107.405,35.252C97.114,39.029,92.331,49.377,92.301,60.289C92.273,70.213,100.566,78.101,110.461,73.806C120.759,69.336,124.96,57.144,124.345,46.647C124.23,44.684,123.1,41.746,122.156,40.189C118.468,34.105,113.525,33.006,107.405,35.252ZM10.551,37.015C-5.986,42.117,2.06,67.334,14.195,74.335C17.481,76.231,22.014,77.764,25.831,76.627C32.709,74.578,34.286,65.775,33.765,59.789C32.762,48.255,23.01,33.172,10.551,37.015ZM59.448,52.531C54.69,53.777,50.186,56.531,46.753,60.053C42.735,64.178,39.598,69.08,35.852,73.453C31.827,78.152,27.252,82.381,23.449,87.261C21.165,90.192,19.901,95.825,19.675,99.305C19.464,102.56,20.534,106.269,22.57,108.833C26.347,113.592,32.783,114.834,38.474,113.454C44.744,111.933,50.759,109.478,57.009,107.878C59.842,107.153,62.748,106.568,65.67,106.489C77.514,106.172,87.494,116.719,99.382,114.093C101.381,113.652,103.2,112.56,104.936,111.478C108.99,108.951,109.089,104.101,108.786,99.782C108.422,94.602,106.616,90.607,103.438,86.53C96.777,77.985,89.751,69.729,82.721,61.486C76.58,54.286,68.513,50.157,59.448,52.531ZM59.448,52.531"/>
</g>
  <g id="Thin-L" transform="matrix(1.0,0.0,0.0,1.0,794.8532975887774,1462.9498225787213)">  <path stroke-dasharray="none" xml:space="preserve" clip-rule="evenodd" xmlns:vectornator="http://vectornator.io" fill="#000000" opacity="1" stroke-opacity="1" fill-rule="nonzero" vectornator:layerName="Untitled" xmlns:xlink="http://www.w3.org/1999/xlink" stroke="none" stroke-width="1px" fill-opacity="1" stroke-linejoin="round" version="1.1" stroke-linecap="round" stroke-miterlimit="10" d="M79.077,2.929C68.404,8.07,63.87,20.702,65.795,32.255C67.156,40.419,74.147,49.979,83.573,46.558C95.412,42.262,99.046,26.706,97.509,15.638C96.658,9.508,92.497,3.563,86.255,1.952C83.461,1.23,81.571,1.727,79.077,2.929ZM38.173,2.458C23.069,6.252,24.777,29.005,33.648,39.954C37.22,44.363,43.053,48.313,48.928,46.918C58.541,44.636,60.364,33.065,59.536,24.821C58.32,12.707,50.94,-0.748,38.173,2.458ZM107.405,35.252C97.114,39.029,92.331,49.377,92.301,60.289C92.273,70.213,100.566,78.101,110.461,73.806C120.759,69.336,124.96,57.144,124.345,46.647C124.23,44.684,123.1,41.746,122.156,40.189C118.468,34.105,113.525,33.006,107.405,35.252ZM10.551,37.015C-5.986,42.117,2.06,67.334,14.195,74.335C17.481,76.231,22.014,77.764,25.831,76.627C32.709,74.578,34.286,65.775,33.765,59.789C32.762,48.255,23.01,33.172,10.551,37.015ZM59.448,52.531C54.69,53.777,50.186,56.531,46.753,60.053C42.735,64.178,39.598,69.08,35.852,73.453C31.827,78.152,27.252,82.381,23.449,87.261C21.165,90.192,19.901,95.825,19.675,99.305C19.464,102.56,20.534,106.269,22.57,108.833C26.347,113.592,32.783,114.834,38.474,113.454C44.744,111.933,50.759,109.478,57.009,107.878C59.842,107.153,62.748,106.568,65.67,106.489C77.514,106.172,87.494,116.719,99.382,114.093C101.381,113.652,103.2,112.56,104.936,111.478C108.99,108.951,109.089,104.101,108.786,99.782C108.422,94.602,106.616,90.607,103.438,86.53C96.777,77.985,89.751,69.729,82.721,61.486C76.58,54.286,68.513,50.157,59.448,52.531ZM59.448,52.531"/>
</g>
  <g id="Ultralight-L" transform="matrix(1.0,0.0,0.0,1.0,498.1432975887774,1462.9498225787213)">  <path fill="#000000" xmlns:xlink="http://www.w3.org/1999/xlink" clip-rule="evenodd" vectornator:layerName="Untitled" xml:space="preserve" fill-rule="nonzero" stroke-dasharray="none" stroke-linecap="round" stroke-width="1px" stroke-linejoin="round" stroke="none" fill-opacity="1" xmlns:vectornator="http://vectornator.io" stroke-opacity="1" stroke-miterlimit="10" opacity="1" version="1.1" d="M79.077,2.929C68.404,8.07,63.87,20.702,65.795,32.255C67.156,40.419,74.147,49.979,83.573,46.558C95.412,42.262,99.046,26.706,97.509,15.638C96.658,9.508,92.497,3.563,86.255,1.952C83.461,1.23,81.571,1.727,79.077,2.929ZM38.173,2.458C23.069,6.252,24.777,29.005,33.648,39.954C37.22,44.363,43.053,48.313,48.928,46.918C58.541,44.636,60.364,33.065,59.536,24.821C58.32,12.707,50.94,-0.748,38.173,2.458ZM107.405,35.252C97.114,39.029,92.331,49.377,92.301,60.289C92.273,70.213,100.566,78.101,110.461,73.806C120.759,69.336,124.96,57.144,124.345,46.647C124.23,44.684,123.1,41.746,122.156,40.189C118.468,34.105,113.525,33.006,107.405,35.252ZM10.551,37.015C-5.986,42.117,2.06,67.334,14.195,74.335C17.481,76.231,22.014,77.764,25.831,76.627C32.709,74.578,34.286,65.775,33.765,59.789C32.762,48.255,23.01,33.172,10.551,37.015ZM59.448,52.531C54.69,53.777,50.186,56.531,46.753,60.053C42.735,64.178,39.598,69.08,35.852,73.453C31.827,78.152,27.252,82.381,23.449,87.261C21.165,90.192,19.901,95.825,19.675,99.305C19.464,102.56,20.534,106.269,22.57,108.833C26.347,113.592,32.783,114.834,38.474,113.454C44.744,111.933,50.759,109.478,57.009,107.878C59.842,107.153,62.748,106.568,65.67,106.489C77.514,106.172,87.494,116.719,99.382,114.093C101.381,113.652,103.2,112.56,104.936,111.478C108.99,108.951,109.089,104.101,108.786,99.782C108.422,94.602,106.616,90.607,103.438,86.53C96.777,77.985,89.751,69.729,82.721,61.486C76.58,54.286,68.513,50.157,59.448,52.531ZM59.448,52.531"/>
</g>
  <g id="Black-M" transform="matrix(1.0,0.0,0.0,1.0,2885.9538740998273,1045.9481614285146)">  <path opacity="1" clip-rule="evenodd" xmlns:vectornator="http://vectornator.io" stroke-linejoin="round" stroke-opacity="1" stroke="none" fill="#000000" xml:space="preserve" stroke-miterlimit="10" xmlns:xlink="http://www.w3.org/1999/xlink" fill-opacity="1" stroke-width="1px" stroke-linecap="round" vectornator:layerName="Untitled" fill-rule="nonzero" stroke-dasharray="none" version="1.1" d="M61.3,2.27C53.026,6.256,49.511,16.048,51.004,25.004C52.059,31.333,57.478,38.743,64.785,36.092C73.963,32.762,76.78,20.702,75.589,12.122C74.929,7.371,71.703,2.762,66.864,1.513C64.699,0.954,63.234,1.339,61.3,2.27ZM29.591,1.906C17.883,4.847,19.207,22.484,26.083,30.972C28.853,34.39,33.374,37.452,37.929,36.371C45.381,34.602,46.794,25.632,46.152,19.241C45.209,9.851,39.488,-0.58,29.591,1.906ZM83.259,27.327C75.282,30.255,71.575,38.277,71.551,46.735C71.529,54.429,77.959,60.543,85.628,57.214C93.611,53.749,96.869,44.298,96.392,36.16C96.303,34.639,95.426,32.361,94.695,31.154C91.836,26.438,88.004,25.586,83.259,27.327ZM8.179,28.694C-4.64,32.649,1.597,52.197,11.004,57.624C13.551,59.093,17.065,60.282,20.024,59.401C25.356,57.812,26.578,50.989,26.175,46.348C25.397,37.407,17.837,25.715,8.179,28.694ZM46.084,40.722C42.395,41.687,38.904,43.822,36.243,46.553C33.128,49.75,30.696,53.55,27.792,56.94C24.672,60.583,21.126,63.861,18.178,67.644C16.407,69.916,15.427,74.283,15.252,76.98C15.088,79.504,15.918,82.379,17.496,84.367C20.424,88.056,25.413,89.019,29.825,87.949C34.685,86.77,39.348,84.867,44.193,83.626C46.389,83.064,48.641,82.611,50.907,82.55C60.088,82.304,67.824,90.48,77.041,88.444C78.59,88.102,80,87.256,81.346,86.417C84.489,84.458,84.565,80.698,84.33,77.351C84.048,73.335,82.648,70.238,80.184,67.077C75.021,60.453,69.575,54.053,64.125,47.664C59.365,42.082,53.111,38.882,46.084,40.722ZM46.084,40.722"/>
</g>
  <g id="Heavy-M" transform="matrix(1.0,0.0,0.0,1.0,2589.2438740998273,1045.9481614285146)">  <path xmlns:vectornator="http://vectornator.io" xml:space="preserve" xmlns:xlink="http://www.w3.org/1999/xlink" fill-rule="nonzero" stroke-width="1px" fill-opacity="1" stroke-opacity="1" stroke="none" version="1.1" clip-rule="evenodd" stroke-miterlimit="10" fill="#000000" stroke-linejoin="round" stroke-linecap="round" stroke-dasharray="none" opacity="1" vectornator:layerName="Untitled" d="M61.3,2.27C53.026,6.256,49.511,16.048,51.004,25.004C52.059,31.333,57.478,38.743,64.785,36.092C73.963,32.762,76.78,20.702,75.589,12.122C74.929,7.371,71.703,2.762,66.864,1.513C64.699,0.954,63.234,1.339,61.3,2.27ZM29.591,1.906C17.883,4.847,19.207,22.484,26.083,30.972C28.853,34.39,33.374,37.452,37.929,36.371C45.381,34.602,46.794,25.632,46.152,19.241C45.209,9.851,39.488,-0.58,29.591,1.906ZM83.259,27.327C75.282,30.255,71.575,38.277,71.551,46.735C71.529,54.429,77.959,60.543,85.628,57.214C93.611,53.749,96.869,44.298,96.392,36.16C96.303,34.639,95.426,32.361,94.695,31.154C91.836,26.438,88.004,25.586,83.259,27.327ZM8.179,28.694C-4.64,32.649,1.597,52.197,11.004,57.624C13.551,59.093,17.065,60.282,20.024,59.401C25.356,57.812,26.578,50.989,26.175,46.348C25.397,37.407,17.837,25.715,8.179,28.694ZM46.084,40.722C42.395,41.687,38.904,43.822,36.243,46.553C33.128,49.75,30.696,53.55,27.792,56.94C24.672,60.583,21.126,63.861,18.178,67.644C16.407,69.916,15.427,74.283,15.252,76.98C15.088,79.504,15.918,82.379,17.496,84.367C20.424,88.056,25.413,89.019,29.825,87.949C34.685,86.77,39.348,84.867,44.193,83.626C46.389,83.064,48.641,82.611,50.907,82.55C60.088,82.304,67.824,90.48,77.041,88.444C78.59,88.102,80,87.256,81.346,86.417C84.489,84.458,84.565,80.698,84.33,77.351C84.048,73.335,82.648,70.238,80.184,67.077C75.021,60.453,69.575,54.053,64.125,47.664C59.365,42.082,53.111,38.882,46.084,40.722ZM46.084,40.722"/>
</g>
  <g id="Bold-M" transform="matrix(1.0,0.0,0.0,1.0,2292.5338740998272,1045.9481614285146)">  <path xmlns:vectornator="http://vectornator.io" stroke="none" stroke-linejoin="round" xml:space="preserve" stroke-miterlimit="10" clip-rule="evenodd" stroke-linecap="round" opacity="1" version="1.1" stroke-width="1px" vectornator:layerName="Untitled" fill="#000000" xmlns:xlink="http://www.w3.org/1999/xlink" fill-opacity="1" stroke-opacity="1" fill-rule="nonzero" stroke-dasharray="none" d="M61.3,2.27C53.026,6.256,49.511,16.048,51.004,25.004C52.059,31.333,57.478,38.743,64.785,36.092C73.963,32.762,76.78,20.702,75.589,12.122C74.929,7.371,71.703,2.762,66.864,1.513C64.699,0.954,63.234,1.339,61.3,2.27ZM29.591,1.906C17.883,4.847,19.207,22.484,26.083,30.972C28.853,34.39,33.374,37.452,37.929,36.371C45.381,34.602,46.794,25.632,46.152,19.241C45.209,9.851,39.488,-0.58,29.591,1.906ZM83.259,27.327C75.282,30.255,71.575,38.277,71.551,46.735C71.529,54.429,77.959,60.543,85.628,57.214C93.611,53.749,96.869,44.298,96.392,36.16C96.303,34.639,95.426,32.361,94.695,31.154C91.836,26.438,88.004,25.586,83.259,27.327ZM8.179,28.694C-4.64,32.649,1.597,52.197,11.004,57.624C13.551,59.093,17.065,60.282,20.024,59.401C25.356,57.812,26.578,50.989,26.175,46.348C25.397,37.407,17.837,25.715,8.179,28.694ZM46.084,40.722C42.395,41.687,38.904,43.822,36.243,46.553C33.128,49.75,30.696,53.55,27.792,56.94C24.672,60.583,21.126,63.861,18.178,67.644C16.407,69.916,15.427,74.283,15.252,76.98C15.088,79.504,15.918,82.379,17.496,84.367C20.424,88.056,25.413,89.019,29.825,87.949C34.685,86.77,39.348,84.867,44.193,83.626C46.389,83.064,48.641,82.611,50.907,82.55C60.088,82.304,67.824,90.48,77.041,88.444C78.59,88.102,80,87.256,81.346,86.417C84.489,84.458,84.565,80.698,84.33,77.351C84.048,73.335,82.648,70.238,80.184,67.077C75.021,60.453,69.575,54.053,64.125,47.664C59.365,42.082,53.111,38.882,46.084,40.722ZM46.084,40.722"/>
</g>
  <g id="Semibold-M" transform="matrix(1.0,0.0,0.0,1.0,1995.8238740998274,1045.9481614285146)">  <path stroke-linecap="round" stroke-opacity="1" version="1.1" stroke-width="1px" xmlns:xlink="http://www.w3.org/1999/xlink" stroke-miterlimit="10" xmlns:vectornator="http://vectornator.io" fill="#000000" clip-rule="evenodd" opacity="1" stroke-linejoin="round" fill-rule="nonzero" fill-opacity="1" stroke-dasharray="none" xml:space="preserve" stroke="none" vectornator:layerName="Untitled" d="M61.3,2.27C53.026,6.256,49.511,16.048,51.004,25.004C52.059,31.333,57.478,38.743,64.785,36.092C73.963,32.762,76.78,20.702,75.589,12.122C74.929,7.371,71.703,2.762,66.864,1.513C64.699,0.954,63.234,1.339,61.3,2.27ZM29.591,1.906C17.883,4.847,19.207,22.484,26.083,30.972C28.853,34.39,33.374,37.452,37.929,36.371C45.381,34.602,46.794,25.632,46.152,19.241C45.209,9.851,39.488,-0.58,29.591,1.906ZM83.259,27.327C75.282,30.255,71.575,38.277,71.551,46.735C71.529,54.429,77.959,60.543,85.628,57.214C93.611,53.749,96.869,44.298,96.392,36.16C96.303,34.639,95.426,32.361,94.695,31.154C91.836,26.438,88.004,25.586,83.259,27.327ZM8.179,28.694C-4.64,32.649,1.597,52.197,11.004,57.624C13.551,59.093,17.065,60.282,20.024,59.401C25.356,57.812,26.578,50.989,26.175,46.348C25.397,37.407,17.837,25.715,8.179,28.694ZM46.084,40.722C42.395,41.687,38.904,43.822,36.243,46.553C33.128,49.75,30.696,53.55,27.792,56.94C24.672,60.583,21.126,63.861,18.178,67.644C16.407,69.916,15.427,74.283,15.252,76.98C15.088,79.504,15.918,82.379,17.496,84.367C20.424,88.056,25.413,89.019,29.825,87.949C34.685,86.77,39.348,84.867,44.193,83.626C46.389,83.064,48.641,82.611,50.907,82.55C60.088,82.304,67.824,90.48,77.041,88.444C78.59,88.102,80,87.256,81.346,86.417C84.489,84.458,84.565,80.698,84.33,77.351C84.048,73.335,82.648,70.238,80.184,67.077C75.021,60.453,69.575,54.053,64.125,47.664C59.365,42.082,53.111,38.882,46.084,40.722ZM46.084,40.722"/>
</g>
  <g id="Medium-M" transform="matrix(1.0,0.0,0.0,1.0,1699.1138740998274,1045.9481614285146)">  <path stroke="none" vectornator:layerName="Untitled" version="1.1" opacity="1" xml:space="preserve" stroke-opacity="1" stroke-linecap="round" fill="#000000" xmlns:vectornator="http://vectornator.io" stroke-width="1px" fill-rule="nonzero" fill-opacity="1" xmlns:xlink="http://www.w3.org/1999/xlink" clip-rule="evenodd" stroke-dasharray="none" stroke-miterlimit="10" stroke-linejoin="round" d="M61.3,2.27C53.026,6.256,49.511,16.048,51.004,25.004C52.059,31.333,57.478,38.743,64.785,36.092C73.963,32.762,76.78,20.702,75.589,12.122C74.929,7.371,71.703,2.762,66.864,1.513C64.699,0.954,63.234,1.339,61.3,2.27ZM29.591,1.906C17.883,4.847,19.207,22.484,26.083,30.972C28.853,34.39,33.374,37.452,37.929,36.371C45.381,34.602,46.794,25.632,46.152,19.241C45.209,9.851,39.488,-0.58,29.591,1.906ZM83.259,27.327C75.282,30.255,71.575,38.277,71.551,46.735C71.529,54.429,77.959,60.543,85.628,57.214C93.611,53.749,96.869,44.298,96.392,36.16C96.303,34.639,95.426,32.361,94.695,31.154C91.836,26.438,88.004,25.586,83.259,27.327ZM8.179,28.694C-4.64,32.649,1.597,52.197,11.004,57.624C13.551,59.093,17.065,60.282,20.024,59.401C25.356,57.812,26.578,50.989,26.175,46.348C25.397,37.407,17.837,25.715,8.179,28.694ZM46.084,40.722C42.395,41.687,38.904,43.822,36.243,46.553C33.128,49.75,30.696,53.55,27.792,56.94C24.672,60.583,21.126,63.861,18.178,67.644C16.407,69.916,15.427,74.283,15.252,76.98C15.088,79.504,15.918,82.379,17.496,84.367C20.424,88.056,25.413,89.019,29.825,87.949C34.685,86.77,39.348,84.867,44.193,83.626C46.389,83.064,48.641,82.611,50.907,82.55C60.088,82.304,67.824,90.48,77.041,88.444C78.59,88.102,80,87.256,81.346,86.417C84.489,84.458,84.565,80.698,84.33,77.351C84.048,73.335,82.648,70.238,80.184,67.077C75.021,60.453,69.575,54.053,64.125,47.664C59.365,42.082,53.111,38.882,46.084,40.722ZM46.084,40.722"/>
</g>
  <g id="Regular-M" transform="matrix(1.0,0.0,0.0,1.0,1402.4038740998274,1045.9481614285146)">  <path stroke-dasharray="none" fill="#000000" opacity="1" xmlns:xlink="http://www.w3.org/1999/xlink" clip-rule="evenodd" fill-rule="nonzero" stroke-miterlimit="10" stroke-linejoin="round" stroke="none" xmlns:vectornator="http://vectornator.io" stroke-linecap="round" version="1.1" stroke-width="1px" vectornator:layerName="Untitled" fill-opacity="1" stroke-opacity="1" xml:space="preserve" d="M61.3,2.27C53.026,6.256,49.511,16.048,51.004,25.004C52.059,31.333,57.478,38.743,64.785,36.092C73.963,32.762,76.78,20.702,75.589,12.122C74.929,7.371,71.703,2.762,66.864,1.513C64.699,0.954,63.234,1.339,61.3,2.27ZM29.591,1.906C17.883,4.847,19.207,22.484,26.083,30.972C28.853,34.39,33.374,37.452,37.929,36.371C45.381,34.602,46.794,25.632,46.152,19.241C45.209,9.851,39.488,-0.58,29.591,1.906ZM83.259,27.327C75.282,30.255,71.575,38.277,71.551,46.735C71.529,54.429,77.959,60.543,85.628,57.214C93.611,53.749,96.869,44.298,96.392,36.16C96.303,34.639,95.426,32.361,94.695,31.154C91.836,26.438,88.004,25.586,83.259,27.327ZM8.179,28.694C-4.64,32.649,1.597,52.197,11.004,57.624C13.551,59.093,17.065,60.282,20.024,59.401C25.356,57.812,26.578,50.989,26.175,46.348C25.397,37.407,17.837,25.715,8.179,28.694ZM46.084,40.722C42.395,41.687,38.904,43.822,36.243,46.553C33.128,49.75,30.696,53.55,27.792,56.94C24.672,60.583,21.126,63.861,18.178,67.644C16.407,69.916,15.427,74.283,15.252,76.98C15.088,79.504,15.918,82.379,17.496,84.367C20.424,88.056,25.413,89.019,29.825,87.949C34.685,86.77,39.348,84.867,44.193,83.626C46.389,83.064,48.641,82.611,50.907,82.55C60.088,82.304,67.824,90.48,77.041,88.444C78.59,88.102,80,87.256,81.346,86.417C84.489,84.458,84.565,80.698,84.33,77.351C84.048,73.335,82.648,70.238,80.184,67.077C75.021,60.453,69.575,54.053,64.125,47.664C59.365,42.082,53.111,38.882,46.084,40.722ZM46.084,40.722"/>
</g>
  <g id="Light-M" transform="matrix(1.0,0.0,0.0,1.0,1105.6938740998276,1045.9481614285146)">  <path opacity="1" stroke-linejoin="round" xmlns:vectornator="http://vectornator.io" stroke-dasharray="none" clip-rule="evenodd" stroke-miterlimit="10" stroke-opacity="1" fill-opacity="1" version="1.1" xml:space="preserve" stroke-linecap="round" xmlns:xlink="http://www.w3.org/1999/xlink" stroke="none" fill="#000000" vectornator:layerName="Untitled" stroke-width="1px" fill-rule="nonzero" d="M61.3,2.27C53.026,6.256,49.511,16.048,51.004,25.004C52.059,31.333,57.478,38.743,64.785,36.092C73.963,32.762,76.78,20.702,75.589,12.122C74.929,7.371,71.703,2.762,66.864,1.513C64.699,0.954,63.234,1.339,61.3,2.27ZM29.591,1.906C17.883,4.847,19.207,22.484,26.083,30.972C28.853,34.39,33.374,37.452,37.929,36.371C45.381,34.602,46.794,25.632,46.152,19.241C45.209,9.851,39.488,-0.58,29.591,1.906ZM83.259,27.327C75.282,30.255,71.575,38.277,71.551,46.735C71.529,54.429,77.959,60.543,85.628,57.214C93.611,53.749,96.869,44.298,96.392,36.16C96.303,34.639,95.426,32.361,94.695,31.154C91.836,26.438,88.004,25.586,83.259,27.327ZM8.179,28.694C-4.64,32.649,1.597,52.197,11.004,57.624C13.551,59.093,17.065,60.282,20.024,59.401C25.356,57.812,26.578,50.989,26.175,46.348C25.397,37.407,17.837,25.715,8.179,28.694ZM46.084,40.722C42.395,41.687,38.904,43.822,36.243,46.553C33.128,49.75,30.696,53.55,27.792,56.94C24.672,60.583,21.126,63.861,18.178,67.644C16.407,69.916,15.427,74.283,15.252,76.98C15.088,79.504,15.918,82.379,17.496,84.367C20.424,88.056,25.413,89.019,29.825,87.949C34.685,86.77,39.348,84.867,44.193,83.626C46.389,83.064,48.641,82.611,50.907,82.55C60.088,82.304,67.824,90.48,77.041,88.444C78.59,88.102,80,87.256,81.346,86.417C84.489,84.458,84.565,80.698,84.33,77.351C84.048,73.335,82.648,70.238,80.184,67.077C75.021,60.453,69.575,54.053,64.125,47.664C59.365,42.082,53.111,38.882,46.084,40.722ZM46.084,40.722"/>
</g>
  <g id="Thin-M" transform="matrix(1.0,0.0,0.0,1.0,808.9838740998275,1045.9481614285146)">  <path stroke-dasharray="none" xml:space="preserve" clip-rule="evenodd" xmlns:vectornator="http://vectornator.io" fill="#000000" opacity="1" stroke-opacity="1" fill-rule="nonzero" vectornator:layerName="Untitled" xmlns:xlink="http://www.w3.org/1999/xlink" stroke="none" stroke-width="1px" fill-opacity="1" stroke-linejoin="round" version="1.1" stroke-linecap="round" stroke-miterlimit="10" d="M61.3,2.27C53.026,6.256,49.511,16.048,51.004,25.004C52.059,31.333,57.478,38.743,64.785,36.092C73.963,32.762,76.78,20.702,75.589,12.122C74.929,7.371,71.703,2.762,66.864,1.513C64.699,0.954,63.234,1.339,61.3,2.27ZM29.591,1.906C17.883,4.847,19.207,22.484,26.083,30.972C28.853,34.39,33.374,37.452,37.929,36.371C45.381,34.602,46.794,25.632,46.152,19.241C45.209,9.851,39.488,-0.58,29.591,1.906ZM83.259,27.327C75.282,30.255,71.575,38.277,71.551,46.735C71.529,54.429,77.959,60.543,85.628,57.214C93.611,53.749,96.869,44.298,96.392,36.16C96.303,34.639,95.426,32.361,94.695,31.154C91.836,26.438,88.004,25.586,83.259,27.327ZM8.179,28.694C-4.64,32.649,1.597,52.197,11.004,57.624C13.551,59.093,17.065,60.282,20.024,59.401C25.356,57.812,26.578,50.989,26.175,46.348C25.397,37.407,17.837,25.715,8.179,28.694ZM46.084,40.722C42.395,41.687,38.904,43.822,36.243,46.553C33.128,49.75,30.696,53.55,27.792,56.94C24.672,60.583,21.126,63.861,18.178,67.644C16.407,69.916,15.427,74.283,15.252,76.98C15.088,79.504,15.918,82.379,17.496,84.367C20.424,88.056,25.413,89.019,29.825,87.949C34.685,86.77,39.348,84.867,44.193,83.626C46.389,83.064,48.641,82.611,50.907,82.55C60.088,82.304,67.824,90.48,77.041,88.444C78.59,88.102,80,87.256,81.346,86.417C84.489,84.458,84.565,80.698,84.33,77.351C84.048,73.335,82.648,70.238,80.184,67.077C75.021,60.453,69.575,54.053,64.125,47.664C59.365,42.082,53.111,38.882,46.084,40.722ZM46.084,40.722"/>
</g>
  <g id="Ultralight-M" transform="matrix(1.0,0.0,0.0,1.0,512.2738740998275,1045.9481614285146)">  <path fill="#000000" xmlns:xlink="http://www.w3.org/1999/xlink" clip-rule="evenodd" vectornator:layerName="Untitled" xml:space="preserve" fill-rule="nonzero" stroke-dasharray="none" stroke-linecap="round" stroke-width="1px" stroke-linejoin="round" stroke="none" fill-opacity="1" xmlns:vectornator="http://vectornator.io" stroke-opacity="1" stroke-miterlimit="10" opacity="1" version="1.1" d="M61.3,2.27C53.026,6.256,49.511,16.048,51.004,25.004C52.059,31.333,57.478,38.743,64.785,36.092C73.963,32.762,76.78,20.702,75.589,12.122C74.929,7.371,71.703,2.762,66.864,1.513C64.699,0.954,63.234,1.339,61.3,2.27ZM29.591,1.906C17.883,4.847,19.207,22.484,26.083,30.972C28.853,34.39,33.374,37.452,37.929,36.371C45.381,34.602,46.794,25.632,46.152,19.241C45.209,9.851,39.488,-0.58,29.591,1.906ZM83.259,27.327C75.282,30.255,71.575,38.277,71.551,46.735C71.529,54.429,77.959,60.543,85.628,57.214C93.611,53.749,96.869,44.298,96.392,36.16C96.303,34.639,95.426,32.361,94.695,31.154C91.836,26.438,88.004,25.586,83.259,27.327ZM8.179,28.694C-4.64,32.649,1.597,52.197,11.004,57.624C13.551,59.093,17.065,60.282,20.024,59.401C25.356,57.812,26.578,50.989,26.175,46.348C25.397,37.407,17.837,25.715,8.179,28.694ZM46.084,40.722C42.395,41.687,38.904,43.822,36.243,46.553C33.128,49.75,30.696,53.55,27.792,56.94C24.672,60.583,21.126,63.861,18.178,67.644C16.407,69.916,15.427,74.283,15.252,76.98C15.088,79.504,15.918,82.379,17.496,84.367C20.424,88.056,25.413,89.019,29.825,87.949C34.685,86.77,39.348,84.867,44.193,83.626C46.389,83.064,48.641,82.611,50.907,82.55C60.088,82.304,67.824,90.48,77.041,88.444C78.59,88.102,80,87.256,81.346,86.417C84.489,84.458,84.565,80.698,84.33,77.351C84.048,73.335,82.648,70.238,80.184,67.077C75.021,60.453,69.575,54.053,64.125,47.664C59.365,42.082,53.111,38.882,46.084,40.722ZM46.084,40.722"/>
</g>
  <g id="Black-S" transform="matrix(1.0,0.0,0.0,1.0,2896.5274434201647,625.6745046368083)">  <path opacity="1" clip-rule="evenodd" xmlns:vectornator="http://vectornator.io" stroke-linejoin="round" stroke-opacity="1" stroke="none" fill="#000000" xml:space="preserve" stroke-miterlimit="10" xmlns:xlink="http://www.w3.org/1999/xlink" fill-opacity="1" stroke-width="1px" stroke-linecap="round" vectornator:layerName="Untitled" fill-rule="nonzero" stroke-dasharray="none" version="1.1" d="M47.998,1.778C41.52,4.898,38.767,12.566,39.936,19.578C40.762,24.533,45.005,30.336,50.727,28.26C57.913,25.652,60.119,16.21,59.186,9.492C58.669,5.771,56.144,2.163,52.355,1.185C50.659,0.747,49.512,1.048,47.998,1.778ZM23.17,1.492C14.003,3.795,15.039,17.605,20.423,24.251C22.592,26.927,26.132,29.325,29.698,28.478C35.533,27.093,36.639,20.07,36.137,15.066C35.399,7.713,30.919,-0.454,23.17,1.492ZM65.192,21.397C58.946,23.69,56.043,29.971,56.024,36.594C56.007,42.618,61.042,47.405,67.047,44.798C73.298,42.085,75.848,34.685,75.475,28.313C75.405,27.122,74.719,25.339,74.146,24.394C71.908,20.701,68.907,20.034,65.192,21.397ZM6.404,22.468C-3.633,25.564,1.25,40.87,8.616,45.119C10.611,46.27,13.362,47.201,15.679,46.511C19.853,45.267,20.811,39.924,20.495,36.291C19.886,29.29,13.966,20.135,6.404,22.468ZM36.083,31.885C33.195,32.641,30.462,34.313,28.378,36.451C25.939,38.954,24.035,41.93,21.761,44.584C19.318,47.436,16.541,50.003,14.233,52.965C12.847,54.744,12.08,58.164,11.942,60.276C11.814,62.251,12.464,64.503,13.699,66.059C15.992,68.947,19.898,69.702,23.353,68.864C27.159,67.941,30.81,66.451,34.603,65.479C36.322,65.039,38.086,64.684,39.86,64.637C47.049,64.444,53.107,70.846,60.323,69.252C61.536,68.984,62.64,68.321,63.694,67.664C66.155,66.131,66.215,63.187,66.03,60.566C65.809,57.421,64.713,54.996,62.784,52.521C58.742,47.335,54.477,42.324,50.21,37.321C46.483,32.95,41.586,30.444,36.083,31.885ZM36.083,31.885"/>
</g>
  <g id="Heavy-S" transform="matrix(1.0,0.0,0.0,1.0,2599.8174434201646,625.6745046368083)">  <path xmlns:vectornator="http://vectornator.io" xml:space="preserve" xmlns:xlink="http://www.w3.org/1999/xlink" fill-rule="nonzero" stroke-width="1px" fill-opacity="1" stroke-opacity="1" stroke="none" version="1.1" clip-rule="evenodd" stroke-miterlimit="10" fill="#000000" stroke-linejoin="round" stroke-linecap="round" stroke-dasharray="none" opacity="1" vectornator:layerName="Untitled" d="M47.998,1.778C41.52,4.898,38.767,12.566,39.936,19.578C40.762,24.533,45.005,30.336,50.727,28.26C57.913,25.652,60.119,16.21,59.186,9.492C58.669,5.771,56.144,2.163,52.355,1.185C50.659,0.747,49.512,1.048,47.998,1.778ZM23.17,1.492C14.003,3.795,15.039,17.605,20.423,24.251C22.592,26.927,26.132,29.325,29.698,28.478C35.533,27.093,36.639,20.07,36.137,15.066C35.399,7.713,30.919,-0.454,23.17,1.492ZM65.192,21.397C58.946,23.69,56.043,29.971,56.024,36.594C56.007,42.618,61.042,47.405,67.047,44.798C73.298,42.085,75.848,34.685,75.475,28.313C75.405,27.122,74.719,25.339,74.146,24.394C71.908,20.701,68.907,20.034,65.192,21.397ZM6.404,22.468C-3.633,25.564,1.25,40.87,8.616,45.119C10.611,46.27,13.362,47.201,15.679,46.511C19.853,45.267,20.811,39.924,20.495,36.291C19.886,29.29,13.966,20.135,6.404,22.468ZM36.083,31.885C33.195,32.641,30.462,34.313,28.378,36.451C25.939,38.954,24.035,41.93,21.761,44.584C19.318,47.436,16.541,50.003,14.233,52.965C12.847,54.744,12.08,58.164,11.942,60.276C11.814,62.251,12.464,64.503,13.699,66.059C15.992,68.947,19.898,69.702,23.353,68.864C27.159,67.941,30.81,66.451,34.603,65.479C36.322,65.039,38.086,64.684,39.86,64.637C47.049,64.444,53.107,70.846,60.323,69.252C61.536,68.984,62.64,68.321,63.694,67.664C66.155,66.131,66.215,63.187,66.03,60.566C65.809,57.421,64.713,54.996,62.784,52.521C58.742,47.335,54.477,42.324,50.21,37.321C46.483,32.95,41.586,30.444,36.083,31.885ZM36.083,31.885"/>
</g>
  <g id="Bold-S" transform="matrix(1.0,0.0,0.0,1.0,2303.1074434201646,625.6745046368083)">  <path xmlns:vectornator="http://vectornator.io" stroke="none" stroke-linejoin="round" xml:space="preserve" stroke-miterlimit="10" clip-rule="evenodd" stroke-linecap="round" opacity="1" version="1.1" stroke-width="1px" vectornator:layerName="Untitled" fill="#000000" xmlns:xlink="http://www.w3.org/1999/xlink" fill-opacity="1" stroke-opacity="1" fill-rule="nonzero" stroke-dasharray="none" d="M47.998,1.778C41.52,4.898,38.767,12.566,39.936,19.578C40.762,24.533,45.005,30.336,50.727,28.26C57.913,25.652,60.119,16.21,59.186,9.492C58.669,5.771,56.144,2.163,52.355,1.185C50.659,0.747,49.512,1.048,47.998,1.778ZM23.17,1.492C14.003,3.795,15.039,17.605,20.423,24.251C22.592,26.927,26.132,29.325,29.698,28.478C35.533,27.093,36.639,20.07,36.137,15.066C35.399,7.713,30.919,-0.454,23.17,1.492ZM65.192,21.397C58.946,23.69,56.043,29.971,56.024,36.594C56.007,42.618,61.042,47.405,67.047,44.798C73.298,42.085,75.848,34.685,75.475,28.313C75.405,27.122,74.719,25.339,74.146,24.394C71.908,20.701,68.907,20.034,65.192,21.397ZM6.404,22.468C-3.633,25.564,1.25,40.87,8.616,45.119C10.611,46.27,13.362,47.201,15.679,46.511C19.853,45.267,20.811,39.924,20.495,36.291C19.886,29.29,13.966,20.135,6.404,22.468ZM36.083,31.885C33.195,32.641,30.462,34.313,28.378,36.451C25.939,38.954,24.035,41.93,21.761,44.584C19.318,47.436,16.541,50.003,14.233,52.965C12.847,54.744,12.08,58.164,11.942,60.276C11.814,62.251,12.464,64.503,13.699,66.059C15.992,68.947,19.898,69.702,23.353,68.864C27.159,67.941,30.81,66.451,34.603,65.479C36.322,65.039,38.086,64.684,39.86,64.637C47.049,64.444,53.107,70.846,60.323,69.252C61.536,68.984,62.64,68.321,63.694,67.664C66.155,66.131,66.215,63.187,66.03,60.566C65.809,57.421,64.713,54.996,62.784,52.521C58.742,47.335,54.477,42.324,50.21,37.321C46.483,32.95,41.586,30.444,36.083,31.885ZM36.083,31.885"/>
</g>
  <g id="Semibold-S" transform="matrix(1.0,0.0,0.0,1.0,2006.3974434201648,625.6745046368083)">  <path stroke-linecap="round" stroke-opacity="1" version="1.1" stroke-width="1px" xmlns:xlink="http://www.w3.org/1999/xlink" stroke-miterlimit="10" xmlns:vectornator="http://vectornator.io" fill="#000000" clip-rule="evenodd" opacity="1" stroke-linejoin="round" fill-rule="nonzero" fill-opacity="1" stroke-dasharray="none" xml:space="preserve" stroke="none" vectornator:layerName="Untitled" d="M47.998,1.778C41.52,4.898,38.767,12.566,39.936,19.578C40.762,24.533,45.005,30.336,50.727,28.26C57.913,25.652,60.119,16.21,59.186,9.492C58.669,5.771,56.144,2.163,52.355,1.185C50.659,0.747,49.512,1.048,47.998,1.778ZM23.17,1.492C14.003,3.795,15.039,17.605,20.423,24.251C22.592,26.927,26.132,29.325,29.698,28.478C35.533,27.093,36.639,20.07,36.137,15.066C35.399,7.713,30.919,-0.454,23.17,1.492ZM65.192,21.397C58.946,23.69,56.043,29.971,56.024,36.594C56.007,42.618,61.042,47.405,67.047,44.798C73.298,42.085,75.848,34.685,75.475,28.313C75.405,27.122,74.719,25.339,74.146,24.394C71.908,20.701,68.907,20.034,65.192,21.397ZM6.404,22.468C-3.633,25.564,1.25,40.87,8.616,45.119C10.611,46.27,13.362,47.201,15.679,46.511C19.853,45.267,20.811,39.924,20.495,36.291C19.886,29.29,13.966,20.135,6.404,22.468ZM36.083,31.885C33.195,32.641,30.462,34.313,28.378,36.451C25.939,38.954,24.035,41.93,21.761,44.584C19.318,47.436,16.541,50.003,14.233,52.965C12.847,54.744,12.08,58.164,11.942,60.276C11.814,62.251,12.464,64.503,13.699,66.059C15.992,68.947,19.898,69.702,23.353,68.864C27.159,67.941,30.81,66.451,34.603,65.479C36.322,65.039,38.086,64.684,39.86,64.637C47.049,64.444,53.107,70.846,60.323,69.252C61.536,68.984,62.64,68.321,63.694,67.664C66.155,66.131,66.215,63.187,66.03,60.566C65.809,57.421,64.713,54.996,62.784,52.521C58.742,47.335,54.477,42.324,50.21,37.321C46.483,32.95,41.586,30.444,36.083,31.885ZM36.083,31.885"/>
</g>
  <g id="Medium-S" transform="matrix(1.0,0.0,0.0,1.0,1709.6874434201648,625.6745046368083)">  <path stroke="none" vectornator:layerName="Untitled" version="1.1" opacity="1" xml:space="preserve" stroke-opacity="1" stroke-linecap="round" fill="#000000" xmlns:vectornator="http://vectornator.io" stroke-width="1px" fill-rule="nonzero" fill-opacity="1" xmlns:xlink="http://www.w3.org/1999/xlink" clip-rule="evenodd" stroke-dasharray="none" stroke-miterlimit="10" stroke-linejoin="round" d="M47.998,1.778C41.52,4.898,38.767,12.566,39.936,19.578C40.762,24.533,45.005,30.336,50.727,28.26C57.913,25.652,60.119,16.21,59.186,9.492C58.669,5.771,56.144,2.163,52.355,1.185C50.659,0.747,49.512,1.048,47.998,1.778ZM23.17,1.492C14.003,3.795,15.039,17.605,20.423,24.251C22.592,26.927,26.132,29.325,29.698,28.478C35.533,27.093,36.639,20.07,36.137,15.066C35.399,7.713,30.919,-0.454,23.17,1.492ZM65.192,21.397C58.946,23.69,56.043,29.971,56.024,36.594C56.007,42.618,61.042,47.405,67.047,44.798C73.298,42.085,75.848,34.685,75.475,28.313C75.405,27.122,74.719,25.339,74.146,24.394C71.908,20.701,68.907,20.034,65.192,21.397ZM6.404,22.468C-3.633,25.564,1.25,40.87,8.616,45.119C10.611,46.27,13.362,47.201,15.679,46.511C19.853,45.267,20.811,39.924,20.495,36.291C19.886,29.29,13.966,20.135,6.404,22.468ZM36.083,31.885C33.195,32.641,30.462,34.313,28.378,36.451C25.939,38.954,24.035,41.93,21.761,44.584C19.318,47.436,16.541,50.003,14.233,52.965C12.847,54.744,12.08,58.164,11.942,60.276C11.814,62.251,12.464,64.503,13.699,66.059C15.992,68.947,19.898,69.702,23.353,68.864C27.159,67.941,30.81,66.451,34.603,65.479C36.322,65.039,38.086,64.684,39.86,64.637C47.049,64.444,53.107,70.846,60.323,69.252C61.536,68.984,62.64,68.321,63.694,67.664C66.155,66.131,66.215,63.187,66.03,60.566C65.809,57.421,64.713,54.996,62.784,52.521C58.742,47.335,54.477,42.324,50.21,37.321C46.483,32.95,41.586,30.444,36.083,31.885ZM36.083,31.885"/>
</g>
  <g id="Regular-S" transform="matrix(1.0,0.0,0.0,1.0,1412.9774434201647,625.6745046368083)">  <path stroke-dasharray="none" fill="#000000" opacity="1" xmlns:xlink="http://www.w3.org/1999/xlink" clip-rule="evenodd" fill-rule="nonzero" stroke-miterlimit="10" stroke-linejoin="round" stroke="none" xmlns:vectornator="http://vectornator.io" stroke-linecap="round" version="1.1" stroke-width="1px" vectornator:layerName="Untitled" fill-opacity="1" stroke-opacity="1" xml:space="preserve" d="M47.998,1.778C41.52,4.898,38.767,12.566,39.936,19.578C40.762,24.533,45.005,30.336,50.727,28.26C57.913,25.652,60.119,16.21,59.186,9.492C58.669,5.771,56.144,2.163,52.355,1.185C50.659,0.747,49.512,1.048,47.998,1.778ZM23.17,1.492C14.003,3.795,15.039,17.605,20.423,24.251C22.592,26.927,26.132,29.325,29.698,28.478C35.533,27.093,36.639,20.07,36.137,15.066C35.399,7.713,30.919,-0.454,23.17,1.492ZM65.192,21.397C58.946,23.69,56.043,29.971,56.024,36.594C56.007,42.618,61.042,47.405,67.047,44.798C73.298,42.085,75.848,34.685,75.475,28.313C75.405,27.122,74.719,25.339,74.146,24.394C71.908,20.701,68.907,20.034,65.192,21.397ZM6.404,22.468C-3.633,25.564,1.25,40.87,8.616,45.119C10.611,46.27,13.362,47.201,15.679,46.511C19.853,45.267,20.811,39.924,20.495,36.291C19.886,29.29,13.966,20.135,6.404,22.468ZM36.083,31.885C33.195,32.641,30.462,34.313,28.378,36.451C25.939,38.954,24.035,41.93,21.761,44.584C19.318,47.436,16.541,50.003,14.233,52.965C12.847,54.744,12.08,58.164,11.942,60.276C11.814,62.251,12.464,64.503,13.699,66.059C15.992,68.947,19.898,69.702,23.353,68.864C27.159,67.941,30.81,66.451,34.603,65.479C36.322,65.039,38.086,64.684,39.86,64.637C47.049,64.444,53.107,70.846,60.323,69.252C61.536,68.984,62.64,68.321,63.694,67.664C66.155,66.131,66.215,63.187,66.03,60.566C65.809,57.421,64.713,54.996,62.784,52.521C58.742,47.335,54.477,42.324,50.21,37.321C46.483,32.95,41.586,30.444,36.083,31.885ZM36.083,31.885"/>
</g>
  <g id="Light-S" transform="matrix(1.0,0.0,0.0,1.0,1116.267443420165,625.6745046368083)">  <path opacity="1" stroke-linejoin="round" xmlns:vectornator="http://vectornator.io" stroke-dasharray="none" clip-rule="evenodd" stroke-miterlimit="10" stroke-opacity="1" fill-opacity="1" version="1.1" xml:space="preserve" stroke-linecap="round" xmlns:xlink="http://www.w3.org/1999/xlink" stroke="none" fill="#000000" vectornator:layerName="Untitled" stroke-width="1px" fill-rule="nonzero" d="M47.998,1.778C41.52,4.898,38.767,12.566,39.936,19.578C40.762,24.533,45.005,30.336,50.727,28.26C57.913,25.652,60.119,16.21,59.186,9.492C58.669,5.771,56.144,2.163,52.355,1.185C50.659,0.747,49.512,1.048,47.998,1.778ZM23.17,1.492C14.003,3.795,15.039,17.605,20.423,24.251C22.592,26.927,26.132,29.325,29.698,28.478C35.533,27.093,36.639,20.07,36.137,15.066C35.399,7.713,30.919,-0.454,23.17,1.492ZM65.192,21.397C58.946,23.69,56.043,29.971,56.024,36.594C56.007,42.618,61.042,47.405,67.047,44.798C73.298,42.085,75.848,34.685,75.475,28.313C75.405,27.122,74.719,25.339,74.146,24.394C71.908,20.701,68.907,20.034,65.192,21.397ZM6.404,22.468C-3.633,25.564,1.25,40.87,8.616,45.119C10.611,46.27,13.362,47.201,15.679,46.511C19.853,45.267,20.811,39.924,20.495,36.291C19.886,29.29,13.966,20.135,6.404,22.468ZM36.083,31.885C33.195,32.641,30.462,34.313,28.378,36.451C25.939,38.954,24.035,41.93,21.761,44.584C19.318,47.436,16.541,50.003,14.233,52.965C12.847,54.744,12.08,58.164,11.942,60.276C11.814,62.251,12.464,64.503,13.699,66.059C15.992,68.947,19.898,69.702,23.353,68.864C27.159,67.941,30.81,66.451,34.603,65.479C36.322,65.039,38.086,64.684,39.86,64.637C47.049,64.444,53.107,70.846,60.323,69.252C61.536,68.984,62.64,68.321,63.694,67.664C66.155,66.131,66.215,63.187,66.03,60.566C65.809,57.421,64.713,54.996,62.784,52.521C58.742,47.335,54.477,42.324,50.21,37.321C46.483,32.95,41.586,30.444,36.083,31.885ZM36.083,31.885"/>
</g>
  <g id="Thin-S" transform="matrix(1.0,0.0,0.0,1.0,819.5574434201649,625.6745046368083)">  <path stroke-dasharray="none" xml:space="preserve" clip-rule="evenodd" xmlns:vectornator="http://vectornator.io" fill="#000000" opacity="1" stroke-opacity="1" fill-rule="nonzero" vectornator:layerName="Untitled" xmlns:xlink="http://www.w3.org/1999/xlink" stroke="none" stroke-width="1px" fill-opacity="1" stroke-linejoin="round" version="1.1" stroke-linecap="round" stroke-miterlimit="10" d="M47.998,1.778C41.52,4.898,38.767,12.566,39.936,19.578C40.762,24.533,45.005,30.336,50.727,28.26C57.913,25.652,60.119,16.21,59.186,9.492C58.669,5.771,56.144,2.163,52.355,1.185C50.659,0.747,49.512,1.048,47.998,1.778ZM23.17,1.492C14.003,3.795,15.039,17.605,20.423,24.251C22.592,26.927,26.132,29.325,29.698,28.478C35.533,27.093,36.639,20.07,36.137,15.066C35.399,7.713,30.919,-0.454,23.17,1.492ZM65.192,21.397C58.946,23.69,56.043,29.971,56.024,36.594C56.007,42.618,61.042,47.405,67.047,44.798C73.298,42.085,75.848,34.685,75.475,28.313C75.405,27.122,74.719,25.339,74.146,24.394C71.908,20.701,68.907,20.034,65.192,21.397ZM6.404,22.468C-3.633,25.564,1.25,40.87,8.616,45.119C10.611,46.27,13.362,47.201,15.679,46.511C19.853,45.267,20.811,39.924,20.495,36.291C19.886,29.29,13.966,20.135,6.404,22.468ZM36.083,31.885C33.195,32.641,30.462,34.313,28.378,36.451C25.939,38.954,24.035,41.93,21.761,44.584C19.318,47.436,16.541,50.003,14.233,52.965C12.847,54.744,12.08,58.164,11.942,60.276C11.814,62.251,12.464,64.503,13.699,66.059C15.992,68.947,19.898,69.702,23.353,68.864C27.159,67.941,30.81,66.451,34.603,65.479C36.322,65.039,38.086,64.684,39.86,64.637C47.049,64.444,53.107,70.846,60.323,69.252C61.536,68.984,62.64,68.321,63.694,67.664C66.155,66.131,66.215,63.187,66.03,60.566C65.809,57.421,64.713,54.996,62.784,52.521C58.742,47.335,54.477,42.324,50.21,37.321C46.483,32.95,41.586,30.444,36.083,31.885ZM36.083,31.885"/>
</g>
  <g id="Ultralight-S" transform="matrix(1.0,0.0,0.0,1.0,522.8474434201648,625.6745046368083)">  <path fill="#000000" xmlns:xlink="http://www.w3.org/1999/xlink" clip-rule="evenodd" vectornator:layerName="Untitled" xml:space="preserve" fill-rule="nonzero" stroke-dasharray="none" stroke-linecap="round" stroke-width="1px" stroke-linejoin="round" stroke="none" fill-opacity="1" xmlns:vectornator="http://vectornator.io" stroke-opacity="1" stroke-miterlimit="10" opacity="1" version="1.1" d="M47.998,1.778C41.52,4.898,38.767,12.566,39.936,19.578C40.762,24.533,45.005,30.336,50.727,28.26C57.913,25.652,60.119,16.21,59.186,9.492C58.669,5.771,56.144,2.163,52.355,1.185C50.659,0.747,49.512,1.048,47.998,1.778ZM23.17,1.492C14.003,3.795,15.039,17.605,20.423,24.251C22.592,26.927,26.132,29.325,29.698,28.478C35.533,27.093,36.639,20.07,36.137,15.066C35.399,7.713,30.919,-0.454,23.17,1.492ZM65.192,21.397C58.946,23.69,56.043,29.971,56.024,36.594C56.007,42.618,61.042,47.405,67.047,44.798C73.298,42.085,75.848,34.685,75.475,28.313C75.405,27.122,74.719,25.339,74.146,24.394C71.908,20.701,68.907,20.034,65.192,21.397ZM6.404,22.468C-3.633,25.564,1.25,40.87,8.616,45.119C10.611,46.27,13.362,47.201,15.679,46.511C19.853,45.267,20.811,39.924,20.495,36.291C19.886,29.29,13.966,20.135,6.404,22.468ZM36.083,31.885C33.195,32.641,30.462,34.313,28.378,36.451C25.939,38.954,24.035,41.93,21.761,44.584C19.318,47.436,16.541,50.003,14.233,52.965C12.847,54.744,12.08,58.164,11.942,60.276C11.814,62.251,12.464,64.503,13.699,66.059C15.992,68.947,19.898,69.702,23.353,68.864C27.159,67.941,30.81,66.451,34.603,65.479C36.322,65.039,38.086,64.684,39.86,64.637C47.049,64.444,53.107,70.846,60.323,69.252C61.536,68.984,62.64,68.321,63.694,67.664C66.155,66.131,66.215,63.187,66.03,60.566C65.809,57.421,64.713,54.996,62.784,52.521C58.742,47.335,54.477,42.324,50.21,37.321C46.483,32.95,41.586,30.444,36.083,31.885ZM36.083,31.885"/>
</g>
 </g>
</svg>
