<?xml version="1.0" encoding="utf-8"?>
<!-- Generator: Adobe Illustrator 25.4.1, SVG Export Plug-In . SVG Version: 6.00 Build 0)  -->
<svg version="1.1" id="Layer_1" xmlns="http://www.w3.org/2000/svg" xmlns:xlink="http://www.w3.org/1999/xlink" x="0px" y="0px"
	 viewBox="0 0 756 756" style="enable-background:new 0 0 756 756;" xml:space="preserve">
<g>
	<path d="M391.42,349.6c23.76-0.12,41.27,10.98,53.85,19.2c23.86,15.57,28.24,27.69,58.11,64.04c39.26,47.78,58.4,59.37,71.85,91.65
		c0,0,11.44,27.88,6.2,54.54c-1.88,9.55-6.82,17.15-14.41,23.1c-17.45,13.68-37.26,16.89-58.36,12.04
		c-17.84-4.1-34.26-12.35-51.17-19.13c-21.68-8.7-43.77-14.98-67.49-12.61c-20.31,2.03-39.68,7.68-58.71,14.86
		c-16.57,6.25-32.94,13.19-50.59,15.99c-10.57,1.68-21.17,1.99-31.75,0.16c-25.9-4.48-44.98-27.09-46.22-53.56
		c-0.18-3.76-2.57-18.28,7.84-43.11c13.65-32.55,29.69-37.7,66.3-79.78c31.69-36.43,31.51-46.18,56.33-64.04
		C347.54,362.64,365.99,349.73,391.42,349.6z"/>
	<path d="M397.31,242.78c1.01-20.03,5.13-45.3,19.51-67.79c12.25-19.15,28.93-32.39,51.53-37.28c11.32-2.45,21.59,0.99,31.31,6.36
		c15.85,8.75,26.35,22.02,31.01,39.43c9.11,34.04,6.72,67.23-9.36,98.87c-7.18,14.13-17.48,25.93-30.2,35.48
		c-29.42,22.1-58.42,11.84-76.67-11.93C401.61,289.2,397.04,269.64,397.31,242.78z"/>
	<path d="M235.55,214.91c0.19-17.02,3.12-36.09,15.53-52.47c9.75-12.87,21.77-22.06,38.59-23.07c11.59-0.7,22.15,2.91,32.02,8.54
		c22.8,13,36.67,33.06,44.56,57.6c4.96,15.42,8.18,31.25,7.83,47.49c-0.45,21.14-5.2,41.06-18.9,57.99
		c-16.71,20.65-42.37,25.53-65.2,11.78c-27.45-16.53-43.33-41.46-50.68-72.2C236.74,239.8,235.54,228.82,235.55,214.91z"/>
	<path d="M510.91,382.26c1.23-30.39,10.91-59.35,33.83-82.89c12.68-13.03,28.09-21.27,46.21-23.95
		c17.67-2.61,31.79,4.23,42.38,17.86c12.83,16.53,16.78,35.58,14.89,56.39c-2.05,22.58-8.84,43.26-21.81,61.79
		c-12.79,18.26-29.61,30.9-51.69,36.01c-20.31,4.71-36.67-1.58-49.4-17.6C514.73,416.56,511.14,400.86,510.91,382.26z"/>
	<path d="M263.75,393.86c0.3,15.82-2.38,30.75-11.91,43.71c-11.81,16.06-27.54,22.29-47.2,18.18c-24.5-5.13-42.74-19.39-56.83-39.42
		c-16.75-23.8-23.36-50.6-21.06-79.34c1.2-14.94,6.23-29,18.02-39.24c16.69-14.49,41.44-16.73,61.03-4.73
		C243.35,316,262.89,349.69,263.75,393.86z"/>
</g>
</svg>
