<?xml version="1.0" encoding="UTF-8"?>
<!--Generator: Apple Native CoreSVG 175-->
<!DOCTYPE svg
PUBLIC "-//W3C//DTD SVG 1.1//EN"
       "http://www.w3.org/Graphics/SVG/1.1/DTD/svg11.dtd">
<svg version="1.1" xmlns="http://www.w3.org/2000/svg" xmlns:xlink="http://www.w3.org/1999/xlink" width="3300" height="2200">
 <!--glyph: "", point size: 100.0, font version: "17.3d3e1", template writer version: "65.1"-->
 <g id="Notes">
  <rect height="2200" id="artboard" style="fill:white;opacity:1" width="3300" x="0" y="0"/>
  <line style="fill:none;stroke:black;opacity:1;stroke-width:0.5;" x1="263" x2="3036" y1="292" y2="292"/>
  <text style="stroke:none;fill:black;font-family:sans-serif;font-size:13;font-weight:bold;" transform="matrix(1 0 0 1 263 322)">Weight/Scale Variations</text>
  <text style="stroke:none;fill:black;font-family:sans-serif;font-size:13;text-anchor:middle;" transform="matrix(1 0 0 1 559.711 322)">Ultralight</text>
  <text style="stroke:none;fill:black;font-family:sans-serif;font-size:13;text-anchor:middle;" transform="matrix(1 0 0 1 856.422 322)">Thin</text>
  <text style="stroke:none;fill:black;font-family:sans-serif;font-size:13;text-anchor:middle;" transform="matrix(1 0 0 1 1153.13 322)">Light</text>
  <text style="stroke:none;fill:black;font-family:sans-serif;font-size:13;text-anchor:middle;" transform="matrix(1 0 0 1 1449.84 322)">Regular</text>
  <text style="stroke:none;fill:black;font-family:sans-serif;font-size:13;text-anchor:middle;" transform="matrix(1 0 0 1 1746.56 322)">Medium</text>
  <text style="stroke:none;fill:black;font-family:sans-serif;font-size:13;text-anchor:middle;" transform="matrix(1 0 0 1 2043.27 322)">Semibold</text>
  <text style="stroke:none;fill:black;font-family:sans-serif;font-size:13;text-anchor:middle;" transform="matrix(1 0 0 1 2339.98 322)">Bold</text>
  <text style="stroke:none;fill:black;font-family:sans-serif;font-size:13;text-anchor:middle;" transform="matrix(1 0 0 1 2636.69 322)">Heavy</text>
  <text style="stroke:none;fill:black;font-family:sans-serif;font-size:13;text-anchor:middle;" transform="matrix(1 0 0 1 2933.4 322)">Black</text>
  <line style="fill:none;stroke:black;opacity:1;stroke-width:0.5;" x1="263" x2="3036" y1="1903" y2="1903"/>
  <g transform="matrix(1 0 0 1 263 1933)">
   <path d="M9.24805 0.830078Q10.8691 0.830078 12.2949 0.214844Q13.7207-0.400391 14.8096-1.49414Q15.8984-2.58789 16.5186-4.01367Q17.1387-5.43945 17.1387-7.05078Q17.1387-8.66211 16.5186-10.0879Q15.8984-11.5137 14.8047-12.6074Q13.7109-13.7012 12.2852-14.3164Q10.8594-14.9316 9.23828-14.9316Q7.62695-14.9316 6.20117-14.3164Q4.77539-13.7012 3.69141-12.6074Q2.60742-11.5137 1.9873-10.0879Q1.36719-8.66211 1.36719-7.05078Q1.36719-5.43945 1.9873-4.01367Q2.60742-2.58789 3.69629-1.49414Q4.78516-0.400391 6.21094 0.214844Q7.63672 0.830078 9.24805 0.830078ZM9.24805-0.654297Q7.91992-0.654297 6.7627-1.14746Q5.60547-1.64062 4.73145-2.51953Q3.85742-3.39844 3.36426-4.56055Q2.87109-5.72266 2.87109-7.05078Q2.87109-8.37891 3.35938-9.54102Q3.84766-10.7031 4.72168-11.582Q5.5957-12.4609 6.75293-12.9541Q7.91016-13.4473 9.23828-13.4473Q10.5762-13.4473 11.7334-12.9541Q12.8906-12.4609 13.7695-11.582Q14.6484-10.7031 15.1465-9.54102Q15.6445-8.37891 15.6445-7.05078Q15.6445-5.72266 15.1514-4.56055Q14.6582-3.39844 13.7842-2.51953Q12.9102-1.64062 11.748-1.14746Q10.5859-0.654297 9.24805-0.654297ZM5.6543-7.05078Q5.6543-6.72852 5.85938-6.52832Q6.06445-6.32812 6.40625-6.32812L8.51562-6.32812L8.51562-4.20898Q8.51562-3.88672 8.71094-3.67676Q8.90625-3.4668 9.23828-3.4668Q9.56055-3.4668 9.77051-3.67676Q9.98047-3.88672 9.98047-4.20898L9.98047-6.32812L12.0898-6.32812Q12.4219-6.32812 12.627-6.52832Q12.832-6.72852 12.832-7.05078Q12.832-7.38281 12.627-7.58789Q12.4219-7.79297 12.0898-7.79297L9.98047-7.79297L9.98047-9.90234Q9.98047-10.2344 9.77051-10.4443Q9.56055-10.6543 9.23828-10.6543Q8.90625-10.6543 8.71094-10.4443Q8.51562-10.2344 8.51562-9.90234L8.51562-7.79297L6.40625-7.79297Q6.06445-7.79297 5.85938-7.58789Q5.6543-7.38281 5.6543-7.05078Z"/>
  </g>
  <g transform="matrix(1 0 0 1 281.867 1933)">
   <path d="M11.709 2.91016Q13.75 2.91016 15.5518 2.12891Q17.3535 1.34766 18.7305-0.0292969Q20.1074-1.40625 20.8887-3.20801Q21.6699-5.00977 21.6699-7.05078Q21.6699-9.0918 20.8887-10.8936Q20.1074-12.6953 18.7305-14.0723Q17.3535-15.4492 15.5469-16.2305Q13.7402-17.0117 11.6992-17.0117Q9.6582-17.0117 7.85645-16.2305Q6.05469-15.4492 4.68262-14.0723Q3.31055-12.6953 2.5293-10.8936Q1.74805-9.0918 1.74805-7.05078Q1.74805-5.00977 2.5293-3.20801Q3.31055-1.40625 4.6875-0.0292969Q6.06445 1.34766 7.86621 2.12891Q9.66797 2.91016 11.709 2.91016ZM11.709 1.25Q9.98047 1.25 8.47656 0.605469Q6.97266-0.0390625 5.83496-1.17676Q4.69727-2.31445 4.05762-3.81836Q3.41797-5.32227 3.41797-7.05078Q3.41797-8.7793 4.05762-10.2832Q4.69727-11.7871 5.83008-12.9297Q6.96289-14.0723 8.4668-14.7119Q9.9707-15.3516 11.6992-15.3516Q13.4277-15.3516 14.9316-14.7119Q16.4355-14.0723 17.5781-12.9297Q18.7207-11.7871 19.3652-10.2832Q20.0098-8.7793 20.0098-7.05078Q20.0098-5.32227 19.3701-3.81836Q18.7305-2.31445 17.5928-1.17676Q16.4551-0.0390625 14.9463 0.605469Q13.4375 1.25 11.709 1.25ZM7.17773-7.05078Q7.17773-6.69922 7.41211-6.47461Q7.64648-6.25 8.01758-6.25L10.8887-6.25L10.8887-3.36914Q10.8887-2.99805 11.1133-2.76855Q11.3379-2.53906 11.6895-2.53906Q12.0605-2.53906 12.29-2.76855Q12.5195-2.99805 12.5195-3.36914L12.5195-6.25L15.4004-6.25Q15.7715-6.25 16.001-6.47461Q16.2305-6.69922 16.2305-7.05078Q16.2305-7.42188 16.001-7.65137Q15.7715-7.88086 15.4004-7.88086L12.5195-7.88086L12.5195-10.752Q12.5195-11.1328 12.29-11.3623Q12.0605-11.5918 11.6895-11.5918Q11.3379-11.5918 11.1133-11.3574Q10.8887-11.123 10.8887-10.752L10.8887-7.88086L8.01758-7.88086Q7.63672-7.88086 7.40723-7.65137Q7.17773-7.42188 7.17773-7.05078Z"/>
  </g>
  <g transform="matrix(1 0 0 1 305.646 1933)">
   <path d="M14.9707 5.66406Q17.0605 5.66406 18.96 5.01465Q20.8594 4.36523 22.4512 3.19336Q24.043 2.02148 25.2197 0.429688Q26.3965-1.16211 27.0459-3.06641Q27.6953-4.9707 27.6953-7.05078Q27.6953-9.14062 27.0459-11.04Q26.3965-12.9395 25.2197-14.5312Q24.043-16.123 22.4512-17.2998Q20.8594-18.4766 18.9551-19.126Q17.0508-19.7754 14.9609-19.7754Q12.8711-19.7754 10.9717-19.126Q9.07227-18.4766 7.48535-17.2998Q5.89844-16.123 4.72168-14.5312Q3.54492-12.9395 2.90039-11.04Q2.25586-9.14062 2.25586-7.05078Q2.25586-4.9707 2.90527-3.06641Q3.55469-1.16211 4.72656 0.429688Q5.89844 2.02148 7.49023 3.19336Q9.08203 4.36523 10.9814 5.01465Q12.8809 5.66406 14.9707 5.66406ZM14.9707 3.84766Q13.1641 3.84766 11.5283 3.2959Q9.89258 2.74414 8.53516 1.74805Q7.17773 0.751953 6.17676-0.610352Q5.17578-1.97266 4.62891-3.6084Q4.08203-5.24414 4.08203-7.05078Q4.08203-8.86719 4.62891-10.5029Q5.17578-12.1387 6.17188-13.501Q7.16797-14.8633 8.52539-15.8594Q9.88281-16.8555 11.5186-17.4023Q13.1543-17.9492 14.9609-17.9492Q16.7773-17.9492 18.4131-17.4023Q20.0488-16.8555 21.4111-15.8594Q22.7734-14.8633 23.7695-13.501Q24.7656-12.1387 25.3174-10.5029Q25.8691-8.86719 25.8691-7.05078Q25.8789-5.24414 25.332-3.6084Q24.7852-1.97266 23.7842-0.610352Q22.7832 0.751953 21.4209 1.74805Q20.0586 2.74414 18.4229 3.2959Q16.7871 3.84766 14.9707 3.84766ZM9.19922-7.05078Q9.19922-6.66992 9.45801-6.4209Q9.7168-6.17188 10.1172-6.17188L14.0625-6.17188L14.0625-2.2168Q14.0625-1.81641 14.3115-1.55762Q14.5605-1.29883 14.9512-1.29883Q15.3516-1.29883 15.6104-1.55273Q15.8691-1.80664 15.8691-2.2168L15.8691-6.17188L19.8242-6.17188Q20.2246-6.17188 20.4785-6.4209Q20.7324-6.66992 20.7324-7.05078Q20.7324-7.46094 20.4785-7.71484Q20.2246-7.96875 19.8242-7.96875L15.8691-7.96875L15.8691-11.9141Q15.8691-12.3242 15.6104-12.583Q15.3516-12.8418 14.9512-12.8418Q14.5605-12.8418 14.3115-12.583Q14.0625-12.3242 14.0625-11.9141L14.0625-7.96875L10.1172-7.96875Q9.70703-7.96875 9.45312-7.71484Q9.19922-7.46094 9.19922-7.05078Z"/>
  </g>
  <text style="stroke:none;fill:black;font-family:sans-serif;font-size:13;font-weight:bold;" transform="matrix(1 0 0 1 263 1953)">Design Variations</text>
  <text style="stroke:none;fill:black;font-family:sans-serif;font-size:13;" transform="matrix(1 0 0 1 263 1971)">Symbols are supported in up to nine weights and three scales.</text>
  <text style="stroke:none;fill:black;font-family:sans-serif;font-size:13;" transform="matrix(1 0 0 1 263 1989)">For optimal layout with text and other symbols, vertically align</text>
  <text style="stroke:none;fill:black;font-family:sans-serif;font-size:13;" transform="matrix(1 0 0 1 263 2007)">symbols with the adjacent text.</text>
  <line style="fill:none;stroke:#00AEEF;stroke-width:0.5;opacity:1.0;" x1="776" x2="776" y1="1919" y2="1933"/>
  <g transform="matrix(1 0 0 1 776 1933)">
   <path d="M3.31055 0.15625Q3.70117 0.15625 3.91602-0.00976562Q4.13086-0.175781 4.26758-0.585938L5.52734-4.0332L11.2891-4.0332L12.5488-0.585938Q12.6855-0.175781 12.9004-0.00976562Q13.1152 0.15625 13.4961 0.15625Q13.8867 0.15625 14.1162-0.0585938Q14.3457-0.273438 14.3457-0.644531Q14.3457-0.869141 14.2383-1.17188L9.6582-13.3691Q9.48242-13.8184 9.17969-14.043Q8.87695-14.2676 8.4082-14.2676Q7.5-14.2676 7.17773-13.3789L2.59766-1.16211Q2.49023-0.859375 2.49023-0.634766Q2.49023-0.263672 2.70996-0.0537109Q2.92969 0.15625 3.31055 0.15625ZM6.00586-5.51758L8.37891-12.0898L8.42773-12.0898L10.8008-5.51758Z"/>
  </g>
  <line style="fill:none;stroke:#00AEEF;stroke-width:0.5;opacity:1.0;" x1="793.197" x2="793.197" y1="1919" y2="1933"/>
  <text style="stroke:none;fill:black;font-family:sans-serif;font-size:13;font-weight:bold;" transform="matrix(1 0 0 1 776 1953)">Margins</text>
  <text style="stroke:none;fill:black;font-family:sans-serif;font-size:13;" transform="matrix(1 0 0 1 776 1971)">Leading and trailing margins on the left and right side of each symbol</text>
  <text style="stroke:none;fill:black;font-family:sans-serif;font-size:13;" transform="matrix(1 0 0 1 776 1989)">can be adjusted by modifying the x-location of the margin guidelines.</text>
  <text style="stroke:none;fill:black;font-family:sans-serif;font-size:13;" transform="matrix(1 0 0 1 776 2007)">Modifications are automatically applied proportionally to all</text>
  <text style="stroke:none;fill:black;font-family:sans-serif;font-size:13;" transform="matrix(1 0 0 1 776 2025)">scales and weights.</text>
  <g transform="matrix(1 0 0 1 1289 1933)">
   <path d="M2.8418 1.86523L4.54102 3.57422Q5.18555 4.22852 5.90332 4.17969Q6.62109 4.13086 7.31445 3.35938L18.0078-8.42773L17.041-9.4043L6.42578 2.27539Q6.16211 2.57812 5.89355 2.61719Q5.625 2.65625 5.27344 2.30469L4.10156 1.14258Q3.75 0.791016 3.79395 0.522461Q3.83789 0.253906 4.14062-0.0195312L15.6152-10.8203L14.6387-11.7871L3.04688-0.898438Q2.30469-0.214844 2.25098 0.498047Q2.19727 1.21094 2.8418 1.86523ZM9.25781-16.3281Q8.94531-16.0254 8.90625-15.6348Q8.86719-15.2441 9.04297-14.9512Q9.21875-14.6777 9.55566-14.541Q9.89258-14.4043 10.3809-14.5215Q11.4746-14.7754 12.5977-14.7314Q13.7207-14.6875 14.7949-13.9844L14.209-12.5293Q13.9551-11.9043 14.0674-11.4404Q14.1797-10.9766 14.5801-10.5664L16.875-8.25195Q17.2363-7.88086 17.5781-7.82227Q17.9199-7.76367 18.3398-7.8418L19.4043-8.03711L20.0684-7.36328L20.0293-6.80664Q20-6.43555 20.1221-6.12305Q20.2441-5.81055 20.6055-5.44922L21.3672-4.70703Q21.7285-4.3457 22.1533-4.33105Q22.5781-4.31641 22.9297-4.66797L25.8398-7.58789Q26.1914-7.93945 26.1816-8.35449Q26.1719-8.76953 25.8105-9.13086L25.0391-9.89258Q24.6875-10.2539 24.3799-10.3857Q24.0723-10.5176 23.7109-10.4883L23.1348-10.4395L22.4902-11.0742L22.7344-12.1973Q22.832-12.6172 22.6953-12.9834Q22.5586-13.3496 22.1191-13.7891L19.9219-15.9766Q18.6719-17.2168 17.2607-17.8369Q15.8496-18.457 14.4189-18.4814Q12.9883-18.5059 11.665-17.959Q10.3418-17.4121 9.25781-16.3281ZM10.752-15.957Q11.6602-16.6211 12.7002-16.9043Q13.7402-17.1875 14.8047-17.085Q15.8691-16.9824 16.8701-16.5137Q17.8711-16.0449 18.7012-15.2051L21.1328-12.793Q21.3086-12.6172 21.3525-12.4512Q21.3965-12.2852 21.3379-12.0312L21.0156-10.5469L22.5195-9.0625L23.5059-9.12109Q23.6914-9.13086 23.7891-9.09668Q23.8867-9.0625 24.0332-8.91602L24.6094-8.33984L22.168-5.89844L21.5918-6.47461Q21.4453-6.62109 21.4062-6.71875Q21.3672-6.81641 21.377-7.01172L21.4453-7.98828L19.9512-9.47266L18.4277-9.21875Q18.1836-9.16992 18.042-9.2041Q17.9004-9.23828 17.7148-9.41406L15.7129-11.416Q15.5176-11.5918 15.4932-11.7529Q15.4688-11.9141 15.5859-12.1875L16.4648-14.2773Q15.293-15.3711 13.8281-15.791Q12.3633-16.2109 10.8398-15.7617Q10.7227-15.7324 10.6885-15.8057Q10.6543-15.8789 10.752-15.957Z"/>
  </g>
  <text style="stroke:none;fill:black;font-family:sans-serif;font-size:13;font-weight:bold;" transform="matrix(1 0 0 1 1289 1953)">Exporting</text>
  <text style="stroke:none;fill:black;font-family:sans-serif;font-size:13;" transform="matrix(1 0 0 1 1289 1971)">Symbols should be outlined when exporting to ensure the</text>
  <text style="stroke:none;fill:black;font-family:sans-serif;font-size:13;" transform="matrix(1 0 0 1 1289 1989)">design is preserved when submitting to Xcode.</text>
  <text id="template-version" style="stroke:none;fill:black;font-family:sans-serif;font-size:13;text-anchor:end;" transform="matrix(1 0 0 1 3036 1933)">Template v.3.0</text>
  <text style="stroke:none;fill:black;font-family:sans-serif;font-size:13;text-anchor:end;" transform="matrix(1 0 0 1 3036 1951)">Requires Xcode 13 or greater</text>
  <text id="descriptive-name" style="stroke:none;fill:black;font-family:sans-serif;font-size:13;text-anchor:end;" transform="matrix(1 0 0 1 3036 1969)">Generated from Pawprint</text>
  <text style="stroke:none;fill:black;font-family:sans-serif;font-size:13;text-anchor:end;" transform="matrix(1 0 0 1 3036 1987)">Typeset at 100 points</text>
  <text style="stroke:none;fill:black;font-family:sans-serif;font-size:13;" transform="matrix(1 0 0 1 263 726)">Small</text>
  <text style="stroke:none;fill:black;font-family:sans-serif;font-size:13;" transform="matrix(1 0 0 1 263 1156)">Medium</text>
  <text style="stroke:none;fill:black;font-family:sans-serif;font-size:13;" transform="matrix(1 0 0 1 263 1586)">Large</text>
 </g>
 <g id="Guides">
  <g id="H-reference" style="fill:#27AAE1;stroke:none;" transform="matrix(1 0 0 1 339 696)">
   <path d="M0.993347 0L3.6377 0L29.3282-67.1326L30.0301-67.1326L30.0301-70.459L28.1227-70.459ZM11.6882-24.4797L46.9818-24.4797L46.2311-26.7288L12.4382-26.7288ZM55.1193 0L57.7637 0L30.6381-70.459L29.4327-70.459L29.4327-67.1326Z"/>
  </g>
  <line id="Baseline-S" style="fill:none;stroke:#27AAE1;opacity:1;stroke-width:0.5;" x1="263" x2="3036" y1="696" y2="696"/>
  <line id="Capline-S" style="fill:none;stroke:#27AAE1;opacity:1;stroke-width:0.5;" x1="263" x2="3036" y1="625.541" y2="625.541"/>
  <g id="H-reference" style="fill:#27AAE1;stroke:none;" transform="matrix(1 0 0 1 339 1126)">
   <path d="M0.993347 0L3.6377 0L29.3282-67.1326L30.0301-67.1326L30.0301-70.459L28.1227-70.459ZM11.6882-24.4797L46.9818-24.4797L46.2311-26.7288L12.4382-26.7288ZM55.1193 0L57.7637 0L30.6381-70.459L29.4327-70.459L29.4327-67.1326Z"/>
  </g>
  <line id="Baseline-M" style="fill:none;stroke:#27AAE1;opacity:1;stroke-width:0.5;" x1="263" x2="3036" y1="1126" y2="1126"/>
  <line id="Capline-M" style="fill:none;stroke:#27AAE1;opacity:1;stroke-width:0.5;" x1="263" x2="3036" y1="1055.54" y2="1055.54"/>
  <g id="H-reference" style="fill:#27AAE1;stroke:none;" transform="matrix(1 0 0 1 339 1556)">
   <path d="M0.993347 0L3.6377 0L29.3282-67.1326L30.0301-67.1326L30.0301-70.459L28.1227-70.459ZM11.6882-24.4797L46.9818-24.4797L46.2311-26.7288L12.4382-26.7288ZM55.1193 0L57.7637 0L30.6381-70.459L29.4327-70.459L29.4327-67.1326Z"/>
  </g>
  <line id="Baseline-L" style="fill:none;stroke:#27AAE1;opacity:1;stroke-width:0.5;" x1="263" x2="3036" y1="1556" y2="1556"/>
  <line id="Capline-L" style="fill:none;stroke:#27AAE1;opacity:1;stroke-width:0.5;" x1="263" x2="3036" y1="1485.54" y2="1485.54"/>
  <line id="left-margin-Regular-M" style="fill:none;stroke:#FF3B30;stroke-width:0.5;opacity:1.0;" x1="1411.62" x2="1411.62" y1="1030.78" y2="1150.12"/>
  <line id="right-margin-Regular-M" style="fill:none;stroke:#FF3B30;stroke-width:0.5;opacity:1.0;" x1="1488.07" x2="1488.07" y1="1030.78" y2="1150.12"/>
 </g>
 <g id="Symbols">
  <g id="Black-L" transform="matrix(1 0 0 1 2884.04 1556)">
   <path d="M50.0789-40.647C54.5879-40.67 57.9099-38.563 60.2979-37.003C64.8249-34.049 65.6559-31.749 71.3239-24.851C78.7739-15.785 82.4059-13.586 84.9579-7.46001C84.9579-7.46001 87.1289-2.17001 86.1349 2.88899C85.7779 4.70099 84.8409 6.14299 83.3999 7.27199C80.0889 9.86799 76.3299 10.477 72.3259 9.55699C68.9409 8.77899 65.8249 7.21399 62.6159 5.92699C58.5019 4.27599 54.3109 3.08499 49.8099 3.53399C45.9559 3.91899 42.2799 4.99199 38.6689 6.35399C35.5249 7.53999 32.4189 8.85699 29.0689 9.38799C27.0639 9.70699 25.0519 9.76599 23.0449 9.41899C18.1299 8.56799 14.5089 4.27799 14.2739-0.745011C14.2399-1.45801 13.7859-4.21401 15.7619-8.92501C18.3519-15.102 21.3959-16.079 28.3429-24.064C34.3559-30.977 34.3219-32.827 39.0319-36.216C41.7529-38.172 45.2539-40.622 50.0789-40.647ZM51.1969-60.917C51.3879-64.717 52.1699-69.513 54.8989-73.78C57.2229-77.414 60.3889-79.926 64.6769-80.854C66.8249-81.319 68.7739-80.666 70.6179-79.647C73.6259-77.987 75.6179-75.469 76.5029-72.165C78.2309-65.706 77.7779-59.408 74.7269-53.404C73.3639-50.723 71.4099-48.484 68.9959-46.672C63.4129-42.478 57.9099-44.425 54.4469-48.935C52.0129-52.108 51.1459-55.82 51.1969-60.917ZM20.5019-66.205C20.5379-69.435 21.0939-73.053 23.4489-76.162C25.2989-78.604 27.5799-80.348 30.7709-80.539C32.9709-80.672 34.9749-79.987 36.8469-78.919C41.1739-76.452 43.8059-72.645 45.3029-67.989C46.2439-65.063 46.8549-62.059 46.7889-58.977C46.7029-54.966 45.8019-51.186 43.2019-47.973C40.0319-44.055 35.1619-43.129 30.8299-45.738C25.6209-48.875 22.6079-53.605 21.2129-59.438C20.7279-61.482 20.4999-63.566 20.5019-66.205ZM72.7529-34.449C72.9869-40.216 74.8229-45.711 79.1729-50.178C81.5789-52.651 84.5029-54.214 87.9409-54.723C91.2939-55.218 93.9739-53.92 95.9829-51.334C98.4179-48.197 99.1669-44.582 98.8089-40.633C98.4199-36.349 97.1309-32.425 94.6699-28.908C92.2429-25.443 89.0509-23.045 84.8619-22.075C81.0079-21.182 77.9029-22.375 75.4879-25.415C73.4779-27.941 72.7969-30.92 72.7529-34.449ZM25.8529-32.248C25.9099-29.246 25.4009-26.413 23.5929-23.954C21.3519-20.906 18.3669-19.724 14.6359-20.504C9.98686-21.478 6.52586-24.184 3.85286-27.984C0.673864-32.501-0.580136-37.586-0.144136-43.04C0.0838644-45.875 1.03786-48.543 3.27586-50.486C6.44286-53.235 11.1389-53.66 14.8569-51.383C21.9819-47.023 25.6899-40.63 25.8529-32.248Z"/>
  </g>
  <g id="Heavy-L" transform="matrix(1 0 0 1 2587.32 1556)">
   <path d="M50.0789-40.647C54.5879-40.67 57.9099-38.563 60.2979-37.003C64.8249-34.049 65.6559-31.749 71.3239-24.851C78.7739-15.785 82.4059-13.586 84.9579-7.46001C84.9579-7.46001 87.1289-2.17001 86.1349 2.88899C85.7779 4.70099 84.8409 6.14299 83.3999 7.27199C80.0889 9.86799 76.3299 10.477 72.3259 9.55699C68.9409 8.77899 65.8249 7.21399 62.6159 5.92699C58.5019 4.27599 54.3109 3.08499 49.8099 3.53399C45.9559 3.91899 42.2799 4.99199 38.6689 6.35399C35.5249 7.53999 32.4189 8.85699 29.0689 9.38799C27.0639 9.70699 25.0519 9.76599 23.0449 9.41899C18.1299 8.56799 14.5089 4.27799 14.2739-0.745011C14.2399-1.45801 13.7859-4.21401 15.7619-8.92501C18.3519-15.102 21.3959-16.079 28.3429-24.064C34.3559-30.977 34.3219-32.827 39.0319-36.216C41.7529-38.172 45.2539-40.622 50.0789-40.647ZM51.1969-60.917C51.3879-64.717 52.1699-69.513 54.8989-73.78C57.2229-77.414 60.3889-79.926 64.6769-80.854C66.8249-81.319 68.7739-80.666 70.6179-79.647C73.6259-77.987 75.6179-75.469 76.5029-72.165C78.2309-65.706 77.7779-59.408 74.7269-53.404C73.3639-50.723 71.4099-48.484 68.9959-46.672C63.4129-42.478 57.9099-44.425 54.4469-48.935C52.0129-52.108 51.1459-55.82 51.1969-60.917ZM20.5019-66.205C20.5379-69.435 21.0939-73.053 23.4489-76.162C25.2989-78.604 27.5799-80.348 30.7709-80.539C32.9709-80.672 34.9749-79.987 36.8469-78.919C41.1739-76.452 43.8059-72.645 45.3029-67.989C46.2439-65.063 46.8549-62.059 46.7889-58.977C46.7029-54.966 45.8019-51.186 43.2019-47.973C40.0319-44.055 35.1619-43.129 30.8299-45.738C25.6209-48.875 22.6079-53.605 21.2129-59.438C20.7279-61.482 20.4999-63.566 20.5019-66.205ZM72.7529-34.449C72.9869-40.216 74.8229-45.711 79.1729-50.178C81.5789-52.651 84.5029-54.214 87.9409-54.723C91.2939-55.218 93.9739-53.92 95.9829-51.334C98.4179-48.197 99.1669-44.582 98.8089-40.633C98.4199-36.349 97.1309-32.425 94.6699-28.908C92.2429-25.443 89.0509-23.045 84.8619-22.075C81.0079-21.182 77.9029-22.375 75.4879-25.415C73.4779-27.941 72.7969-30.92 72.7529-34.449ZM25.8529-32.248C25.9099-29.246 25.4009-26.413 23.5929-23.954C21.3519-20.906 18.3669-19.724 14.6359-20.504C9.98686-21.478 6.52586-24.184 3.85286-27.984C0.673864-32.501-0.580136-37.586-0.144136-43.04C0.0838644-45.875 1.03786-48.543 3.27586-50.486C6.44286-53.235 11.1389-53.66 14.8569-51.383C21.9819-47.023 25.6899-40.63 25.8529-32.248Z"/>
  </g>
  <g id="Bold-L" transform="matrix(1 0 0 1 2290.61 1556)">
   <path d="M50.0789-40.647C54.5879-40.67 57.9099-38.563 60.2979-37.003C64.8249-34.049 65.6559-31.749 71.3239-24.851C78.7739-15.785 82.4059-13.586 84.9579-7.46001C84.9579-7.46001 87.1289-2.17001 86.1349 2.88899C85.7779 4.70099 84.8409 6.14299 83.3999 7.27199C80.0889 9.86799 76.3299 10.477 72.3259 9.55699C68.9409 8.77899 65.8249 7.21399 62.6159 5.92699C58.5019 4.27599 54.3109 3.08499 49.8099 3.53399C45.9559 3.91899 42.2799 4.99199 38.6689 6.35399C35.5249 7.53999 32.4189 8.85699 29.0689 9.38799C27.0639 9.70699 25.0519 9.76599 23.0449 9.41899C18.1299 8.56799 14.5089 4.27799 14.2739-0.745011C14.2399-1.45801 13.7859-4.21401 15.7619-8.92501C18.3519-15.102 21.3959-16.079 28.3429-24.064C34.3559-30.977 34.3219-32.827 39.0319-36.216C41.7529-38.172 45.2539-40.622 50.0789-40.647ZM51.1969-60.917C51.3879-64.717 52.1699-69.513 54.8989-73.78C57.2229-77.414 60.3889-79.926 64.6769-80.854C66.8249-81.319 68.7739-80.666 70.6179-79.647C73.6259-77.987 75.6179-75.469 76.5029-72.165C78.2309-65.706 77.7779-59.408 74.7269-53.404C73.3639-50.723 71.4099-48.484 68.9959-46.672C63.4129-42.478 57.9099-44.425 54.4469-48.935C52.0129-52.108 51.1459-55.82 51.1969-60.917ZM20.5019-66.205C20.5379-69.435 21.0939-73.053 23.4489-76.162C25.2989-78.604 27.5799-80.348 30.7709-80.539C32.9709-80.672 34.9749-79.987 36.8469-78.919C41.1739-76.452 43.8059-72.645 45.3029-67.989C46.2439-65.063 46.8549-62.059 46.7889-58.977C46.7029-54.966 45.8019-51.186 43.2019-47.973C40.0319-44.055 35.1619-43.129 30.8299-45.738C25.6209-48.875 22.6079-53.605 21.2129-59.438C20.7279-61.482 20.4999-63.566 20.5019-66.205ZM72.7529-34.449C72.9869-40.216 74.8229-45.711 79.1729-50.178C81.5789-52.651 84.5029-54.214 87.9409-54.723C91.2939-55.218 93.9739-53.92 95.9829-51.334C98.4179-48.197 99.1669-44.582 98.8089-40.633C98.4199-36.349 97.1309-32.425 94.6699-28.908C92.2429-25.443 89.0509-23.045 84.8619-22.075C81.0079-21.182 77.9029-22.375 75.4879-25.415C73.4779-27.941 72.7969-30.92 72.7529-34.449ZM25.8529-32.248C25.9099-29.246 25.4009-26.413 23.5929-23.954C21.3519-20.906 18.3669-19.724 14.6359-20.504C9.98686-21.478 6.52586-24.184 3.85286-27.984C0.673864-32.501-0.580136-37.586-0.144136-43.04C0.0838644-45.875 1.03786-48.543 3.27586-50.486C6.44286-53.235 11.1389-53.66 14.8569-51.383C21.9819-47.023 25.6899-40.63 25.8529-32.248Z"/>
  </g>
  <g id="Semibold-L" transform="matrix(1 0 0 1 1993.9 1556)">
   <path d="M50.0789-40.647C54.5879-40.67 57.9099-38.563 60.2979-37.003C64.8249-34.049 65.6559-31.749 71.3239-24.851C78.7739-15.785 82.4059-13.586 84.9579-7.46001C84.9579-7.46001 87.1289-2.17001 86.1349 2.88899C85.7779 4.70099 84.8409 6.14299 83.3999 7.27199C80.0889 9.86799 76.3299 10.477 72.3259 9.55699C68.9409 8.77899 65.8249 7.21399 62.6159 5.92699C58.5019 4.27599 54.3109 3.08499 49.8099 3.53399C45.9559 3.91899 42.2799 4.99199 38.6689 6.35399C35.5249 7.53999 32.4189 8.85699 29.0689 9.38799C27.0639 9.70699 25.0519 9.76599 23.0449 9.41899C18.1299 8.56799 14.5089 4.27799 14.2739-0.745011C14.2399-1.45801 13.7859-4.21401 15.7619-8.92501C18.3519-15.102 21.3959-16.079 28.3429-24.064C34.3559-30.977 34.3219-32.827 39.0319-36.216C41.7529-38.172 45.2539-40.622 50.0789-40.647ZM51.1969-60.917C51.3879-64.717 52.1699-69.513 54.8989-73.78C57.2229-77.414 60.3889-79.926 64.6769-80.854C66.8249-81.319 68.7739-80.666 70.6179-79.647C73.6259-77.987 75.6179-75.469 76.5029-72.165C78.2309-65.706 77.7779-59.408 74.7269-53.404C73.3639-50.723 71.4099-48.484 68.9959-46.672C63.4129-42.478 57.9099-44.425 54.4469-48.935C52.0129-52.108 51.1459-55.82 51.1969-60.917ZM20.5019-66.205C20.5379-69.435 21.0939-73.053 23.4489-76.162C25.2989-78.604 27.5799-80.348 30.7709-80.539C32.9709-80.672 34.9749-79.987 36.8469-78.919C41.1739-76.452 43.8059-72.645 45.3029-67.989C46.2439-65.063 46.8549-62.059 46.7889-58.977C46.7029-54.966 45.8019-51.186 43.2019-47.973C40.0319-44.055 35.1619-43.129 30.8299-45.738C25.6209-48.875 22.6079-53.605 21.2129-59.438C20.7279-61.482 20.4999-63.566 20.5019-66.205ZM72.7529-34.449C72.9869-40.216 74.8229-45.711 79.1729-50.178C81.5789-52.651 84.5029-54.214 87.9409-54.723C91.2939-55.218 93.9739-53.92 95.9829-51.334C98.4179-48.197 99.1669-44.582 98.8089-40.633C98.4199-36.349 97.1309-32.425 94.6699-28.908C92.2429-25.443 89.0509-23.045 84.8619-22.075C81.0079-21.182 77.9029-22.375 75.4879-25.415C73.4779-27.941 72.7969-30.92 72.7529-34.449ZM25.8529-32.248C25.9099-29.246 25.4009-26.413 23.5929-23.954C21.3519-20.906 18.3669-19.724 14.6359-20.504C9.98686-21.478 6.52586-24.184 3.85286-27.984C0.673864-32.501-0.580136-37.586-0.144136-43.04C0.0838644-45.875 1.03786-48.543 3.27586-50.486C6.44286-53.235 11.1389-53.66 14.8569-51.383C21.9819-47.023 25.6899-40.63 25.8529-32.248Z"/>
  </g>
  <g id="Medium-L" transform="matrix(1 0 0 1 1697.19 1556)">
   <path d="M50.0789-40.647C54.5879-40.67 57.9099-38.563 60.2979-37.003C64.8249-34.049 65.6559-31.749 71.3239-24.851C78.7739-15.785 82.4059-13.586 84.9579-7.46001C84.9579-7.46001 87.1289-2.17001 86.1349 2.88899C85.7779 4.70099 84.8409 6.14299 83.3999 7.27199C80.0889 9.86799 76.3299 10.477 72.3259 9.55699C68.9409 8.77899 65.8249 7.21399 62.6159 5.92699C58.5019 4.27599 54.3109 3.08499 49.8099 3.53399C45.9559 3.91899 42.2799 4.99199 38.6689 6.35399C35.5249 7.53999 32.4189 8.85699 29.0689 9.38799C27.0639 9.70699 25.0519 9.76599 23.0449 9.41899C18.1299 8.56799 14.5089 4.27799 14.2739-0.745011C14.2399-1.45801 13.7859-4.21401 15.7619-8.92501C18.3519-15.102 21.3959-16.079 28.3429-24.064C34.3559-30.977 34.3219-32.827 39.0319-36.216C41.7529-38.172 45.2539-40.622 50.0789-40.647ZM51.1969-60.917C51.3879-64.717 52.1699-69.513 54.8989-73.78C57.2229-77.414 60.3889-79.926 64.6769-80.854C66.8249-81.319 68.7739-80.666 70.6179-79.647C73.6259-77.987 75.6179-75.469 76.5029-72.165C78.2309-65.706 77.7779-59.408 74.7269-53.404C73.3639-50.723 71.4099-48.484 68.9959-46.672C63.4129-42.478 57.9099-44.425 54.4469-48.935C52.0129-52.108 51.1459-55.82 51.1969-60.917ZM20.5019-66.205C20.5379-69.435 21.0939-73.053 23.4489-76.162C25.2989-78.604 27.5799-80.348 30.7709-80.539C32.9709-80.672 34.9749-79.987 36.8469-78.919C41.1739-76.452 43.8059-72.645 45.3029-67.989C46.2439-65.063 46.8549-62.059 46.7889-58.977C46.7029-54.966 45.8019-51.186 43.2019-47.973C40.0319-44.055 35.1619-43.129 30.8299-45.738C25.6209-48.875 22.6079-53.605 21.2129-59.438C20.7279-61.482 20.4999-63.566 20.5019-66.205ZM72.7529-34.449C72.9869-40.216 74.8229-45.711 79.1729-50.178C81.5789-52.651 84.5029-54.214 87.9409-54.723C91.2939-55.218 93.9739-53.92 95.9829-51.334C98.4179-48.197 99.1669-44.582 98.8089-40.633C98.4199-36.349 97.1309-32.425 94.6699-28.908C92.2429-25.443 89.0509-23.045 84.8619-22.075C81.0079-21.182 77.9029-22.375 75.4879-25.415C73.4779-27.941 72.7969-30.92 72.7529-34.449ZM25.8529-32.248C25.9099-29.246 25.4009-26.413 23.5929-23.954C21.3519-20.906 18.3669-19.724 14.6359-20.504C9.98686-21.478 6.52586-24.184 3.85286-27.984C0.673864-32.501-0.580136-37.586-0.144136-43.04C0.0838644-45.875 1.03786-48.543 3.27586-50.486C6.44286-53.235 11.1389-53.66 14.8569-51.383C21.9819-47.023 25.6899-40.63 25.8529-32.248Z"/>
  </g>
  <g id="Regular-L" transform="matrix(1 0 0 1 1400.48 1556)">
   <path d="M50.0789-40.647C54.5879-40.67 57.9099-38.563 60.2979-37.003C64.8249-34.049 65.6559-31.749 71.3239-24.851C78.7739-15.785 82.4059-13.586 84.9579-7.46001C84.9579-7.46001 87.1289-2.17001 86.1349 2.88899C85.7779 4.70099 84.8409 6.14299 83.3999 7.27199C80.0889 9.86799 76.3299 10.477 72.3259 9.55699C68.9409 8.77899 65.8249 7.21399 62.6159 5.92699C58.5019 4.27599 54.3109 3.08499 49.8099 3.53399C45.9559 3.91899 42.2799 4.99199 38.6689 6.35399C35.5249 7.53999 32.4189 8.85699 29.0689 9.38799C27.0639 9.70699 25.0519 9.76599 23.0449 9.41899C18.1299 8.56799 14.5089 4.27799 14.2739-0.745011C14.2399-1.45801 13.7859-4.21401 15.7619-8.92501C18.3519-15.102 21.3959-16.079 28.3429-24.064C34.3559-30.977 34.3219-32.827 39.0319-36.216C41.7529-38.172 45.2539-40.622 50.0789-40.647ZM51.1969-60.917C51.3879-64.717 52.1699-69.513 54.8989-73.78C57.2229-77.414 60.3889-79.926 64.6769-80.854C66.8249-81.319 68.7739-80.666 70.6179-79.647C73.6259-77.987 75.6179-75.469 76.5029-72.165C78.2309-65.706 77.7779-59.408 74.7269-53.404C73.3639-50.723 71.4099-48.484 68.9959-46.672C63.4129-42.478 57.9099-44.425 54.4469-48.935C52.0129-52.108 51.1459-55.82 51.1969-60.917ZM20.5019-66.205C20.5379-69.435 21.0939-73.053 23.4489-76.162C25.2989-78.604 27.5799-80.348 30.7709-80.539C32.9709-80.672 34.9749-79.987 36.8469-78.919C41.1739-76.452 43.8059-72.645 45.3029-67.989C46.2439-65.063 46.8549-62.059 46.7889-58.977C46.7029-54.966 45.8019-51.186 43.2019-47.973C40.0319-44.055 35.1619-43.129 30.8299-45.738C25.6209-48.875 22.6079-53.605 21.2129-59.438C20.7279-61.482 20.4999-63.566 20.5019-66.205ZM72.7529-34.449C72.9869-40.216 74.8229-45.711 79.1729-50.178C81.5789-52.651 84.5029-54.214 87.9409-54.723C91.2939-55.218 93.9739-53.92 95.9829-51.334C98.4179-48.197 99.1669-44.582 98.8089-40.633C98.4199-36.349 97.1309-32.425 94.6699-28.908C92.2429-25.443 89.0509-23.045 84.8619-22.075C81.0079-21.182 77.9029-22.375 75.4879-25.415C73.4779-27.941 72.7969-30.92 72.7529-34.449ZM25.8529-32.248C25.9099-29.246 25.4009-26.413 23.5929-23.954C21.3519-20.906 18.3669-19.724 14.6359-20.504C9.98686-21.478 6.52586-24.184 3.85286-27.984C0.673864-32.501-0.580136-37.586-0.144136-43.04C0.0838644-45.875 1.03786-48.543 3.27586-50.486C6.44286-53.235 11.1389-53.66 14.8569-51.383C21.9819-47.023 25.6899-40.63 25.8529-32.248Z"/>
  </g>
  <g id="Light-L" transform="matrix(1 0 0 1 1103.77 1556)">
   <path d="M50.0789-40.647C54.5879-40.67 57.9099-38.563 60.2979-37.003C64.8249-34.049 65.6559-31.749 71.3239-24.851C78.7739-15.785 82.4059-13.586 84.9579-7.46001C84.9579-7.46001 87.1289-2.17001 86.1349 2.88899C85.7779 4.70099 84.8409 6.14299 83.3999 7.27199C80.0889 9.86799 76.3299 10.477 72.3259 9.55699C68.9409 8.77899 65.8249 7.21399 62.6159 5.92699C58.5019 4.27599 54.3109 3.08499 49.8099 3.53399C45.9559 3.91899 42.2799 4.99199 38.6689 6.35399C35.5249 7.53999 32.4189 8.85699 29.0689 9.38799C27.0639 9.70699 25.0519 9.76599 23.0449 9.41899C18.1299 8.56799 14.5089 4.27799 14.2739-0.745011C14.2399-1.45801 13.7859-4.21401 15.7619-8.92501C18.3519-15.102 21.3959-16.079 28.3429-24.064C34.3559-30.977 34.3219-32.827 39.0319-36.216C41.7529-38.172 45.2539-40.622 50.0789-40.647ZM51.1969-60.917C51.3879-64.717 52.1699-69.513 54.8989-73.78C57.2229-77.414 60.3889-79.926 64.6769-80.854C66.8249-81.319 68.7739-80.666 70.6179-79.647C73.6259-77.987 75.6179-75.469 76.5029-72.165C78.2309-65.706 77.7779-59.408 74.7269-53.404C73.3639-50.723 71.4099-48.484 68.9959-46.672C63.4129-42.478 57.9099-44.425 54.4469-48.935C52.0129-52.108 51.1459-55.82 51.1969-60.917ZM20.5019-66.205C20.5379-69.435 21.0939-73.053 23.4489-76.162C25.2989-78.604 27.5799-80.348 30.7709-80.539C32.9709-80.672 34.9749-79.987 36.8469-78.919C41.1739-76.452 43.8059-72.645 45.3029-67.989C46.2439-65.063 46.8549-62.059 46.7889-58.977C46.7029-54.966 45.8019-51.186 43.2019-47.973C40.0319-44.055 35.1619-43.129 30.8299-45.738C25.6209-48.875 22.6079-53.605 21.2129-59.438C20.7279-61.482 20.4999-63.566 20.5019-66.205ZM72.7529-34.449C72.9869-40.216 74.8229-45.711 79.1729-50.178C81.5789-52.651 84.5029-54.214 87.9409-54.723C91.2939-55.218 93.9739-53.92 95.9829-51.334C98.4179-48.197 99.1669-44.582 98.8089-40.633C98.4199-36.349 97.1309-32.425 94.6699-28.908C92.2429-25.443 89.0509-23.045 84.8619-22.075C81.0079-21.182 77.9029-22.375 75.4879-25.415C73.4779-27.941 72.7969-30.92 72.7529-34.449ZM25.8529-32.248C25.9099-29.246 25.4009-26.413 23.5929-23.954C21.3519-20.906 18.3669-19.724 14.6359-20.504C9.98686-21.478 6.52586-24.184 3.85286-27.984C0.673864-32.501-0.580136-37.586-0.144136-43.04C0.0838644-45.875 1.03786-48.543 3.27586-50.486C6.44286-53.235 11.1389-53.66 14.8569-51.383C21.9819-47.023 25.6899-40.63 25.8529-32.248Z"/>
  </g>
  <g id="Thin-L" transform="matrix(1 0 0 1 807.057 1556)">
   <path d="M50.0789-40.647C54.5879-40.67 57.9099-38.563 60.2979-37.003C64.8249-34.049 65.6559-31.749 71.3239-24.851C78.7739-15.785 82.4059-13.586 84.9579-7.46001C84.9579-7.46001 87.1289-2.17001 86.1349 2.88899C85.7779 4.70099 84.8409 6.14299 83.3999 7.27199C80.0889 9.86799 76.3299 10.477 72.3259 9.55699C68.9409 8.77899 65.8249 7.21399 62.6159 5.92699C58.5019 4.27599 54.3109 3.08499 49.8099 3.53399C45.9559 3.91899 42.2799 4.99199 38.6689 6.35399C35.5249 7.53999 32.4189 8.85699 29.0689 9.38799C27.0639 9.70699 25.0519 9.76599 23.0449 9.41899C18.1299 8.56799 14.5089 4.27799 14.2739-0.745011C14.2399-1.45801 13.7859-4.21401 15.7619-8.92501C18.3519-15.102 21.3959-16.079 28.3429-24.064C34.3559-30.977 34.3219-32.827 39.0319-36.216C41.7529-38.172 45.2539-40.622 50.0789-40.647ZM51.1969-60.917C51.3879-64.717 52.1699-69.513 54.8989-73.78C57.2229-77.414 60.3889-79.926 64.6769-80.854C66.8249-81.319 68.7739-80.666 70.6179-79.647C73.6259-77.987 75.6179-75.469 76.5029-72.165C78.2309-65.706 77.7779-59.408 74.7269-53.404C73.3639-50.723 71.4099-48.484 68.9959-46.672C63.4129-42.478 57.9099-44.425 54.4469-48.935C52.0129-52.108 51.1459-55.82 51.1969-60.917ZM20.5019-66.205C20.5379-69.435 21.0939-73.053 23.4489-76.162C25.2989-78.604 27.5799-80.348 30.7709-80.539C32.9709-80.672 34.9749-79.987 36.8469-78.919C41.1739-76.452 43.8059-72.645 45.3029-67.989C46.2439-65.063 46.8549-62.059 46.7889-58.977C46.7029-54.966 45.8019-51.186 43.2019-47.973C40.0319-44.055 35.1619-43.129 30.8299-45.738C25.6209-48.875 22.6079-53.605 21.2129-59.438C20.7279-61.482 20.4999-63.566 20.5019-66.205ZM72.7529-34.449C72.9869-40.216 74.8229-45.711 79.1729-50.178C81.5789-52.651 84.5029-54.214 87.9409-54.723C91.2939-55.218 93.9739-53.92 95.9829-51.334C98.4179-48.197 99.1669-44.582 98.8089-40.633C98.4199-36.349 97.1309-32.425 94.6699-28.908C92.2429-25.443 89.0509-23.045 84.8619-22.075C81.0079-21.182 77.9029-22.375 75.4879-25.415C73.4779-27.941 72.7969-30.92 72.7529-34.449ZM25.8529-32.248C25.9099-29.246 25.4009-26.413 23.5929-23.954C21.3519-20.906 18.3669-19.724 14.6359-20.504C9.98686-21.478 6.52586-24.184 3.85286-27.984C0.673864-32.501-0.580136-37.586-0.144136-43.04C0.0838644-45.875 1.03786-48.543 3.27586-50.486C6.44286-53.235 11.1389-53.66 14.8569-51.383C21.9819-47.023 25.6899-40.63 25.8529-32.248Z"/>
  </g>
  <g id="Ultralight-L" transform="matrix(1 0 0 1 510.346 1556)">
   <path d="M50.0789-40.647C54.5879-40.67 57.9099-38.563 60.2979-37.003C64.8249-34.049 65.6559-31.749 71.3239-24.851C78.7739-15.785 82.4059-13.586 84.9579-7.46001C84.9579-7.46001 87.1289-2.17001 86.1349 2.88899C85.7779 4.70099 84.8409 6.14299 83.3999 7.27199C80.0889 9.86799 76.3299 10.477 72.3259 9.55699C68.9409 8.77899 65.8249 7.21399 62.6159 5.92699C58.5019 4.27599 54.3109 3.08499 49.8099 3.53399C45.9559 3.91899 42.2799 4.99199 38.6689 6.35399C35.5249 7.53999 32.4189 8.85699 29.0689 9.38799C27.0639 9.70699 25.0519 9.76599 23.0449 9.41899C18.1299 8.56799 14.5089 4.27799 14.2739-0.745011C14.2399-1.45801 13.7859-4.21401 15.7619-8.92501C18.3519-15.102 21.3959-16.079 28.3429-24.064C34.3559-30.977 34.3219-32.827 39.0319-36.216C41.7529-38.172 45.2539-40.622 50.0789-40.647ZM51.1969-60.917C51.3879-64.717 52.1699-69.513 54.8989-73.78C57.2229-77.414 60.3889-79.926 64.6769-80.854C66.8249-81.319 68.7739-80.666 70.6179-79.647C73.6259-77.987 75.6179-75.469 76.5029-72.165C78.2309-65.706 77.7779-59.408 74.7269-53.404C73.3639-50.723 71.4099-48.484 68.9959-46.672C63.4129-42.478 57.9099-44.425 54.4469-48.935C52.0129-52.108 51.1459-55.82 51.1969-60.917ZM20.5019-66.205C20.5379-69.435 21.0939-73.053 23.4489-76.162C25.2989-78.604 27.5799-80.348 30.7709-80.539C32.9709-80.672 34.9749-79.987 36.8469-78.919C41.1739-76.452 43.8059-72.645 45.3029-67.989C46.2439-65.063 46.8549-62.059 46.7889-58.977C46.7029-54.966 45.8019-51.186 43.2019-47.973C40.0319-44.055 35.1619-43.129 30.8299-45.738C25.6209-48.875 22.6079-53.605 21.2129-59.438C20.7279-61.482 20.4999-63.566 20.5019-66.205ZM72.7529-34.449C72.9869-40.216 74.8229-45.711 79.1729-50.178C81.5789-52.651 84.5029-54.214 87.9409-54.723C91.2939-55.218 93.9739-53.92 95.9829-51.334C98.4179-48.197 99.1669-44.582 98.8089-40.633C98.4199-36.349 97.1309-32.425 94.6699-28.908C92.2429-25.443 89.0509-23.045 84.8619-22.075C81.0079-21.182 77.9029-22.375 75.4879-25.415C73.4779-27.941 72.7969-30.92 72.7529-34.449ZM25.8529-32.248C25.9099-29.246 25.4009-26.413 23.5929-23.954C21.3519-20.906 18.3669-19.724 14.6359-20.504C9.98686-21.478 6.52586-24.184 3.85286-27.984C0.673864-32.501-0.580136-37.586-0.144136-43.04C0.0838644-45.875 1.03786-48.543 3.27586-50.486C6.44286-53.235 11.1389-53.66 14.8569-51.383C21.9819-47.023 25.6899-40.63 25.8529-32.248Z"/>
  </g>
  <g id="Black-M" transform="matrix(1 0 0 1 2895.18 1126)">
   <path d="M38.77-39.4289C42.265-39.4469 44.84-37.8139 46.691-36.6049C50.201-34.3139 50.845-32.5319 55.239-27.1849C61.014-20.1559 63.829-18.4509 65.808-13.7029C65.808-13.7029 67.491-9.60186 66.72-5.67986C66.443-4.27486 65.717-3.15786 64.6-2.28186C62.033-0.269855 59.119 0.202145 56.016-0.510855C53.391-1.11386 50.976-2.32786 48.489-3.32486C45.299-4.60486 42.05-5.52886 38.561-5.17986C35.573-4.88186 32.724-4.04986 29.925-2.99386C27.487-2.07486 25.079-1.05386 22.483-0.641855C20.928-0.394855 19.369-0.348855 17.813-0.618855C14.003-1.27786 11.196-4.60286 11.014-8.49686C10.987-9.04986 10.636-11.1859 12.167-14.8389C14.175-19.6269 16.534-20.3839 21.92-26.5739C26.581-31.9329 26.555-33.3669 30.206-35.9939C32.315-37.5109 35.029-39.4099 38.77-39.4289ZM39.636-55.1419C39.785-58.0879 40.391-61.8059 42.506-65.1139C44.308-67.9309 46.762-69.8779 50.086-70.5979C51.751-70.9579 53.262-70.4519 54.692-69.6619C57.023-68.3749 58.568-66.4229 59.253-63.8619C60.593-58.8549 60.242-53.9729 57.876-49.3179C56.82-47.2399 55.305-45.5039 53.434-44.0989C49.106-40.8479 44.84-42.3579 42.156-45.8539C40.269-48.3139 39.596-51.1909 39.636-55.1419ZM15.842-59.2419C15.87-61.7449 16.301-64.5499 18.126-66.9599C19.56-68.8529 21.328-70.2049 23.803-70.3529C25.507-70.4559 27.061-69.9249 28.513-69.0969C31.866-67.1849 33.907-64.2339 35.067-60.6239C35.797-58.3559 36.271-56.0269 36.219-53.6389C36.153-50.5289 35.454-47.5989 33.439-45.1079C30.981-42.0709 27.206-41.3529 23.848-43.3759C19.81-45.8069 17.474-49.4739 16.393-53.9959C16.017-55.5799 15.84-57.1949 15.842-59.2419ZM56.347-34.6249C56.527-39.0949 57.951-43.3549 61.323-46.8179C63.188-48.7339 65.455-49.9459 68.12-50.3409C70.719-50.7249 72.796-49.7179 74.354-47.7139C76.242-45.2819 76.823-42.4799 76.545-39.4189C76.243-36.0969 75.244-33.0549 73.336-30.3289C71.455-27.6429 68.981-25.7839 65.733-25.0319C62.745-24.3399 60.339-25.2649 58.466-27.6209C56.908-29.5789 56.38-31.8889 56.347-34.6249ZM19.99-32.9179C20.034-30.5909 19.64-28.3949 18.238-26.4889C16.501-24.1259 14.187-23.2099 11.295-23.8139C7.69102-24.5689 5.00802-26.6669 2.93502-29.6129C0.471021-33.1139-0.500979-37.0559-0.162979-41.2839C0.0140213-43.4819 0.754021-45.5499 2.48802-47.0559C4.94302-49.1869 8.58402-49.5169 11.465-47.7519C16.989-44.3709 19.863-39.4159 19.99-32.9179Z"/>
  </g>
  <g id="Heavy-M" transform="matrix(1 0 0 1 2598.47 1126)">
   <path d="M38.77-39.4289C42.265-39.4469 44.84-37.8139 46.691-36.6049C50.201-34.3139 50.845-32.5319 55.239-27.1849C61.014-20.1559 63.829-18.4509 65.808-13.7029C65.808-13.7029 67.491-9.60186 66.72-5.67986C66.443-4.27486 65.717-3.15786 64.6-2.28186C62.033-0.269855 59.119 0.202145 56.016-0.510855C53.391-1.11386 50.976-2.32786 48.489-3.32486C45.299-4.60486 42.05-5.52886 38.561-5.17986C35.573-4.88186 32.724-4.04986 29.925-2.99386C27.487-2.07486 25.079-1.05386 22.483-0.641855C20.928-0.394855 19.369-0.348855 17.813-0.618855C14.003-1.27786 11.196-4.60286 11.014-8.49686C10.987-9.04986 10.636-11.1859 12.167-14.8389C14.175-19.6269 16.534-20.3839 21.92-26.5739C26.581-31.9329 26.555-33.3669 30.206-35.9939C32.315-37.5109 35.029-39.4099 38.77-39.4289ZM39.636-55.1419C39.785-58.0879 40.391-61.8059 42.506-65.1139C44.308-67.9309 46.762-69.8779 50.086-70.5979C51.751-70.9579 53.262-70.4519 54.692-69.6619C57.023-68.3749 58.568-66.4229 59.253-63.8619C60.593-58.8549 60.242-53.9729 57.876-49.3179C56.82-47.2399 55.305-45.5039 53.434-44.0989C49.106-40.8479 44.84-42.3579 42.156-45.8539C40.269-48.3139 39.596-51.1909 39.636-55.1419ZM15.842-59.2419C15.87-61.7449 16.301-64.5499 18.126-66.9599C19.56-68.8529 21.328-70.2049 23.803-70.3529C25.507-70.4559 27.061-69.9249 28.513-69.0969C31.866-67.1849 33.907-64.2339 35.067-60.6239C35.797-58.3559 36.271-56.0269 36.219-53.6389C36.153-50.5289 35.454-47.5989 33.439-45.1079C30.981-42.0709 27.206-41.3529 23.848-43.3759C19.81-45.8069 17.474-49.4739 16.393-53.9959C16.017-55.5799 15.84-57.1949 15.842-59.2419ZM56.347-34.6249C56.527-39.0949 57.951-43.3549 61.323-46.8179C63.188-48.7339 65.455-49.9459 68.12-50.3409C70.719-50.7249 72.796-49.7179 74.354-47.7139C76.242-45.2819 76.823-42.4799 76.545-39.4189C76.243-36.0969 75.244-33.0549 73.336-30.3289C71.455-27.6429 68.981-25.7839 65.733-25.0319C62.745-24.3399 60.339-25.2649 58.466-27.6209C56.908-29.5789 56.38-31.8889 56.347-34.6249ZM19.99-32.9179C20.034-30.5909 19.64-28.3949 18.238-26.4889C16.501-24.1259 14.187-23.2099 11.295-23.8139C7.69102-24.5689 5.00802-26.6669 2.93502-29.6129C0.471021-33.1139-0.500979-37.0559-0.162979-41.2839C0.0140213-43.4819 0.754021-45.5499 2.48802-47.0559C4.94302-49.1869 8.58402-49.5169 11.465-47.7519C16.989-44.3709 19.863-39.4159 19.99-32.9179Z"/>
  </g>
  <g id="Bold-M" transform="matrix(1 0 0 1 2301.75 1126)">
   <path d="M38.77-39.4289C42.265-39.4469 44.84-37.8139 46.691-36.6049C50.201-34.3139 50.845-32.5319 55.239-27.1849C61.014-20.1559 63.829-18.4509 65.808-13.7029C65.808-13.7029 67.491-9.60186 66.72-5.67986C66.443-4.27486 65.717-3.15786 64.6-2.28186C62.033-0.269855 59.119 0.202145 56.016-0.510855C53.391-1.11386 50.976-2.32786 48.489-3.32486C45.299-4.60486 42.05-5.52886 38.561-5.17986C35.573-4.88186 32.724-4.04986 29.925-2.99386C27.487-2.07486 25.079-1.05386 22.483-0.641855C20.928-0.394855 19.369-0.348855 17.813-0.618855C14.003-1.27786 11.196-4.60286 11.014-8.49686C10.987-9.04986 10.636-11.1859 12.167-14.8389C14.175-19.6269 16.534-20.3839 21.92-26.5739C26.581-31.9329 26.555-33.3669 30.206-35.9939C32.315-37.5109 35.029-39.4099 38.77-39.4289ZM39.636-55.1419C39.785-58.0879 40.391-61.8059 42.506-65.1139C44.308-67.9309 46.762-69.8779 50.086-70.5979C51.751-70.9579 53.262-70.4519 54.692-69.6619C57.023-68.3749 58.568-66.4229 59.253-63.8619C60.593-58.8549 60.242-53.9729 57.876-49.3179C56.82-47.2399 55.305-45.5039 53.434-44.0989C49.106-40.8479 44.84-42.3579 42.156-45.8539C40.269-48.3139 39.596-51.1909 39.636-55.1419ZM15.842-59.2419C15.87-61.7449 16.301-64.5499 18.126-66.9599C19.56-68.8529 21.328-70.2049 23.803-70.3529C25.507-70.4559 27.061-69.9249 28.513-69.0969C31.866-67.1849 33.907-64.2339 35.067-60.6239C35.797-58.3559 36.271-56.0269 36.219-53.6389C36.153-50.5289 35.454-47.5989 33.439-45.1079C30.981-42.0709 27.206-41.3529 23.848-43.3759C19.81-45.8069 17.474-49.4739 16.393-53.9959C16.017-55.5799 15.84-57.1949 15.842-59.2419ZM56.347-34.6249C56.527-39.0949 57.951-43.3549 61.323-46.8179C63.188-48.7339 65.455-49.9459 68.12-50.3409C70.719-50.7249 72.796-49.7179 74.354-47.7139C76.242-45.2819 76.823-42.4799 76.545-39.4189C76.243-36.0969 75.244-33.0549 73.336-30.3289C71.455-27.6429 68.981-25.7839 65.733-25.0319C62.745-24.3399 60.339-25.2649 58.466-27.6209C56.908-29.5789 56.38-31.8889 56.347-34.6249ZM19.99-32.9179C20.034-30.5909 19.64-28.3949 18.238-26.4889C16.501-24.1259 14.187-23.2099 11.295-23.8139C7.69102-24.5689 5.00802-26.6669 2.93502-29.6129C0.471021-33.1139-0.500979-37.0559-0.162979-41.2839C0.0140213-43.4819 0.754021-45.5499 2.48802-47.0559C4.94302-49.1869 8.58402-49.5169 11.465-47.7519C16.989-44.3709 19.863-39.4159 19.99-32.9179Z"/>
  </g>
  <g id="Semibold-M" transform="matrix(1 0 0 1 2005.04 1126)">
   <path d="M38.77-39.4289C42.265-39.4469 44.84-37.8139 46.691-36.6049C50.201-34.3139 50.845-32.5319 55.239-27.1849C61.014-20.1559 63.829-18.4509 65.808-13.7029C65.808-13.7029 67.491-9.60186 66.72-5.67986C66.443-4.27486 65.717-3.15786 64.6-2.28186C62.033-0.269855 59.119 0.202145 56.016-0.510855C53.391-1.11386 50.976-2.32786 48.489-3.32486C45.299-4.60486 42.05-5.52886 38.561-5.17986C35.573-4.88186 32.724-4.04986 29.925-2.99386C27.487-2.07486 25.079-1.05386 22.483-0.641855C20.928-0.394855 19.369-0.348855 17.813-0.618855C14.003-1.27786 11.196-4.60286 11.014-8.49686C10.987-9.04986 10.636-11.1859 12.167-14.8389C14.175-19.6269 16.534-20.3839 21.92-26.5739C26.581-31.9329 26.555-33.3669 30.206-35.9939C32.315-37.5109 35.029-39.4099 38.77-39.4289ZM39.636-55.1419C39.785-58.0879 40.391-61.8059 42.506-65.1139C44.308-67.9309 46.762-69.8779 50.086-70.5979C51.751-70.9579 53.262-70.4519 54.692-69.6619C57.023-68.3749 58.568-66.4229 59.253-63.8619C60.593-58.8549 60.242-53.9729 57.876-49.3179C56.82-47.2399 55.305-45.5039 53.434-44.0989C49.106-40.8479 44.84-42.3579 42.156-45.8539C40.269-48.3139 39.596-51.1909 39.636-55.1419ZM15.842-59.2419C15.87-61.7449 16.301-64.5499 18.126-66.9599C19.56-68.8529 21.328-70.2049 23.803-70.3529C25.507-70.4559 27.061-69.9249 28.513-69.0969C31.866-67.1849 33.907-64.2339 35.067-60.6239C35.797-58.3559 36.271-56.0269 36.219-53.6389C36.153-50.5289 35.454-47.5989 33.439-45.1079C30.981-42.0709 27.206-41.3529 23.848-43.3759C19.81-45.8069 17.474-49.4739 16.393-53.9959C16.017-55.5799 15.84-57.1949 15.842-59.2419ZM56.347-34.6249C56.527-39.0949 57.951-43.3549 61.323-46.8179C63.188-48.7339 65.455-49.9459 68.12-50.3409C70.719-50.7249 72.796-49.7179 74.354-47.7139C76.242-45.2819 76.823-42.4799 76.545-39.4189C76.243-36.0969 75.244-33.0549 73.336-30.3289C71.455-27.6429 68.981-25.7839 65.733-25.0319C62.745-24.3399 60.339-25.2649 58.466-27.6209C56.908-29.5789 56.38-31.8889 56.347-34.6249ZM19.99-32.9179C20.034-30.5909 19.64-28.3949 18.238-26.4889C16.501-24.1259 14.187-23.2099 11.295-23.8139C7.69102-24.5689 5.00802-26.6669 2.93502-29.6129C0.471021-33.1139-0.500979-37.0559-0.162979-41.2839C0.0140213-43.4819 0.754021-45.5499 2.48802-47.0559C4.94302-49.1869 8.58402-49.5169 11.465-47.7519C16.989-44.3709 19.863-39.4159 19.99-32.9179Z"/>
  </g>
  <g id="Medium-M" transform="matrix(1 0 0 1 1708.33 1126)">
   <path d="M38.77-39.4289C42.265-39.4469 44.84-37.8139 46.691-36.6049C50.201-34.3139 50.845-32.5319 55.239-27.1849C61.014-20.1559 63.829-18.4509 65.808-13.7029C65.808-13.7029 67.491-9.60186 66.72-5.67986C66.443-4.27486 65.717-3.15786 64.6-2.28186C62.033-0.269855 59.119 0.202145 56.016-0.510855C53.391-1.11386 50.976-2.32786 48.489-3.32486C45.299-4.60486 42.05-5.52886 38.561-5.17986C35.573-4.88186 32.724-4.04986 29.925-2.99386C27.487-2.07486 25.079-1.05386 22.483-0.641855C20.928-0.394855 19.369-0.348855 17.813-0.618855C14.003-1.27786 11.196-4.60286 11.014-8.49686C10.987-9.04986 10.636-11.1859 12.167-14.8389C14.175-19.6269 16.534-20.3839 21.92-26.5739C26.581-31.9329 26.555-33.3669 30.206-35.9939C32.315-37.5109 35.029-39.4099 38.77-39.4289ZM39.636-55.1419C39.785-58.0879 40.391-61.8059 42.506-65.1139C44.308-67.9309 46.762-69.8779 50.086-70.5979C51.751-70.9579 53.262-70.4519 54.692-69.6619C57.023-68.3749 58.568-66.4229 59.253-63.8619C60.593-58.8549 60.242-53.9729 57.876-49.3179C56.82-47.2399 55.305-45.5039 53.434-44.0989C49.106-40.8479 44.84-42.3579 42.156-45.8539C40.269-48.3139 39.596-51.1909 39.636-55.1419ZM15.842-59.2419C15.87-61.7449 16.301-64.5499 18.126-66.9599C19.56-68.8529 21.328-70.2049 23.803-70.3529C25.507-70.4559 27.061-69.9249 28.513-69.0969C31.866-67.1849 33.907-64.2339 35.067-60.6239C35.797-58.3559 36.271-56.0269 36.219-53.6389C36.153-50.5289 35.454-47.5989 33.439-45.1079C30.981-42.0709 27.206-41.3529 23.848-43.3759C19.81-45.8069 17.474-49.4739 16.393-53.9959C16.017-55.5799 15.84-57.1949 15.842-59.2419ZM56.347-34.6249C56.527-39.0949 57.951-43.3549 61.323-46.8179C63.188-48.7339 65.455-49.9459 68.12-50.3409C70.719-50.7249 72.796-49.7179 74.354-47.7139C76.242-45.2819 76.823-42.4799 76.545-39.4189C76.243-36.0969 75.244-33.0549 73.336-30.3289C71.455-27.6429 68.981-25.7839 65.733-25.0319C62.745-24.3399 60.339-25.2649 58.466-27.6209C56.908-29.5789 56.38-31.8889 56.347-34.6249ZM19.99-32.9179C20.034-30.5909 19.64-28.3949 18.238-26.4889C16.501-24.1259 14.187-23.2099 11.295-23.8139C7.69102-24.5689 5.00802-26.6669 2.93502-29.6129C0.471021-33.1139-0.500979-37.0559-0.162979-41.2839C0.0140213-43.4819 0.754021-45.5499 2.48802-47.0559C4.94302-49.1869 8.58402-49.5169 11.465-47.7519C16.989-44.3709 19.863-39.4159 19.99-32.9179Z"/>
  </g>
  <g id="Regular-M" transform="matrix(1 0 0 1 1411.62 1126)">
   <path d="M38.77-39.4289C42.265-39.4469 44.84-37.8139 46.691-36.6049C50.201-34.3139 50.845-32.5319 55.239-27.1849C61.014-20.1559 63.829-18.4509 65.808-13.7029C65.808-13.7029 67.491-9.60186 66.72-5.67986C66.443-4.27486 65.717-3.15786 64.6-2.28186C62.033-0.269855 59.119 0.202145 56.016-0.510855C53.391-1.11386 50.976-2.32786 48.489-3.32486C45.299-4.60486 42.05-5.52886 38.561-5.17986C35.573-4.88186 32.724-4.04986 29.925-2.99386C27.487-2.07486 25.079-1.05386 22.483-0.641855C20.928-0.394855 19.369-0.348855 17.813-0.618855C14.003-1.27786 11.196-4.60286 11.014-8.49686C10.987-9.04986 10.636-11.1859 12.167-14.8389C14.175-19.6269 16.534-20.3839 21.92-26.5739C26.581-31.9329 26.555-33.3669 30.206-35.9939C32.315-37.5109 35.029-39.4099 38.77-39.4289ZM39.636-55.1419C39.785-58.0879 40.391-61.8059 42.506-65.1139C44.308-67.9309 46.762-69.8779 50.086-70.5979C51.751-70.9579 53.262-70.4519 54.692-69.6619C57.023-68.3749 58.568-66.4229 59.253-63.8619C60.593-58.8549 60.242-53.9729 57.876-49.3179C56.82-47.2399 55.305-45.5039 53.434-44.0989C49.106-40.8479 44.84-42.3579 42.156-45.8539C40.269-48.3139 39.596-51.1909 39.636-55.1419ZM15.842-59.2419C15.87-61.7449 16.301-64.5499 18.126-66.9599C19.56-68.8529 21.328-70.2049 23.803-70.3529C25.507-70.4559 27.061-69.9249 28.513-69.0969C31.866-67.1849 33.907-64.2339 35.067-60.6239C35.797-58.3559 36.271-56.0269 36.219-53.6389C36.153-50.5289 35.454-47.5989 33.439-45.1079C30.981-42.0709 27.206-41.3529 23.848-43.3759C19.81-45.8069 17.474-49.4739 16.393-53.9959C16.017-55.5799 15.84-57.1949 15.842-59.2419ZM56.347-34.6249C56.527-39.0949 57.951-43.3549 61.323-46.8179C63.188-48.7339 65.455-49.9459 68.12-50.3409C70.719-50.7249 72.796-49.7179 74.354-47.7139C76.242-45.2819 76.823-42.4799 76.545-39.4189C76.243-36.0969 75.244-33.0549 73.336-30.3289C71.455-27.6429 68.981-25.7839 65.733-25.0319C62.745-24.3399 60.339-25.2649 58.466-27.6209C56.908-29.5789 56.38-31.8889 56.347-34.6249ZM19.99-32.9179C20.034-30.5909 19.64-28.3949 18.238-26.4889C16.501-24.1259 14.187-23.2099 11.295-23.8139C7.69102-24.5689 5.00802-26.6669 2.93502-29.6129C0.471021-33.1139-0.500979-37.0559-0.162979-41.2839C0.0140213-43.4819 0.754021-45.5499 2.48802-47.0559C4.94302-49.1869 8.58402-49.5169 11.465-47.7519C16.989-44.3709 19.863-39.4159 19.99-32.9179Z"/>
  </g>
  <g id="Light-M" transform="matrix(1 0 0 1 1114.91 1126)">
   <path d="M38.77-39.4289C42.265-39.4469 44.84-37.8139 46.691-36.6049C50.201-34.3139 50.845-32.5319 55.239-27.1849C61.014-20.1559 63.829-18.4509 65.808-13.7029C65.808-13.7029 67.491-9.60186 66.72-5.67986C66.443-4.27486 65.717-3.15786 64.6-2.28186C62.033-0.269855 59.119 0.202145 56.016-0.510855C53.391-1.11386 50.976-2.32786 48.489-3.32486C45.299-4.60486 42.05-5.52886 38.561-5.17986C35.573-4.88186 32.724-4.04986 29.925-2.99386C27.487-2.07486 25.079-1.05386 22.483-0.641855C20.928-0.394855 19.369-0.348855 17.813-0.618855C14.003-1.27786 11.196-4.60286 11.014-8.49686C10.987-9.04986 10.636-11.1859 12.167-14.8389C14.175-19.6269 16.534-20.3839 21.92-26.5739C26.581-31.9329 26.555-33.3669 30.206-35.9939C32.315-37.5109 35.029-39.4099 38.77-39.4289ZM39.636-55.1419C39.785-58.0879 40.391-61.8059 42.506-65.1139C44.308-67.9309 46.762-69.8779 50.086-70.5979C51.751-70.9579 53.262-70.4519 54.692-69.6619C57.023-68.3749 58.568-66.4229 59.253-63.8619C60.593-58.8549 60.242-53.9729 57.876-49.3179C56.82-47.2399 55.305-45.5039 53.434-44.0989C49.106-40.8479 44.84-42.3579 42.156-45.8539C40.269-48.3139 39.596-51.1909 39.636-55.1419ZM15.842-59.2419C15.87-61.7449 16.301-64.5499 18.126-66.9599C19.56-68.8529 21.328-70.2049 23.803-70.3529C25.507-70.4559 27.061-69.9249 28.513-69.0969C31.866-67.1849 33.907-64.2339 35.067-60.6239C35.797-58.3559 36.271-56.0269 36.219-53.6389C36.153-50.5289 35.454-47.5989 33.439-45.1079C30.981-42.0709 27.206-41.3529 23.848-43.3759C19.81-45.8069 17.474-49.4739 16.393-53.9959C16.017-55.5799 15.84-57.1949 15.842-59.2419ZM56.347-34.6249C56.527-39.0949 57.951-43.3549 61.323-46.8179C63.188-48.7339 65.455-49.9459 68.12-50.3409C70.719-50.7249 72.796-49.7179 74.354-47.7139C76.242-45.2819 76.823-42.4799 76.545-39.4189C76.243-36.0969 75.244-33.0549 73.336-30.3289C71.455-27.6429 68.981-25.7839 65.733-25.0319C62.745-24.3399 60.339-25.2649 58.466-27.6209C56.908-29.5789 56.38-31.8889 56.347-34.6249ZM19.99-32.9179C20.034-30.5909 19.64-28.3949 18.238-26.4889C16.501-24.1259 14.187-23.2099 11.295-23.8139C7.69102-24.5689 5.00802-26.6669 2.93502-29.6129C0.471021-33.1139-0.500979-37.0559-0.162979-41.2839C0.0140213-43.4819 0.754021-45.5499 2.48802-47.0559C4.94302-49.1869 8.58402-49.5169 11.465-47.7519C16.989-44.3709 19.863-39.4159 19.99-32.9179Z"/>
  </g>
  <g id="Thin-M" transform="matrix(1 0 0 1 818.199 1126)">
   <path d="M38.77-39.4289C42.265-39.4469 44.84-37.8139 46.691-36.6049C50.201-34.3139 50.845-32.5319 55.239-27.1849C61.014-20.1559 63.829-18.4509 65.808-13.7029C65.808-13.7029 67.491-9.60186 66.72-5.67986C66.443-4.27486 65.717-3.15786 64.6-2.28186C62.033-0.269855 59.119 0.202145 56.016-0.510855C53.391-1.11386 50.976-2.32786 48.489-3.32486C45.299-4.60486 42.05-5.52886 38.561-5.17986C35.573-4.88186 32.724-4.04986 29.925-2.99386C27.487-2.07486 25.079-1.05386 22.483-0.641855C20.928-0.394855 19.369-0.348855 17.813-0.618855C14.003-1.27786 11.196-4.60286 11.014-8.49686C10.987-9.04986 10.636-11.1859 12.167-14.8389C14.175-19.6269 16.534-20.3839 21.92-26.5739C26.581-31.9329 26.555-33.3669 30.206-35.9939C32.315-37.5109 35.029-39.4099 38.77-39.4289ZM39.636-55.1419C39.785-58.0879 40.391-61.8059 42.506-65.1139C44.308-67.9309 46.762-69.8779 50.086-70.5979C51.751-70.9579 53.262-70.4519 54.692-69.6619C57.023-68.3749 58.568-66.4229 59.253-63.8619C60.593-58.8549 60.242-53.9729 57.876-49.3179C56.82-47.2399 55.305-45.5039 53.434-44.0989C49.106-40.8479 44.84-42.3579 42.156-45.8539C40.269-48.3139 39.596-51.1909 39.636-55.1419ZM15.842-59.2419C15.87-61.7449 16.301-64.5499 18.126-66.9599C19.56-68.8529 21.328-70.2049 23.803-70.3529C25.507-70.4559 27.061-69.9249 28.513-69.0969C31.866-67.1849 33.907-64.2339 35.067-60.6239C35.797-58.3559 36.271-56.0269 36.219-53.6389C36.153-50.5289 35.454-47.5989 33.439-45.1079C30.981-42.0709 27.206-41.3529 23.848-43.3759C19.81-45.8069 17.474-49.4739 16.393-53.9959C16.017-55.5799 15.84-57.1949 15.842-59.2419ZM56.347-34.6249C56.527-39.0949 57.951-43.3549 61.323-46.8179C63.188-48.7339 65.455-49.9459 68.12-50.3409C70.719-50.7249 72.796-49.7179 74.354-47.7139C76.242-45.2819 76.823-42.4799 76.545-39.4189C76.243-36.0969 75.244-33.0549 73.336-30.3289C71.455-27.6429 68.981-25.7839 65.733-25.0319C62.745-24.3399 60.339-25.2649 58.466-27.6209C56.908-29.5789 56.38-31.8889 56.347-34.6249ZM19.99-32.9179C20.034-30.5909 19.64-28.3949 18.238-26.4889C16.501-24.1259 14.187-23.2099 11.295-23.8139C7.69102-24.5689 5.00802-26.6669 2.93502-29.6129C0.471021-33.1139-0.500979-37.0559-0.162979-41.2839C0.0140213-43.4819 0.754021-45.5499 2.48802-47.0559C4.94302-49.1869 8.58402-49.5169 11.465-47.7519C16.989-44.3709 19.863-39.4159 19.99-32.9179Z"/>
  </g>
  <g id="Ultralight-M" transform="matrix(1 0 0 1 521.488 1126)">
   <path d="M38.77-39.4289C42.265-39.4469 44.84-37.8139 46.691-36.6049C50.201-34.3139 50.845-32.5319 55.239-27.1849C61.014-20.1559 63.829-18.4509 65.808-13.7029C65.808-13.7029 67.491-9.60186 66.72-5.67986C66.443-4.27486 65.717-3.15786 64.6-2.28186C62.033-0.269855 59.119 0.202145 56.016-0.510855C53.391-1.11386 50.976-2.32786 48.489-3.32486C45.299-4.60486 42.05-5.52886 38.561-5.17986C35.573-4.88186 32.724-4.04986 29.925-2.99386C27.487-2.07486 25.079-1.05386 22.483-0.641855C20.928-0.394855 19.369-0.348855 17.813-0.618855C14.003-1.27786 11.196-4.60286 11.014-8.49686C10.987-9.04986 10.636-11.1859 12.167-14.8389C14.175-19.6269 16.534-20.3839 21.92-26.5739C26.581-31.9329 26.555-33.3669 30.206-35.9939C32.315-37.5109 35.029-39.4099 38.77-39.4289ZM39.636-55.1419C39.785-58.0879 40.391-61.8059 42.506-65.1139C44.308-67.9309 46.762-69.8779 50.086-70.5979C51.751-70.9579 53.262-70.4519 54.692-69.6619C57.023-68.3749 58.568-66.4229 59.253-63.8619C60.593-58.8549 60.242-53.9729 57.876-49.3179C56.82-47.2399 55.305-45.5039 53.434-44.0989C49.106-40.8479 44.84-42.3579 42.156-45.8539C40.269-48.3139 39.596-51.1909 39.636-55.1419ZM15.842-59.2419C15.87-61.7449 16.301-64.5499 18.126-66.9599C19.56-68.8529 21.328-70.2049 23.803-70.3529C25.507-70.4559 27.061-69.9249 28.513-69.0969C31.866-67.1849 33.907-64.2339 35.067-60.6239C35.797-58.3559 36.271-56.0269 36.219-53.6389C36.153-50.5289 35.454-47.5989 33.439-45.1079C30.981-42.0709 27.206-41.3529 23.848-43.3759C19.81-45.8069 17.474-49.4739 16.393-53.9959C16.017-55.5799 15.84-57.1949 15.842-59.2419ZM56.347-34.6249C56.527-39.0949 57.951-43.3549 61.323-46.8179C63.188-48.7339 65.455-49.9459 68.12-50.3409C70.719-50.7249 72.796-49.7179 74.354-47.7139C76.242-45.2819 76.823-42.4799 76.545-39.4189C76.243-36.0969 75.244-33.0549 73.336-30.3289C71.455-27.6429 68.981-25.7839 65.733-25.0319C62.745-24.3399 60.339-25.2649 58.466-27.6209C56.908-29.5789 56.38-31.8889 56.347-34.6249ZM19.99-32.9179C20.034-30.5909 19.64-28.3949 18.238-26.4889C16.501-24.1259 14.187-23.2099 11.295-23.8139C7.69102-24.5689 5.00802-26.6669 2.93502-29.6129C0.471021-33.1139-0.500979-37.0559-0.162979-41.2839C0.0140213-43.4819 0.754021-45.5499 2.48802-47.0559C4.94302-49.1869 8.58402-49.5169 11.465-47.7519C16.989-44.3709 19.863-39.4159 19.99-32.9179Z"/>
  </g>
  <g id="Black-S" transform="matrix(1 0 0 1 2903.51 696)">
   <path d="M30.307-38.5175C33.044-38.5315 35.061-37.2535 36.51-36.3065C39.258-34.5125 39.762-33.1175 43.203-28.9305C47.725-23.4275 49.929-22.0925 51.478-18.3745C51.478-18.3745 52.796-15.1635 52.192-12.0925C51.976-10.9925 51.407-10.1175 50.533-9.43148C48.523-7.85648 46.241-7.48648 43.811-8.04548C41.756-8.51748 39.865-9.46748 37.917-10.2485C35.42-11.2505 32.876-11.9735 30.144-11.7005C27.805-11.4675 25.574-10.8165 23.382-9.98948C21.473-9.26948 19.588-8.47048 17.555-8.14748C16.338-7.95448 15.117-7.91848 13.898-8.12948C10.915-8.64548 8.71699-11.2495 8.57499-14.2985C8.55399-14.7315 8.27899-16.4035 9.47799-19.2635C11.05-23.0125 12.897-23.6055 17.114-28.4525C20.764-32.6485 20.743-33.7715 23.602-35.8285C25.253-37.0155 27.379-38.5025 30.307-38.5175ZM30.986-50.8205C31.102-53.1285 31.577-56.0385 33.233-58.6285C34.644-60.8345 36.565-62.3595 39.168-62.9225C40.472-63.2045 41.655-62.8085 42.774-62.1905C44.6-61.1825 45.809-59.6535 46.346-57.6485C47.395-53.7285 47.12-49.9055 45.268-46.2615C44.441-44.6335 43.255-43.2745 41.79-42.1745C38.401-39.6295 35.061-40.8105 32.959-43.5485C31.481-45.4745 30.955-47.7275 30.986-50.8205ZM12.355-54.0305C12.377-55.9915 12.714-58.1875 14.143-60.0745C15.266-61.5565 16.651-62.6155 18.588-62.7315C19.923-62.8125 21.139-62.3965 22.276-61.7475C24.902-60.2505 26.5-57.9405 27.408-55.1135C27.98-53.3375 28.351-51.5145 28.31-49.6435C28.258-47.2095 27.711-44.9145 26.133-42.9645C24.209-40.5865 21.253-40.0245 18.624-41.6075C15.462-43.5115 13.633-46.3835 12.787-49.9235C12.492-51.1645 12.354-52.4285 12.355-54.0305ZM44.07-34.7565C44.212-38.2565 45.327-41.5915 47.967-44.3035C49.427-45.8035 51.202-46.7525 53.289-47.0615C55.324-47.3625 56.95-46.5745 58.17-45.0045C59.648-43.1005 60.103-40.9065 59.885-38.5095C59.649-35.9085 58.867-33.5275 57.373-31.3925C55.9-29.2895 53.963-27.8335 51.42-27.2455C49.08-26.7025 47.196-27.4275 45.73-29.2725C44.51-30.8055 44.097-32.6135 44.07-34.7565ZM15.603-33.4195C15.637-31.5975 15.329-29.8785 14.231-28.3855C12.871-26.5355 11.059-25.8185 8.79499-26.2915C5.97299-26.8825 3.87199-28.5245 2.24899-30.8315C0.319987-33.5735-0.442013-36.6595-0.177013-39.9705C-0.0380127-41.6905 0.540987-43.3105 1.89899-44.4895C3.82099-46.1585 6.67199-46.4165 8.92799-45.0345C13.253-42.3875 15.504-38.5075 15.603-33.4195Z"/>
  </g>
  <g id="Heavy-S" transform="matrix(1 0 0 1 2606.8 696)">
   <path d="M30.307-38.5175C33.044-38.5315 35.061-37.2535 36.51-36.3065C39.258-34.5125 39.762-33.1175 43.203-28.9305C47.725-23.4275 49.929-22.0925 51.478-18.3745C51.478-18.3745 52.796-15.1635 52.192-12.0925C51.976-10.9925 51.407-10.1175 50.533-9.43148C48.523-7.85648 46.241-7.48648 43.811-8.04548C41.756-8.51748 39.865-9.46748 37.917-10.2485C35.42-11.2505 32.876-11.9735 30.144-11.7005C27.805-11.4675 25.574-10.8165 23.382-9.98948C21.473-9.26948 19.588-8.47048 17.555-8.14748C16.338-7.95448 15.117-7.91848 13.898-8.12948C10.915-8.64548 8.71699-11.2495 8.57499-14.2985C8.55399-14.7315 8.27899-16.4035 9.47799-19.2635C11.05-23.0125 12.897-23.6055 17.114-28.4525C20.764-32.6485 20.743-33.7715 23.602-35.8285C25.253-37.0155 27.379-38.5025 30.307-38.5175ZM30.986-50.8205C31.102-53.1285 31.577-56.0385 33.233-58.6285C34.644-60.8345 36.565-62.3595 39.168-62.9225C40.472-63.2045 41.655-62.8085 42.774-62.1905C44.6-61.1825 45.809-59.6535 46.346-57.6485C47.395-53.7285 47.12-49.9055 45.268-46.2615C44.441-44.6335 43.255-43.2745 41.79-42.1745C38.401-39.6295 35.061-40.8105 32.959-43.5485C31.481-45.4745 30.955-47.7275 30.986-50.8205ZM12.355-54.0305C12.377-55.9915 12.714-58.1875 14.143-60.0745C15.266-61.5565 16.651-62.6155 18.588-62.7315C19.923-62.8125 21.139-62.3965 22.276-61.7475C24.902-60.2505 26.5-57.9405 27.408-55.1135C27.98-53.3375 28.351-51.5145 28.31-49.6435C28.258-47.2095 27.711-44.9145 26.133-42.9645C24.209-40.5865 21.253-40.0245 18.624-41.6075C15.462-43.5115 13.633-46.3835 12.787-49.9235C12.492-51.1645 12.354-52.4285 12.355-54.0305ZM44.07-34.7565C44.212-38.2565 45.327-41.5915 47.967-44.3035C49.427-45.8035 51.202-46.7525 53.289-47.0615C55.324-47.3625 56.95-46.5745 58.17-45.0045C59.648-43.1005 60.103-40.9065 59.885-38.5095C59.649-35.9085 58.867-33.5275 57.373-31.3925C55.9-29.2895 53.963-27.8335 51.42-27.2455C49.08-26.7025 47.196-27.4275 45.73-29.2725C44.51-30.8055 44.097-32.6135 44.07-34.7565ZM15.603-33.4195C15.637-31.5975 15.329-29.8785 14.231-28.3855C12.871-26.5355 11.059-25.8185 8.79499-26.2915C5.97299-26.8825 3.87199-28.5245 2.24899-30.8315C0.319987-33.5735-0.442013-36.6595-0.177013-39.9705C-0.0380127-41.6905 0.540987-43.3105 1.89899-44.4895C3.82099-46.1585 6.67199-46.4165 8.92799-45.0345C13.253-42.3875 15.504-38.5075 15.603-33.4195Z"/>
  </g>
  <g id="Bold-S" transform="matrix(1 0 0 1 2310.09 696)">
   <path d="M30.307-38.5175C33.044-38.5315 35.061-37.2535 36.51-36.3065C39.258-34.5125 39.762-33.1175 43.203-28.9305C47.725-23.4275 49.929-22.0925 51.478-18.3745C51.478-18.3745 52.796-15.1635 52.192-12.0925C51.976-10.9925 51.407-10.1175 50.533-9.43148C48.523-7.85648 46.241-7.48648 43.811-8.04548C41.756-8.51748 39.865-9.46748 37.917-10.2485C35.42-11.2505 32.876-11.9735 30.144-11.7005C27.805-11.4675 25.574-10.8165 23.382-9.98948C21.473-9.26948 19.588-8.47048 17.555-8.14748C16.338-7.95448 15.117-7.91848 13.898-8.12948C10.915-8.64548 8.71699-11.2495 8.57499-14.2985C8.55399-14.7315 8.27899-16.4035 9.47799-19.2635C11.05-23.0125 12.897-23.6055 17.114-28.4525C20.764-32.6485 20.743-33.7715 23.602-35.8285C25.253-37.0155 27.379-38.5025 30.307-38.5175ZM30.986-50.8205C31.102-53.1285 31.577-56.0385 33.233-58.6285C34.644-60.8345 36.565-62.3595 39.168-62.9225C40.472-63.2045 41.655-62.8085 42.774-62.1905C44.6-61.1825 45.809-59.6535 46.346-57.6485C47.395-53.7285 47.12-49.9055 45.268-46.2615C44.441-44.6335 43.255-43.2745 41.79-42.1745C38.401-39.6295 35.061-40.8105 32.959-43.5485C31.481-45.4745 30.955-47.7275 30.986-50.8205ZM12.355-54.0305C12.377-55.9915 12.714-58.1875 14.143-60.0745C15.266-61.5565 16.651-62.6155 18.588-62.7315C19.923-62.8125 21.139-62.3965 22.276-61.7475C24.902-60.2505 26.5-57.9405 27.408-55.1135C27.98-53.3375 28.351-51.5145 28.31-49.6435C28.258-47.2095 27.711-44.9145 26.133-42.9645C24.209-40.5865 21.253-40.0245 18.624-41.6075C15.462-43.5115 13.633-46.3835 12.787-49.9235C12.492-51.1645 12.354-52.4285 12.355-54.0305ZM44.07-34.7565C44.212-38.2565 45.327-41.5915 47.967-44.3035C49.427-45.8035 51.202-46.7525 53.289-47.0615C55.324-47.3625 56.95-46.5745 58.17-45.0045C59.648-43.1005 60.103-40.9065 59.885-38.5095C59.649-35.9085 58.867-33.5275 57.373-31.3925C55.9-29.2895 53.963-27.8335 51.42-27.2455C49.08-26.7025 47.196-27.4275 45.73-29.2725C44.51-30.8055 44.097-32.6135 44.07-34.7565ZM15.603-33.4195C15.637-31.5975 15.329-29.8785 14.231-28.3855C12.871-26.5355 11.059-25.8185 8.79499-26.2915C5.97299-26.8825 3.87199-28.5245 2.24899-30.8315C0.319987-33.5735-0.442013-36.6595-0.177013-39.9705C-0.0380127-41.6905 0.540987-43.3105 1.89899-44.4895C3.82099-46.1585 6.67199-46.4165 8.92799-45.0345C13.253-42.3875 15.504-38.5075 15.603-33.4195Z"/>
  </g>
  <g id="Semibold-S" transform="matrix(1 0 0 1 2013.38 696)">
   <path d="M30.307-38.5175C33.044-38.5315 35.061-37.2535 36.51-36.3065C39.258-34.5125 39.762-33.1175 43.203-28.9305C47.725-23.4275 49.929-22.0925 51.478-18.3745C51.478-18.3745 52.796-15.1635 52.192-12.0925C51.976-10.9925 51.407-10.1175 50.533-9.43148C48.523-7.85648 46.241-7.48648 43.811-8.04548C41.756-8.51748 39.865-9.46748 37.917-10.2485C35.42-11.2505 32.876-11.9735 30.144-11.7005C27.805-11.4675 25.574-10.8165 23.382-9.98948C21.473-9.26948 19.588-8.47048 17.555-8.14748C16.338-7.95448 15.117-7.91848 13.898-8.12948C10.915-8.64548 8.71699-11.2495 8.57499-14.2985C8.55399-14.7315 8.27899-16.4035 9.47799-19.2635C11.05-23.0125 12.897-23.6055 17.114-28.4525C20.764-32.6485 20.743-33.7715 23.602-35.8285C25.253-37.0155 27.379-38.5025 30.307-38.5175ZM30.986-50.8205C31.102-53.1285 31.577-56.0385 33.233-58.6285C34.644-60.8345 36.565-62.3595 39.168-62.9225C40.472-63.2045 41.655-62.8085 42.774-62.1905C44.6-61.1825 45.809-59.6535 46.346-57.6485C47.395-53.7285 47.12-49.9055 45.268-46.2615C44.441-44.6335 43.255-43.2745 41.79-42.1745C38.401-39.6295 35.061-40.8105 32.959-43.5485C31.481-45.4745 30.955-47.7275 30.986-50.8205ZM12.355-54.0305C12.377-55.9915 12.714-58.1875 14.143-60.0745C15.266-61.5565 16.651-62.6155 18.588-62.7315C19.923-62.8125 21.139-62.3965 22.276-61.7475C24.902-60.2505 26.5-57.9405 27.408-55.1135C27.98-53.3375 28.351-51.5145 28.31-49.6435C28.258-47.2095 27.711-44.9145 26.133-42.9645C24.209-40.5865 21.253-40.0245 18.624-41.6075C15.462-43.5115 13.633-46.3835 12.787-49.9235C12.492-51.1645 12.354-52.4285 12.355-54.0305ZM44.07-34.7565C44.212-38.2565 45.327-41.5915 47.967-44.3035C49.427-45.8035 51.202-46.7525 53.289-47.0615C55.324-47.3625 56.95-46.5745 58.17-45.0045C59.648-43.1005 60.103-40.9065 59.885-38.5095C59.649-35.9085 58.867-33.5275 57.373-31.3925C55.9-29.2895 53.963-27.8335 51.42-27.2455C49.08-26.7025 47.196-27.4275 45.73-29.2725C44.51-30.8055 44.097-32.6135 44.07-34.7565ZM15.603-33.4195C15.637-31.5975 15.329-29.8785 14.231-28.3855C12.871-26.5355 11.059-25.8185 8.79499-26.2915C5.97299-26.8825 3.87199-28.5245 2.24899-30.8315C0.319987-33.5735-0.442013-36.6595-0.177013-39.9705C-0.0380127-41.6905 0.540987-43.3105 1.89899-44.4895C3.82099-46.1585 6.67199-46.4165 8.92799-45.0345C13.253-42.3875 15.504-38.5075 15.603-33.4195Z"/>
  </g>
  <g id="Medium-S" transform="matrix(1 0 0 1 1716.67 696)">
   <path d="M30.307-38.5175C33.044-38.5315 35.061-37.2535 36.51-36.3065C39.258-34.5125 39.762-33.1175 43.203-28.9305C47.725-23.4275 49.929-22.0925 51.478-18.3745C51.478-18.3745 52.796-15.1635 52.192-12.0925C51.976-10.9925 51.407-10.1175 50.533-9.43148C48.523-7.85648 46.241-7.48648 43.811-8.04548C41.756-8.51748 39.865-9.46748 37.917-10.2485C35.42-11.2505 32.876-11.9735 30.144-11.7005C27.805-11.4675 25.574-10.8165 23.382-9.98948C21.473-9.26948 19.588-8.47048 17.555-8.14748C16.338-7.95448 15.117-7.91848 13.898-8.12948C10.915-8.64548 8.71699-11.2495 8.57499-14.2985C8.55399-14.7315 8.27899-16.4035 9.47799-19.2635C11.05-23.0125 12.897-23.6055 17.114-28.4525C20.764-32.6485 20.743-33.7715 23.602-35.8285C25.253-37.0155 27.379-38.5025 30.307-38.5175ZM30.986-50.8205C31.102-53.1285 31.577-56.0385 33.233-58.6285C34.644-60.8345 36.565-62.3595 39.168-62.9225C40.472-63.2045 41.655-62.8085 42.774-62.1905C44.6-61.1825 45.809-59.6535 46.346-57.6485C47.395-53.7285 47.12-49.9055 45.268-46.2615C44.441-44.6335 43.255-43.2745 41.79-42.1745C38.401-39.6295 35.061-40.8105 32.959-43.5485C31.481-45.4745 30.955-47.7275 30.986-50.8205ZM12.355-54.0305C12.377-55.9915 12.714-58.1875 14.143-60.0745C15.266-61.5565 16.651-62.6155 18.588-62.7315C19.923-62.8125 21.139-62.3965 22.276-61.7475C24.902-60.2505 26.5-57.9405 27.408-55.1135C27.98-53.3375 28.351-51.5145 28.31-49.6435C28.258-47.2095 27.711-44.9145 26.133-42.9645C24.209-40.5865 21.253-40.0245 18.624-41.6075C15.462-43.5115 13.633-46.3835 12.787-49.9235C12.492-51.1645 12.354-52.4285 12.355-54.0305ZM44.07-34.7565C44.212-38.2565 45.327-41.5915 47.967-44.3035C49.427-45.8035 51.202-46.7525 53.289-47.0615C55.324-47.3625 56.95-46.5745 58.17-45.0045C59.648-43.1005 60.103-40.9065 59.885-38.5095C59.649-35.9085 58.867-33.5275 57.373-31.3925C55.9-29.2895 53.963-27.8335 51.42-27.2455C49.08-26.7025 47.196-27.4275 45.73-29.2725C44.51-30.8055 44.097-32.6135 44.07-34.7565ZM15.603-33.4195C15.637-31.5975 15.329-29.8785 14.231-28.3855C12.871-26.5355 11.059-25.8185 8.79499-26.2915C5.97299-26.8825 3.87199-28.5245 2.24899-30.8315C0.319987-33.5735-0.442013-36.6595-0.177013-39.9705C-0.0380127-41.6905 0.540987-43.3105 1.89899-44.4895C3.82099-46.1585 6.67199-46.4165 8.92799-45.0345C13.253-42.3875 15.504-38.5075 15.603-33.4195Z"/>
  </g>
  <g id="Regular-S" transform="matrix(1 0 0 1 1419.96 696)">
   <path d="M30.307-38.5175C33.044-38.5315 35.061-37.2535 36.51-36.3065C39.258-34.5125 39.762-33.1175 43.203-28.9305C47.725-23.4275 49.929-22.0925 51.478-18.3745C51.478-18.3745 52.796-15.1635 52.192-12.0925C51.976-10.9925 51.407-10.1175 50.533-9.43148C48.523-7.85648 46.241-7.48648 43.811-8.04548C41.756-8.51748 39.865-9.46748 37.917-10.2485C35.42-11.2505 32.876-11.9735 30.144-11.7005C27.805-11.4675 25.574-10.8165 23.382-9.98948C21.473-9.26948 19.588-8.47048 17.555-8.14748C16.338-7.95448 15.117-7.91848 13.898-8.12948C10.915-8.64548 8.71699-11.2495 8.57499-14.2985C8.55399-14.7315 8.27899-16.4035 9.47799-19.2635C11.05-23.0125 12.897-23.6055 17.114-28.4525C20.764-32.6485 20.743-33.7715 23.602-35.8285C25.253-37.0155 27.379-38.5025 30.307-38.5175ZM30.986-50.8205C31.102-53.1285 31.577-56.0385 33.233-58.6285C34.644-60.8345 36.565-62.3595 39.168-62.9225C40.472-63.2045 41.655-62.8085 42.774-62.1905C44.6-61.1825 45.809-59.6535 46.346-57.6485C47.395-53.7285 47.12-49.9055 45.268-46.2615C44.441-44.6335 43.255-43.2745 41.79-42.1745C38.401-39.6295 35.061-40.8105 32.959-43.5485C31.481-45.4745 30.955-47.7275 30.986-50.8205ZM12.355-54.0305C12.377-55.9915 12.714-58.1875 14.143-60.0745C15.266-61.5565 16.651-62.6155 18.588-62.7315C19.923-62.8125 21.139-62.3965 22.276-61.7475C24.902-60.2505 26.5-57.9405 27.408-55.1135C27.98-53.3375 28.351-51.5145 28.31-49.6435C28.258-47.2095 27.711-44.9145 26.133-42.9645C24.209-40.5865 21.253-40.0245 18.624-41.6075C15.462-43.5115 13.633-46.3835 12.787-49.9235C12.492-51.1645 12.354-52.4285 12.355-54.0305ZM44.07-34.7565C44.212-38.2565 45.327-41.5915 47.967-44.3035C49.427-45.8035 51.202-46.7525 53.289-47.0615C55.324-47.3625 56.95-46.5745 58.17-45.0045C59.648-43.1005 60.103-40.9065 59.885-38.5095C59.649-35.9085 58.867-33.5275 57.373-31.3925C55.9-29.2895 53.963-27.8335 51.42-27.2455C49.08-26.7025 47.196-27.4275 45.73-29.2725C44.51-30.8055 44.097-32.6135 44.07-34.7565ZM15.603-33.4195C15.637-31.5975 15.329-29.8785 14.231-28.3855C12.871-26.5355 11.059-25.8185 8.79499-26.2915C5.97299-26.8825 3.87199-28.5245 2.24899-30.8315C0.319987-33.5735-0.442013-36.6595-0.177013-39.9705C-0.0380127-41.6905 0.540987-43.3105 1.89899-44.4895C3.82099-46.1585 6.67199-46.4165 8.92799-45.0345C13.253-42.3875 15.504-38.5075 15.603-33.4195Z"/>
  </g>
  <g id="Light-S" transform="matrix(1 0 0 1 1123.25 696)">
   <path d="M30.307-38.5175C33.044-38.5315 35.061-37.2535 36.51-36.3065C39.258-34.5125 39.762-33.1175 43.203-28.9305C47.725-23.4275 49.929-22.0925 51.478-18.3745C51.478-18.3745 52.796-15.1635 52.192-12.0925C51.976-10.9925 51.407-10.1175 50.533-9.43148C48.523-7.85648 46.241-7.48648 43.811-8.04548C41.756-8.51748 39.865-9.46748 37.917-10.2485C35.42-11.2505 32.876-11.9735 30.144-11.7005C27.805-11.4675 25.574-10.8165 23.382-9.98948C21.473-9.26948 19.588-8.47048 17.555-8.14748C16.338-7.95448 15.117-7.91848 13.898-8.12948C10.915-8.64548 8.71699-11.2495 8.57499-14.2985C8.55399-14.7315 8.27899-16.4035 9.47799-19.2635C11.05-23.0125 12.897-23.6055 17.114-28.4525C20.764-32.6485 20.743-33.7715 23.602-35.8285C25.253-37.0155 27.379-38.5025 30.307-38.5175ZM30.986-50.8205C31.102-53.1285 31.577-56.0385 33.233-58.6285C34.644-60.8345 36.565-62.3595 39.168-62.9225C40.472-63.2045 41.655-62.8085 42.774-62.1905C44.6-61.1825 45.809-59.6535 46.346-57.6485C47.395-53.7285 47.12-49.9055 45.268-46.2615C44.441-44.6335 43.255-43.2745 41.79-42.1745C38.401-39.6295 35.061-40.8105 32.959-43.5485C31.481-45.4745 30.955-47.7275 30.986-50.8205ZM12.355-54.0305C12.377-55.9915 12.714-58.1875 14.143-60.0745C15.266-61.5565 16.651-62.6155 18.588-62.7315C19.923-62.8125 21.139-62.3965 22.276-61.7475C24.902-60.2505 26.5-57.9405 27.408-55.1135C27.98-53.3375 28.351-51.5145 28.31-49.6435C28.258-47.2095 27.711-44.9145 26.133-42.9645C24.209-40.5865 21.253-40.0245 18.624-41.6075C15.462-43.5115 13.633-46.3835 12.787-49.9235C12.492-51.1645 12.354-52.4285 12.355-54.0305ZM44.07-34.7565C44.212-38.2565 45.327-41.5915 47.967-44.3035C49.427-45.8035 51.202-46.7525 53.289-47.0615C55.324-47.3625 56.95-46.5745 58.17-45.0045C59.648-43.1005 60.103-40.9065 59.885-38.5095C59.649-35.9085 58.867-33.5275 57.373-31.3925C55.9-29.2895 53.963-27.8335 51.42-27.2455C49.08-26.7025 47.196-27.4275 45.73-29.2725C44.51-30.8055 44.097-32.6135 44.07-34.7565ZM15.603-33.4195C15.637-31.5975 15.329-29.8785 14.231-28.3855C12.871-26.5355 11.059-25.8185 8.79499-26.2915C5.97299-26.8825 3.87199-28.5245 2.24899-30.8315C0.319987-33.5735-0.442013-36.6595-0.177013-39.9705C-0.0380127-41.6905 0.540987-43.3105 1.89899-44.4895C3.82099-46.1585 6.67199-46.4165 8.92799-45.0345C13.253-42.3875 15.504-38.5075 15.603-33.4195Z"/>
  </g>
  <g id="Thin-S" transform="matrix(1 0 0 1 826.536 696)">
   <path d="M30.307-38.5175C33.044-38.5315 35.061-37.2535 36.51-36.3065C39.258-34.5125 39.762-33.1175 43.203-28.9305C47.725-23.4275 49.929-22.0925 51.478-18.3745C51.478-18.3745 52.796-15.1635 52.192-12.0925C51.976-10.9925 51.407-10.1175 50.533-9.43148C48.523-7.85648 46.241-7.48648 43.811-8.04548C41.756-8.51748 39.865-9.46748 37.917-10.2485C35.42-11.2505 32.876-11.9735 30.144-11.7005C27.805-11.4675 25.574-10.8165 23.382-9.98948C21.473-9.26948 19.588-8.47048 17.555-8.14748C16.338-7.95448 15.117-7.91848 13.898-8.12948C10.915-8.64548 8.71699-11.2495 8.57499-14.2985C8.55399-14.7315 8.27899-16.4035 9.47799-19.2635C11.05-23.0125 12.897-23.6055 17.114-28.4525C20.764-32.6485 20.743-33.7715 23.602-35.8285C25.253-37.0155 27.379-38.5025 30.307-38.5175ZM30.986-50.8205C31.102-53.1285 31.577-56.0385 33.233-58.6285C34.644-60.8345 36.565-62.3595 39.168-62.9225C40.472-63.2045 41.655-62.8085 42.774-62.1905C44.6-61.1825 45.809-59.6535 46.346-57.6485C47.395-53.7285 47.12-49.9055 45.268-46.2615C44.441-44.6335 43.255-43.2745 41.79-42.1745C38.401-39.6295 35.061-40.8105 32.959-43.5485C31.481-45.4745 30.955-47.7275 30.986-50.8205ZM12.355-54.0305C12.377-55.9915 12.714-58.1875 14.143-60.0745C15.266-61.5565 16.651-62.6155 18.588-62.7315C19.923-62.8125 21.139-62.3965 22.276-61.7475C24.902-60.2505 26.5-57.9405 27.408-55.1135C27.98-53.3375 28.351-51.5145 28.31-49.6435C28.258-47.2095 27.711-44.9145 26.133-42.9645C24.209-40.5865 21.253-40.0245 18.624-41.6075C15.462-43.5115 13.633-46.3835 12.787-49.9235C12.492-51.1645 12.354-52.4285 12.355-54.0305ZM44.07-34.7565C44.212-38.2565 45.327-41.5915 47.967-44.3035C49.427-45.8035 51.202-46.7525 53.289-47.0615C55.324-47.3625 56.95-46.5745 58.17-45.0045C59.648-43.1005 60.103-40.9065 59.885-38.5095C59.649-35.9085 58.867-33.5275 57.373-31.3925C55.9-29.2895 53.963-27.8335 51.42-27.2455C49.08-26.7025 47.196-27.4275 45.73-29.2725C44.51-30.8055 44.097-32.6135 44.07-34.7565ZM15.603-33.4195C15.637-31.5975 15.329-29.8785 14.231-28.3855C12.871-26.5355 11.059-25.8185 8.79499-26.2915C5.97299-26.8825 3.87199-28.5245 2.24899-30.8315C0.319987-33.5735-0.442013-36.6595-0.177013-39.9705C-0.0380127-41.6905 0.540987-43.3105 1.89899-44.4895C3.82099-46.1585 6.67199-46.4165 8.92799-45.0345C13.253-42.3875 15.504-38.5075 15.603-33.4195Z"/>
  </g>
  <g id="Ultralight-S" transform="matrix(1 0 0 1 529.825 696)">
   <path d="M30.307-38.5175C33.044-38.5315 35.061-37.2535 36.51-36.3065C39.258-34.5125 39.762-33.1175 43.203-28.9305C47.725-23.4275 49.929-22.0925 51.478-18.3745C51.478-18.3745 52.796-15.1635 52.192-12.0925C51.976-10.9925 51.407-10.1175 50.533-9.43148C48.523-7.85648 46.241-7.48648 43.811-8.04548C41.756-8.51748 39.865-9.46748 37.917-10.2485C35.42-11.2505 32.876-11.9735 30.144-11.7005C27.805-11.4675 25.574-10.8165 23.382-9.98948C21.473-9.26948 19.588-8.47048 17.555-8.14748C16.338-7.95448 15.117-7.91848 13.898-8.12948C10.915-8.64548 8.71699-11.2495 8.57499-14.2985C8.55399-14.7315 8.27899-16.4035 9.47799-19.2635C11.05-23.0125 12.897-23.6055 17.114-28.4525C20.764-32.6485 20.743-33.7715 23.602-35.8285C25.253-37.0155 27.379-38.5025 30.307-38.5175ZM30.986-50.8205C31.102-53.1285 31.577-56.0385 33.233-58.6285C34.644-60.8345 36.565-62.3595 39.168-62.9225C40.472-63.2045 41.655-62.8085 42.774-62.1905C44.6-61.1825 45.809-59.6535 46.346-57.6485C47.395-53.7285 47.12-49.9055 45.268-46.2615C44.441-44.6335 43.255-43.2745 41.79-42.1745C38.401-39.6295 35.061-40.8105 32.959-43.5485C31.481-45.4745 30.955-47.7275 30.986-50.8205ZM12.355-54.0305C12.377-55.9915 12.714-58.1875 14.143-60.0745C15.266-61.5565 16.651-62.6155 18.588-62.7315C19.923-62.8125 21.139-62.3965 22.276-61.7475C24.902-60.2505 26.5-57.9405 27.408-55.1135C27.98-53.3375 28.351-51.5145 28.31-49.6435C28.258-47.2095 27.711-44.9145 26.133-42.9645C24.209-40.5865 21.253-40.0245 18.624-41.6075C15.462-43.5115 13.633-46.3835 12.787-49.9235C12.492-51.1645 12.354-52.4285 12.355-54.0305ZM44.07-34.7565C44.212-38.2565 45.327-41.5915 47.967-44.3035C49.427-45.8035 51.202-46.7525 53.289-47.0615C55.324-47.3625 56.95-46.5745 58.17-45.0045C59.648-43.1005 60.103-40.9065 59.885-38.5095C59.649-35.9085 58.867-33.5275 57.373-31.3925C55.9-29.2895 53.963-27.8335 51.42-27.2455C49.08-26.7025 47.196-27.4275 45.73-29.2725C44.51-30.8055 44.097-32.6135 44.07-34.7565ZM15.603-33.4195C15.637-31.5975 15.329-29.8785 14.231-28.3855C12.871-26.5355 11.059-25.8185 8.79499-26.2915C5.97299-26.8825 3.87199-28.5245 2.24899-30.8315C0.319987-33.5735-0.442013-36.6595-0.177013-39.9705C-0.0380127-41.6905 0.540987-43.3105 1.89899-44.4895C3.82099-46.1585 6.67199-46.4165 8.92799-45.0345C13.253-42.3875 15.504-38.5075 15.603-33.4195Z"/>
  </g>
 </g>
</svg>
