<?xml version="1.0" encoding="UTF-8"?>
<!-- Generator: CustomSymbols v2.5.1.36 by @serious_bret https://bretlester.com/app_content/CustomSymbols/ -->
<!-- Guides: Left/Right 0.022/0.022 Cap/Base 0.148/0.148 -->
<!-- Settings: RefScale 1.0 Min/Max Stroke Scales 1.0/2.21 -->
<!DOCTYPE svg
PUBLIC "-//W3C//DTD SVG 1.1//EN"
       "http://www.w3.org/Graphics/SVG/1.1/DTD/svg11.dtd">
<svg version="1.1" xmlns="http://www.w3.org/2000/svg" xmlns:xlink="http://www.w3.org/1999/xlink" width="3300" height="2200">
<![CDATA[<?xml version="1.0" encoding="UTF-8" standalone="no"?>
<!DOCTYPE svg PUBLIC "-//W3C//DTD SVG 1.1//EN" "http://www.w3.org/Graphics/SVG/1.1/DTD/svg11.dtd">
<!-- Created with Vectornator (http://vectornator.io/) -->
<svg height="100%" stroke-miterlimit="10" style="fill-rule:nonzero;clip-rule:evenodd;stroke-linecap:round;stroke-linejoin:round;" version="1.1" viewBox="0 0 1024 1024" width="100%" xml:space="preserve" xmlns="http://www.w3.org/2000/svg" xmlns:vectornator="http://vectornator.io" xmlns:xlink="http://www.w3.org/1999/xlink">
<defs/>
<g id="Layer-1" vectornator:layerName="Layer 1">
<path d="M923.169 403.755C949.461 403.755 975.127 400.089 999.919 393.547C955.836 213.005 814.044 71.2137 633.502 27.1303C627.002 51.8803 623.294 77.5887 623.294 103.88C623.294 183.964 654.502 259.255 711.127 315.922C767.752 372.589 843.086 403.755 923.169 403.755ZM106.252 620.922C79.9606 620.922 54.2939 624.589 29.5022 631.13C73.5856 811.672 215.377 953.464 395.919 997.547C402.419 972.797 406.127 947.089 406.127 920.797C406.127 840.714 374.919 765.422 318.294 708.755C261.669 652.089 186.336 620.922 106.252 620.922Z" fill="#000000" fill-rule="nonzero" opacity="1" stroke="none"/>
<path d="M923.169 487.089C820.794 487.089 724.586 447.214 652.211 374.839C579.836 302.464 539.961 206.255 539.961 103.88C539.961 73.2137 543.961 43.2553 550.919 14.172C538.919 13.297 526.919 12.3387 514.711 12.3387C238.586 12.3387 14.7106 236.214 14.7106 512.339C14.7106 524.547 15.6689 536.547 16.5439 548.547C45.6272 541.589 75.5856 537.589 106.252 537.589C208.627 537.589 304.836 577.464 377.211 649.839C449.586 722.214 489.461 818.422 489.461 920.797C489.461 951.464 485.461 981.422 478.502 1010.51C490.502 1011.38 502.502 1012.34 514.711 1012.34C790.836 1012.34 1014.71 788.464 1014.71 512.339C1014.71 500.13 1013.75 488.13 1012.88 476.13C983.794 483.089 953.836 487.089 923.169 487.089Z" fill="#000000" fill-rule="nonzero" opacity="1" stroke="none"/>
</g>
</svg>
]]>
 <g id="Notes">
  <rect height="2200" id="artboard" style="fill:white;opacity:1" width="3300" x="0" y="0"/>
  <line id="" style="fill:none;stroke:black;opacity:1;stroke-width:0.5;" x1="263" x2="3036" y1="292" y2="292"/>
  <text id="reftext1" style="stroke:none;fill:black;font-family:-apple-system,&quot;SF Pro Display&quot;,&quot;SF Pro Text&quot;,Helvetica,sans-serif;font-weight:bold;" transform="matrix(1 0 0 1 263 322)">Weight/Scale Variations</text>
  <text id="reftext2" style="stroke:none;fill:black;font-family:-apple-system,&quot;SF Pro Display&quot;,&quot;SF Pro Text&quot;,Helvetica,sans-serif;text-anchor:middle;" transform="matrix(1 0 0 1 559.711 322)">Ultralight</text>
  <text style="stroke:none;fill:black;font-family:-apple-system,&quot;SF Pro Display&quot;,&quot;SF Pro Text&quot;,Helvetica,sans-serif;text-anchor:middle;" transform="matrix(1 0 0 1 856.422 322)">Thin</text>
  <text style="stroke:none;fill:black;font-family:-apple-system,&quot;SF Pro Display&quot;,&quot;SF Pro Text&quot;,Helvetica,sans-serif;text-anchor:middle;" transform="matrix(1 0 0 1 1153.13 322)">Light</text>
  <text style="stroke:none;fill:black;font-family:-apple-system,&quot;SF Pro Display&quot;,&quot;SF Pro Text&quot;,Helvetica,sans-serif;text-anchor:middle;" transform="matrix(1 0 0 1 1449.84 322)">Regular</text>
  <text style="stroke:none;fill:black;font-family:-apple-system,&quot;SF Pro Display&quot;,&quot;SF Pro Text&quot;,Helvetica,sans-serif;text-anchor:middle;" transform="matrix(1 0 0 1 1746.56 322)">Medium</text>
  <text style="stroke:none;fill:black;font-family:-apple-system,&quot;SF Pro Display&quot;,&quot;SF Pro Text&quot;,Helvetica,sans-serif;text-anchor:middle;" transform="matrix(1 0 0 1 2043.27 322)">Semibold</text>
  <text style="stroke:none;fill:black;font-family:-apple-system,&quot;SF Pro Display&quot;,&quot;SF Pro Text&quot;,Helvetica,sans-serif;text-anchor:middle;" transform="matrix(1 0 0 1 2339.98 322)">Bold</text>
  <text style="stroke:none;fill:black;font-family:-apple-system,&quot;SF Pro Display&quot;,&quot;SF Pro Text&quot;,Helvetica,sans-serif;text-anchor:middle;" transform="matrix(1 0 0 1 2636.69 322)">Heavy</text>
  <text style="stroke:none;fill:black;font-family:-apple-system,&quot;SF Pro Display&quot;,&quot;SF Pro Text&quot;,Helvetica,sans-serif;text-anchor:middle;" transform="matrix(1 0 0 1 2933.4 322)">Black</text>
  <line id="" style="fill:none;stroke:black;opacity:1;stroke-width:0.5;" x1="263" x2="3036" y1="1903" y2="1903"/>
  <g id="" transform="matrix(1 0 0 1 263 1933)">
   <path d="M9.24805 0.830078C13.5547 0.830078 17.1387-2.74414 17.1387-7.05078C17.1387-11.3574 13.5449-14.9316 9.23828-14.9316C4.94141-14.9316 1.36719-11.3574 1.36719-7.05078C1.36719-2.74414 4.95117 0.830078 9.24805 0.830078ZM9.24805-0.654297C5.70312-0.654297 2.87109-3.49609 2.87109-7.05078C2.87109-10.6055 5.69336-13.4473 9.23828-13.4473C12.793-13.4473 15.6348-10.6055 15.6445-7.05078C15.6543-3.49609 12.8027-0.654297 9.24805-0.654297ZM6.39648-6.31836L8.50586-6.31836L8.50586-4.19922C8.50586-3.75977 8.79883-3.45703 9.22852-3.45703C9.67773-3.45703 9.9707-3.75977 9.9707-4.19922L9.9707-6.31836L12.0996-6.31836C12.5391-6.31836 12.8418-6.61133 12.8418-7.04102C12.8418-7.48047 12.5391-7.7832 12.0996-7.7832L9.9707-7.7832L9.9707-9.89258C9.9707-10.3418 9.67773-10.6445 9.22852-10.6445C8.79883-10.6445 8.50586-10.3418 8.50586-9.89258L8.50586-7.7832L6.39648-7.7832C5.94727-7.7832 5.64453-7.48047 5.64453-7.04102C5.64453-6.61133 5.94727-6.31836 6.39648-6.31836Z"/>
  </g>
  <g id="" transform="matrix(1 0 0 1 281.506 1933)">
   <path d="M11.709 2.91016C17.1582 2.91016 21.6699-1.61133 21.6699-7.05078C21.6699-12.5 17.1484-17.0117 11.6992-17.0117C6.25977-17.0117 1.74805-12.5 1.74805-7.05078C1.74805-1.61133 6.26953 2.91016 11.709 2.91016ZM11.709 1.25C7.09961 1.25 3.41797-2.44141 3.41797-7.05078C3.41797-11.6602 7.08984-15.3516 11.6992-15.3516C16.3086-15.3516 20-11.6602 20.0098-7.05078C20.0195-2.44141 16.3184 1.25 11.709 1.25ZM7.98828-6.23047L10.8789-6.23047L10.8789-3.32031C10.8789-2.83203 11.2109-2.5 11.6895-2.5C12.1777-2.5 12.5195-2.83203 12.5195-3.32031L12.5195-6.23047L15.4297-6.23047C15.918-6.23047 16.25-6.5625 16.25-7.04102C16.25-7.5293 15.918-7.87109 15.4297-7.87109L12.5195-7.87109L12.5195-10.7617C12.5195-11.2695 12.1777-11.6016 11.6895-11.6016C11.2109-11.6016 10.8789-11.2598 10.8789-10.7617L10.8789-7.87109L7.98828-7.87109C7.48047-7.87109 7.14844-7.5293 7.14844-7.04102C7.14844-6.5625 7.49023-6.23047 7.98828-6.23047Z"/>
  </g>
  <g id="" transform="matrix(1 0 0 1 304.924 1933)">
   <path d="M14.9707 5.66406C21.9336 5.66406 27.6953-0.0976562 27.6953-7.05078C27.6953-14.0137 21.9238-19.7754 14.9609-19.7754C8.00781-19.7754 2.25586-14.0137 2.25586-7.05078C2.25586-0.0976562 8.01758 5.66406 14.9707 5.66406ZM14.9707 3.84766C8.93555 3.84766 4.08203-1.01562 4.08203-7.05078C4.08203-13.0957 8.92578-17.9492 14.9609-17.9492C21.0059-17.9492 25.8594-13.0957 25.8691-7.05078C25.8789-1.01562 21.0156 3.84766 14.9707 3.84766ZM10.0586-6.14258L14.0625-6.14258L14.0625-2.12891C14.0625-1.5918 14.4336-1.2207 14.9512-1.2207C15.4883-1.2207 15.8594-1.5918 15.8594-2.12891L15.8594-6.14258L19.8828-6.14258C20.4102-6.14258 20.791-6.51367 20.791-7.03125C20.791-7.56836 20.4199-7.94922 19.8828-7.94922L15.8594-7.94922L15.8594-11.9531C15.8594-12.5098 15.4883-12.8809 14.9512-12.8809C14.4336-12.8809 14.0625-12.5 14.0625-11.9531L14.0625-7.94922L10.0586-7.94922C9.50195-7.94922 9.13086-7.56836 9.13086-7.03125C9.13086-6.51367 9.51172-6.14258 10.0586-6.14258Z"/>
  </g>
  <text style="stroke:none;fill:black;font-family:-apple-system,&quot;SF Pro Display&quot;,&quot;SF Pro Text&quot;,Helvetica,sans-serif;font-weight:bold;" transform="matrix(1 0 0 1 263 1953)">Design Variations</text>
  <text style="stroke:none;fill:black;font-family:-apple-system,&quot;SF Pro Display&quot;,&quot;SF Pro Text&quot;,Helvetica,sans-serif;" transform="matrix(1 0 0 1 263 1971)">Symbols are supported in up to nine weights and three scales.</text>
  <text style="stroke:none;fill:black;font-family:-apple-system,&quot;SF Pro Display&quot;,&quot;SF Pro Text&quot;,Helvetica,sans-serif;" transform="matrix(1 0 0 1 263 1989)">For optimal layout with text and other symbols, vertically align</text>
  <text style="stroke:none;fill:black;font-family:-apple-system,&quot;SF Pro Display&quot;,&quot;SF Pro Text&quot;,Helvetica,sans-serif;" transform="matrix(1 0 0 1 263 2007)">symbols with the adjacent text.</text>
  <line id="" style="fill:none;stroke:#00AEEF;stroke-width:0.5;opacity:1.0;" x1="776" x2="776" y1="1919" y2="1933"/>
  <g id="" transform="matrix(1 0 0 1 776 1933)">
   <path d="M3.31055 0.126953C3.82812 0.126953 4.08203-0.0683594 4.26758-0.605469L5.52734-4.0625L11.2891-4.0625L12.5488-0.605469C12.7344-0.0683594 12.9883 0.126953 13.4961 0.126953C14.0137 0.126953 14.3457-0.185547 14.3457-0.673828C14.3457-0.839844 14.3164-0.986328 14.2383-1.20117L9.6582-13.3887C9.43359-13.9941 9.0332-14.2871 8.4082-14.2871C7.80273-14.2871 7.39258-13.9941 7.17773-13.3984L2.59766-1.19141C2.51953-0.976562 2.49023-0.830078 2.49023-0.664062C2.49023-0.175781 2.80273 0.126953 3.31055 0.126953ZM6.00586-5.53711L8.37891-12.1094L8.42773-12.1094L10.8008-5.53711Z"/>
  </g>
  <line id="" style="fill:none;stroke:#00AEEF;stroke-width:0.5;opacity:1.0;" x1="792.836" x2="792.836" y1="1919" y2="1933"/>
  <text style="stroke:none;fill:black;font-family:-apple-system,&quot;SF Pro Display&quot;,&quot;SF Pro Text&quot;,Helvetica,sans-serif;font-weight:bold;" transform="matrix(1 0 0 1 776 1953)">Margins</text>
  <text style="stroke:none;fill:black;font-family:-apple-system,&quot;SF Pro Display&quot;,&quot;SF Pro Text&quot;,Helvetica,sans-serif;" transform="matrix(1 0 0 1 776 1971)">Leading and trailing margins on the left and right side of each symbol</text>
  <text style="stroke:none;fill:black;font-family:-apple-system,&quot;SF Pro Display&quot;,&quot;SF Pro Text&quot;,Helvetica,sans-serif;" transform="matrix(1 0 0 1 776 1989)">can be adjusted by modifying the x-location of the margin guidelines.</text>
  <text style="stroke:none;fill:black;font-family:-apple-system,&quot;SF Pro Display&quot;,&quot;SF Pro Text&quot;,Helvetica,sans-serif;" transform="matrix(1 0 0 1 776 2007)">Modifications are automatically applied proportionally to all</text>
  <text style="stroke:none;fill:black;font-family:-apple-system,&quot;SF Pro Display&quot;,&quot;SF Pro Text&quot;,Helvetica,sans-serif;" transform="matrix(1 0 0 1 776 2025)">scales and weights.</text>
  <g id="" transform="matrix(1 0 0 1 1289 1933)">
   <path d="M2.8418 1.86523L4.54102 3.57422C5.40039 4.44336 6.38672 4.38477 7.31445 3.35938L17.4902-7.85156C17.7539-7.76367 18.0273-7.7832 18.3398-7.8418L19.4043-8.03711L20.0684-7.36328L20.0293-6.80664C19.9902-6.30859 20.1172-5.92773 20.6055-5.44922L21.3672-4.70703C21.8457-4.22852 22.4609-4.19922 22.9297-4.66797L25.8398-7.58789C26.3086-8.05664 26.2891-8.65234 25.8105-9.13086L25.0391-9.89258C24.5605-10.3711 24.1895-10.5273 23.7109-10.4883L23.1348-10.4395L22.4902-11.0742L22.7344-12.1973C22.8613-12.7637 22.7051-13.2031 22.1191-13.7891L19.9219-15.9766C16.582-19.2969 12.1484-19.2188 9.25781-16.3281C8.83789-15.918 8.80859-15.3418 9.04297-14.9512C9.27734-14.5898 9.73633-14.3555 10.3809-14.5215C11.8457-14.8633 13.3691-14.9219 14.7949-13.9844L14.209-12.5293C14.0137-12.0508 13.9844-11.6504 14.1113-11.2891L3.04688-0.898438C2.06055 0.0195312 1.98242 0.996094 2.8418 1.86523ZM10.752-15.957C13.1836-17.7344 16.4746-17.4316 18.7012-15.2051L21.1328-12.793C21.3672-12.5586 21.4062-12.373 21.3379-12.0312L21.0156-10.5469L22.5195-9.0625L23.5059-9.12109C23.7598-9.13086 23.8379-9.11133 24.0332-8.91602L24.6094-8.33984L22.168-5.89844L21.5918-6.47461C21.3965-6.66992 21.3672-6.74805 21.377-7.01172L21.4453-7.98828L19.9512-9.47266L18.4277-9.21875C18.1055-9.15039 17.959-9.17969 17.7148-9.41406L15.7129-11.416C15.459-11.6504 15.4297-11.8164 15.5859-12.1875L16.4648-14.2773C14.9023-15.7324 12.8711-16.3574 10.8398-15.7617C10.6836-15.7227 10.625-15.8496 10.752-15.957ZM5.27344 2.30469L4.10156 1.14258C3.63281 0.683594 3.74023 0.341797 4.14062-0.0195312L14.9512-10.1953L16.416-8.71094L6.42578 2.27539C6.07422 2.67578 5.74219 2.77344 5.27344 2.30469Z"/>
  </g>
  <text style="stroke:none;fill:black;font-family:-apple-system,&quot;SF Pro Display&quot;,&quot;SF Pro Text&quot;,Helvetica,sans-serif;font-weight:bold;" transform="matrix(1 0 0 1 1289 1953)">Exporting</text>
  <text style="stroke:none;fill:black;font-family:-apple-system,&quot;SF Pro Display&quot;,&quot;SF Pro Text&quot;,Helvetica,sans-serif;" transform="matrix(1 0 0 1 1289 1971)">Symbols should be outlined when exporting to ensure the</text>
  <text style="stroke:none;fill:black;font-family:-apple-system,&quot;SF Pro Display&quot;,&quot;SF Pro Text&quot;,Helvetica,sans-serif;" transform="matrix(1 0 0 1 1289 1989)">design is preserved when submitting to Xcode.</text>
  <text id="template-version" style="stroke:none;fill:black;font-family:-apple-system,&quot;SF Pro Display&quot;,&quot;SF Pro Text&quot;,Helvetica,sans-serif;text-anchor:end;" transform="matrix(1 0 0 1 3036 1933)">Template v.2.0</text>
  <text style="stroke:none;fill:black;font-family:-apple-system,&quot;SF Pro Display&quot;,&quot;SF Pro Text&quot;,Helvetica,sans-serif;text-anchor:end;" transform="matrix(1 0 0 1 3036 1951)">Requires Xcode 12 or greater</text>
  <text style="stroke:none;fill:black;font-family:-apple-system,&quot;SF Pro Display&quot;,&quot;SF Pro Text&quot;,Helvetica,sans-serif;" transform="matrix(1 0 0 1 263 726)">Small</text>
  <text style="stroke:none;fill:black;font-family:-apple-system,&quot;SF Pro Display&quot;,&quot;SF Pro Text&quot;,Helvetica,sans-serif;" transform="matrix(1 0 0 1 263 1156)">Medium</text>
  <text style="stroke:none;fill:black;font-family:-apple-system,&quot;SF Pro Display&quot;,&quot;SF Pro Text&quot;,Helvetica,sans-serif;" transform="matrix(1 0 0 1 263 1586)">Large</text>
 </g>
 <g id="Guides">
  <g id="H-reference" style="fill:#27AAE1;stroke:none;" transform="matrix(1 0 0 1 339 696)">
   <path d="M0.976562 0L3.66211 0L12.9883-24.4629L45.752-24.4629L55.127 0L57.7637 0L30.6152-70.459L28.125-70.459ZM29.3457-67.1387L29.4434-67.1387L44.873-26.709L13.8672-26.709Z"/>
  </g>
  <line id="Baseline-S" style="fill:none;stroke:#27AAE1;opacity:1;stroke-width:0.5;" x1="263" x2="3036" y1="696" y2="696"/>
  <line id="Capline-S" style="fill:none;stroke:#27AAE1;opacity:1;stroke-width:0.5;" x1="263" x2="3036" y1="625.541" y2="625.541"/>
  <g id="H-reference" style="fill:#27AAE1;stroke:none;" transform="matrix(1 0 0 1 339 1126)">
   <path d="M0.976562 0L3.66211 0L12.9883-24.4629L45.752-24.4629L55.127 0L57.7637 0L30.6152-70.459L28.125-70.459ZM29.3457-67.1387L29.4434-67.1387L44.873-26.709L13.8672-26.709Z"/>
  </g>
  <line id="Baseline-M" style="fill:none;stroke:#27AAE1;opacity:1;stroke-width:0.5;" x1="263" x2="3036" y1="1126" y2="1126"/>
  <line id="Capline-M" style="fill:none;stroke:#27AAE1;opacity:1;stroke-width:0.5;" x1="263" x2="3036" y1="1055.54" y2="1055.54"/>
  <g id="H-reference" style="fill:#27AAE1;stroke:none;" transform="matrix(1 0 0 1 339 1556)">
   <path d="M0.976562 0L3.66211 0L12.9883-24.4629L45.752-24.4629L55.127 0L57.7637 0L30.6152-70.459L28.125-70.459ZM29.3457-67.1387L29.4434-67.1387L44.873-26.709L13.8672-26.709Z"/>
  </g>
  <line id="Baseline-L" style="fill:none;stroke:#27AAE1;opacity:1;stroke-width:0.5;" x1="263" x2="3036" y1="1556" y2="1556"/>
  <line id="Capline-L" style="fill:none;stroke:#27AAE1;opacity:1;stroke-width:0.5;" x1="263" x2="3036" y1="1485.54" y2="1485.54"/>
  <line id="left-margin" x1="1403.289287886186" x2="1403.289287886186" y1="1030.79" y2="1150.12" style="fill:none;stroke:#00AEEF;stroke-width:0.5;opacity:1.0;"/>
  <line id="right-margin" x1="1498.9707121138138" x2="1498.9707121138138" y1="1030.79" y2="1150.12" style="fill:none;stroke:#00AEEF;stroke-width:0.5;opacity:1.0;"/>
 </g>
 <g id="Symbols">
  <g id="Black-L" transform="matrix(1.0,0.0,0.0,1.0,2870.125064197887,1456.215083729137)">  <path stroke="none" stroke-linejoin="round" stroke-miterlimit="10" xml:space="preserve" fill-opacity="1" xmlns:vectornator="http://vectornator.io" fill="#000000" opacity="1" clip-rule="evenodd" stroke-linecap="round" version="1.1" fill-rule="nonzero" vectornator:layerName="Layer 1" stroke-opacity="1" stroke-width="1px" xmlns:xlink="http://www.w3.org/1999/xlink" stroke-dasharray="none" d="M116.397,50.907C119.712,50.907,122.948,50.445,126.074,49.62C120.515,26.856,102.638,8.979,79.874,3.421C79.055,6.541,78.587,9.783,78.587,13.098C78.587,23.195,82.522,32.688,89.662,39.833C96.801,46.977,106.3,50.907,116.397,50.907ZM13.397,78.288C10.082,78.288,6.846,78.751,3.72,79.575C9.278,102.339,27.156,120.216,49.919,125.775C50.739,122.654,51.206,119.413,51.206,116.098C51.206,106,47.271,96.507,40.132,89.363C32.992,82.218,23.494,78.288,13.397,78.288ZM13.397,78.288"/>
  <path fill-rule="nonzero" xmlns:vectornator="http://vectornator.io" version="1.1" stroke-opacity="1" xmlns:xlink="http://www.w3.org/1999/xlink" opacity="1" stroke-miterlimit="10" stroke-dasharray="none" vectornator:layerName="Layer 1" fill="#000000" fill-opacity="1" stroke="none" stroke-linecap="round" xml:space="preserve" clip-rule="evenodd" stroke-linejoin="round" stroke-width="1px" d="M116.397,61.414C103.489,61.414,91.359,56.386,82.233,47.261C73.108,38.136,68.08,26.005,68.08,13.098C68.08,9.231,68.585,5.454,69.462,1.787C67.949,1.677,66.436,1.556,64.897,1.556C30.082,1.556,1.855,29.783,1.855,64.598C1.855,66.137,1.976,67.65,2.086,69.163C5.753,68.286,9.53,67.781,13.397,67.781C26.304,67.781,38.435,72.809,47.56,81.934C56.686,91.06,61.713,103.19,61.713,116.098C61.713,119.964,61.209,123.741,60.331,127.409C61.844,127.519,63.357,127.64,64.897,127.64C99.712,127.64,127.939,99.413,127.939,64.598C127.939,63.058,127.818,61.545,127.708,60.032C124.041,60.91,120.263,61.414,116.397,61.414ZM116.397,61.414"/>
</g>
  <g id="Heavy-L" transform="matrix(1.0,0.0,0.0,1.0,2573.4150641978867,1456.215083729137)">  <path vectornator:layerName="Layer 1" opacity="1" stroke-linejoin="round" stroke-opacity="1" xml:space="preserve" version="1.1" fill-opacity="1" stroke-width="1px" stroke-linecap="round" stroke="none" xmlns:vectornator="http://vectornator.io" stroke-dasharray="none" clip-rule="evenodd" fill="#000000" fill-rule="nonzero" stroke-miterlimit="10" xmlns:xlink="http://www.w3.org/1999/xlink" d="M116.397,50.907C119.712,50.907,122.948,50.445,126.074,49.62C120.515,26.856,102.638,8.979,79.874,3.421C79.055,6.541,78.587,9.783,78.587,13.098C78.587,23.195,82.522,32.688,89.662,39.833C96.801,46.977,106.3,50.907,116.397,50.907ZM13.397,78.288C10.082,78.288,6.846,78.751,3.72,79.575C9.278,102.339,27.156,120.216,49.919,125.775C50.739,122.654,51.206,119.413,51.206,116.098C51.206,106,47.271,96.507,40.132,89.363C32.992,82.218,23.494,78.288,13.397,78.288ZM13.397,78.288"/>
  <path opacity="1" stroke-linejoin="round" xml:space="preserve" stroke-width="1px" fill-opacity="1" vectornator:layerName="Layer 1" version="1.1" xmlns:vectornator="http://vectornator.io" clip-rule="evenodd" stroke-linecap="round" stroke-dasharray="none" stroke="none" stroke-opacity="1" fill="#000000" fill-rule="nonzero" xmlns:xlink="http://www.w3.org/1999/xlink" stroke-miterlimit="10" d="M116.397,61.414C103.489,61.414,91.359,56.386,82.233,47.261C73.108,38.136,68.08,26.005,68.08,13.098C68.08,9.231,68.585,5.454,69.462,1.787C67.949,1.677,66.436,1.556,64.897,1.556C30.082,1.556,1.855,29.783,1.855,64.598C1.855,66.137,1.976,67.65,2.086,69.163C5.753,68.286,9.53,67.781,13.397,67.781C26.304,67.781,38.435,72.809,47.56,81.934C56.686,91.06,61.713,103.19,61.713,116.098C61.713,119.964,61.209,123.741,60.331,127.409C61.844,127.519,63.357,127.64,64.897,127.64C99.712,127.64,127.939,99.413,127.939,64.598C127.939,63.058,127.818,61.545,127.708,60.032C124.041,60.91,120.263,61.414,116.397,61.414ZM116.397,61.414"/>
</g>
  <g id="Bold-L" transform="matrix(1.0,0.0,0.0,1.0,2276.7050641978867,1456.215083729137)">  <path vectornator:layerName="Layer 1" stroke-linejoin="round" stroke="none" stroke-linecap="round" fill="#000000" xml:space="preserve" stroke-dasharray="none" stroke-miterlimit="10" opacity="1" fill-rule="nonzero" xmlns:xlink="http://www.w3.org/1999/xlink" clip-rule="evenodd" fill-opacity="1" stroke-width="1px" stroke-opacity="1" xmlns:vectornator="http://vectornator.io" version="1.1" d="M116.397,50.907C119.712,50.907,122.948,50.445,126.074,49.62C120.515,26.856,102.638,8.979,79.874,3.421C79.055,6.541,78.587,9.783,78.587,13.098C78.587,23.195,82.522,32.688,89.662,39.833C96.801,46.977,106.3,50.907,116.397,50.907ZM13.397,78.288C10.082,78.288,6.846,78.751,3.72,79.575C9.278,102.339,27.156,120.216,49.919,125.775C50.739,122.654,51.206,119.413,51.206,116.098C51.206,106,47.271,96.507,40.132,89.363C32.992,82.218,23.494,78.288,13.397,78.288ZM13.397,78.288"/>
  <path stroke-dasharray="none" fill="#000000" opacity="1" xmlns:xlink="http://www.w3.org/1999/xlink" clip-rule="evenodd" fill-rule="nonzero" stroke-miterlimit="10" stroke-linejoin="round" stroke="none" xmlns:vectornator="http://vectornator.io" stroke-linecap="round" version="1.1" stroke-width="1px" vectornator:layerName="Layer 1" fill-opacity="1" stroke-opacity="1" xml:space="preserve" d="M116.397,61.414C103.489,61.414,91.359,56.386,82.233,47.261C73.108,38.136,68.08,26.005,68.08,13.098C68.08,9.231,68.585,5.454,69.462,1.787C67.949,1.677,66.436,1.556,64.897,1.556C30.082,1.556,1.855,29.783,1.855,64.598C1.855,66.137,1.976,67.65,2.086,69.163C5.753,68.286,9.53,67.781,13.397,67.781C26.304,67.781,38.435,72.809,47.56,81.934C56.686,91.06,61.713,103.19,61.713,116.098C61.713,119.964,61.209,123.741,60.331,127.409C61.844,127.519,63.357,127.64,64.897,127.64C99.712,127.64,127.939,99.413,127.939,64.598C127.939,63.058,127.818,61.545,127.708,60.032C124.041,60.91,120.263,61.414,116.397,61.414ZM116.397,61.414"/>
</g>
  <g id="Semibold-L" transform="matrix(1.0,0.0,0.0,1.0,1979.9950641978871,1456.215083729137)">  <path vectornator:layerName="Layer 1" stroke-miterlimit="10" opacity="1" fill-opacity="1" stroke-linejoin="round" fill="#000000" fill-rule="nonzero" xml:space="preserve" stroke-linecap="round" stroke-dasharray="none" xmlns:xlink="http://www.w3.org/1999/xlink" clip-rule="evenodd" xmlns:vectornator="http://vectornator.io" version="1.1" stroke="none" stroke-width="1px" stroke-opacity="1" d="M116.397,50.907C119.712,50.907,122.948,50.445,126.074,49.62C120.515,26.856,102.638,8.979,79.874,3.421C79.055,6.541,78.587,9.783,78.587,13.098C78.587,23.195,82.522,32.688,89.662,39.833C96.801,46.977,106.3,50.907,116.397,50.907ZM13.397,78.288C10.082,78.288,6.846,78.751,3.72,79.575C9.278,102.339,27.156,120.216,49.919,125.775C50.739,122.654,51.206,119.413,51.206,116.098C51.206,106,47.271,96.507,40.132,89.363C32.992,82.218,23.494,78.288,13.397,78.288ZM13.397,78.288"/>
  <path stroke-linecap="round" fill="#000000" stroke-width="1px" stroke-miterlimit="10" stroke-linejoin="round" xmlns:vectornator="http://vectornator.io" opacity="1" fill-opacity="1" xmlns:xlink="http://www.w3.org/1999/xlink" fill-rule="nonzero" vectornator:layerName="Layer 1" stroke-opacity="1" xml:space="preserve" version="1.1" stroke-dasharray="none" stroke="none" clip-rule="evenodd" d="M116.397,61.414C103.489,61.414,91.359,56.386,82.233,47.261C73.108,38.136,68.08,26.005,68.08,13.098C68.08,9.231,68.585,5.454,69.462,1.787C67.949,1.677,66.436,1.556,64.897,1.556C30.082,1.556,1.855,29.783,1.855,64.598C1.855,66.137,1.976,67.65,2.086,69.163C5.753,68.286,9.53,67.781,13.397,67.781C26.304,67.781,38.435,72.809,47.56,81.934C56.686,91.06,61.713,103.19,61.713,116.098C61.713,119.964,61.209,123.741,60.331,127.409C61.844,127.519,63.357,127.64,64.897,127.64C99.712,127.64,127.939,99.413,127.939,64.598C127.939,63.058,127.818,61.545,127.708,60.032C124.041,60.91,120.263,61.414,116.397,61.414ZM116.397,61.414"/>
</g>
  <g id="Medium-L" transform="matrix(1.0,0.0,0.0,1.0,1683.285064197887,1456.215083729137)">  <path fill-opacity="1" xmlns:xlink="http://www.w3.org/1999/xlink" xmlns:vectornator="http://vectornator.io" fill-rule="nonzero" xml:space="preserve" stroke-linejoin="round" clip-rule="evenodd" stroke-opacity="1" fill="#000000" stroke-linecap="round" stroke-width="1px" stroke-miterlimit="10" stroke="none" version="1.1" opacity="1" stroke-dasharray="none" vectornator:layerName="Layer 1" d="M116.397,50.907C119.712,50.907,122.948,50.445,126.074,49.62C120.515,26.856,102.638,8.979,79.874,3.421C79.055,6.541,78.587,9.783,78.587,13.098C78.587,23.195,82.522,32.688,89.662,39.833C96.801,46.977,106.3,50.907,116.397,50.907ZM13.397,78.288C10.082,78.288,6.846,78.751,3.72,79.575C9.278,102.339,27.156,120.216,49.919,125.775C50.739,122.654,51.206,119.413,51.206,116.098C51.206,106,47.271,96.507,40.132,89.363C32.992,82.218,23.494,78.288,13.397,78.288ZM13.397,78.288"/>
  <path stroke="none" version="1.1" fill-rule="nonzero" fill-opacity="1" fill="#000000" xml:space="preserve" stroke-linejoin="round" stroke-width="1px" stroke-linecap="round" clip-rule="evenodd" vectornator:layerName="Layer 1" stroke-dasharray="none" opacity="1" stroke-miterlimit="10" xmlns:vectornator="http://vectornator.io" stroke-opacity="1" xmlns:xlink="http://www.w3.org/1999/xlink" d="M116.397,61.414C103.489,61.414,91.359,56.386,82.233,47.261C73.108,38.136,68.08,26.005,68.08,13.098C68.08,9.231,68.585,5.454,69.462,1.787C67.949,1.677,66.436,1.556,64.897,1.556C30.082,1.556,1.855,29.783,1.855,64.598C1.855,66.137,1.976,67.65,2.086,69.163C5.753,68.286,9.53,67.781,13.397,67.781C26.304,67.781,38.435,72.809,47.56,81.934C56.686,91.06,61.713,103.19,61.713,116.098C61.713,119.964,61.209,123.741,60.331,127.409C61.844,127.519,63.357,127.64,64.897,127.64C99.712,127.64,127.939,99.413,127.939,64.598C127.939,63.058,127.818,61.545,127.708,60.032C124.041,60.91,120.263,61.414,116.397,61.414ZM116.397,61.414"/>
</g>
  <g id="Regular-L" transform="matrix(1.0,0.0,0.0,1.0,1386.575064197887,1456.215083729137)">  <path fill-rule="nonzero" version="1.1" opacity="1" stroke-linecap="round" xml:space="preserve" xmlns:vectornator="http://vectornator.io" fill-opacity="1" stroke-linejoin="round" stroke-width="1px" stroke-dasharray="none" stroke-opacity="1" stroke="none" vectornator:layerName="Layer 1" xmlns:xlink="http://www.w3.org/1999/xlink" stroke-miterlimit="10" clip-rule="evenodd" fill="#000000" d="M116.397,50.907C119.712,50.907,122.948,50.445,126.074,49.62C120.515,26.856,102.638,8.979,79.874,3.421C79.055,6.541,78.587,9.783,78.587,13.098C78.587,23.195,82.522,32.688,89.662,39.833C96.801,46.977,106.3,50.907,116.397,50.907ZM13.397,78.288C10.082,78.288,6.846,78.751,3.72,79.575C9.278,102.339,27.156,120.216,49.919,125.775C50.739,122.654,51.206,119.413,51.206,116.098C51.206,106,47.271,96.507,40.132,89.363C32.992,82.218,23.494,78.288,13.397,78.288ZM13.397,78.288"/>
  <path fill-opacity="1" stroke-dasharray="none" stroke-width="1px" clip-rule="evenodd" xmlns:xlink="http://www.w3.org/1999/xlink" stroke-linecap="round" xml:space="preserve" stroke="none" stroke-opacity="1" opacity="1" version="1.1" stroke-linejoin="round" vectornator:layerName="Layer 1" stroke-miterlimit="10" xmlns:vectornator="http://vectornator.io" fill-rule="nonzero" fill="#000000" d="M116.397,61.414C103.489,61.414,91.359,56.386,82.233,47.261C73.108,38.136,68.08,26.005,68.08,13.098C68.08,9.231,68.585,5.454,69.462,1.787C67.949,1.677,66.436,1.556,64.897,1.556C30.082,1.556,1.855,29.783,1.855,64.598C1.855,66.137,1.976,67.65,2.086,69.163C5.753,68.286,9.53,67.781,13.397,67.781C26.304,67.781,38.435,72.809,47.56,81.934C56.686,91.06,61.713,103.19,61.713,116.098C61.713,119.964,61.209,123.741,60.331,127.409C61.844,127.519,63.357,127.64,64.897,127.64C99.712,127.64,127.939,99.413,127.939,64.598C127.939,63.058,127.818,61.545,127.708,60.032C124.041,60.91,120.263,61.414,116.397,61.414ZM116.397,61.414"/>
</g>
  <g id="Light-L" transform="matrix(1.0,0.0,0.0,1.0,1089.865064197887,1456.215083729137)">  <path fill-rule="nonzero" xmlns:vectornator="http://vectornator.io" xmlns:xlink="http://www.w3.org/1999/xlink" stroke-linejoin="round" stroke-dasharray="none" fill="#000000" vectornator:layerName="Layer 1" opacity="1" stroke-opacity="1" clip-rule="evenodd" stroke-miterlimit="10" stroke-width="1px" xml:space="preserve" stroke="none" fill-opacity="1" version="1.1" stroke-linecap="round" d="M116.397,50.907C119.712,50.907,122.948,50.445,126.074,49.62C120.515,26.856,102.638,8.979,79.874,3.421C79.055,6.541,78.587,9.783,78.587,13.098C78.587,23.195,82.522,32.688,89.662,39.833C96.801,46.977,106.3,50.907,116.397,50.907ZM13.397,78.288C10.082,78.288,6.846,78.751,3.72,79.575C9.278,102.339,27.156,120.216,49.919,125.775C50.739,122.654,51.206,119.413,51.206,116.098C51.206,106,47.271,96.507,40.132,89.363C32.992,82.218,23.494,78.288,13.397,78.288ZM13.397,78.288"/>
  <path fill-opacity="1" stroke-width="1px" fill-rule="nonzero" fill="#000000" stroke-linejoin="round" version="1.1" stroke-linecap="round" stroke="none" opacity="1" xml:space="preserve" xmlns:vectornator="http://vectornator.io" stroke-miterlimit="10" stroke-opacity="1" clip-rule="evenodd" vectornator:layerName="Layer 1" xmlns:xlink="http://www.w3.org/1999/xlink" stroke-dasharray="none" d="M116.397,61.414C103.489,61.414,91.359,56.386,82.233,47.261C73.108,38.136,68.08,26.005,68.08,13.098C68.08,9.231,68.585,5.454,69.462,1.787C67.949,1.677,66.436,1.556,64.897,1.556C30.082,1.556,1.855,29.783,1.855,64.598C1.855,66.137,1.976,67.65,2.086,69.163C5.753,68.286,9.53,67.781,13.397,67.781C26.304,67.781,38.435,72.809,47.56,81.934C56.686,91.06,61.713,103.19,61.713,116.098C61.713,119.964,61.209,123.741,60.331,127.409C61.844,127.519,63.357,127.64,64.897,127.64C99.712,127.64,127.939,99.413,127.939,64.598C127.939,63.058,127.818,61.545,127.708,60.032C124.041,60.91,120.263,61.414,116.397,61.414ZM116.397,61.414"/>
</g>
  <g id="Thin-L" transform="matrix(1.0,0.0,0.0,1.0,793.1550641978871,1456.215083729137)">  <path xmlns:xlink="http://www.w3.org/1999/xlink" fill-rule="nonzero" version="1.1" stroke-opacity="1" stroke-linejoin="round" stroke-width="1px" stroke-linecap="round" xml:space="preserve" stroke-dasharray="none" fill-opacity="1" stroke-miterlimit="10" opacity="1" fill="#000000" xmlns:vectornator="http://vectornator.io" clip-rule="evenodd" vectornator:layerName="Layer 1" stroke="none" d="M116.397,50.907C119.712,50.907,122.948,50.445,126.074,49.62C120.515,26.856,102.638,8.979,79.874,3.421C79.055,6.541,78.587,9.783,78.587,13.098C78.587,23.195,82.522,32.688,89.662,39.833C96.801,46.977,106.3,50.907,116.397,50.907ZM13.397,78.288C10.082,78.288,6.846,78.751,3.72,79.575C9.278,102.339,27.156,120.216,49.919,125.775C50.739,122.654,51.206,119.413,51.206,116.098C51.206,106,47.271,96.507,40.132,89.363C32.992,82.218,23.494,78.288,13.397,78.288ZM13.397,78.288"/>
  <path xml:space="preserve" fill="#000000" fill-rule="nonzero" clip-rule="evenodd" xmlns:vectornator="http://vectornator.io" stroke-dasharray="none" stroke="none" stroke-width="1px" version="1.1" xmlns:xlink="http://www.w3.org/1999/xlink" opacity="1" stroke-linejoin="round" stroke-opacity="1" vectornator:layerName="Layer 1" stroke-miterlimit="10" fill-opacity="1" stroke-linecap="round" d="M116.397,61.414C103.489,61.414,91.359,56.386,82.233,47.261C73.108,38.136,68.08,26.005,68.08,13.098C68.08,9.231,68.585,5.454,69.462,1.787C67.949,1.677,66.436,1.556,64.897,1.556C30.082,1.556,1.855,29.783,1.855,64.598C1.855,66.137,1.976,67.65,2.086,69.163C5.753,68.286,9.53,67.781,13.397,67.781C26.304,67.781,38.435,72.809,47.56,81.934C56.686,91.06,61.713,103.19,61.713,116.098C61.713,119.964,61.209,123.741,60.331,127.409C61.844,127.519,63.357,127.64,64.897,127.64C99.712,127.64,127.939,99.413,127.939,64.598C127.939,63.058,127.818,61.545,127.708,60.032C124.041,60.91,120.263,61.414,116.397,61.414ZM116.397,61.414"/>
</g>
  <g id="Ultralight-L" transform="matrix(1.0,0.0,0.0,1.0,496.44506419788706,1456.215083729137)">  <path stroke="none" stroke-miterlimit="10" version="1.1" stroke-linejoin="round" stroke-width="1px" stroke-dasharray="none" opacity="1" xmlns:vectornator="http://vectornator.io" xml:space="preserve" clip-rule="evenodd" vectornator:layerName="Layer 1" fill="#000000" stroke-opacity="1" fill-rule="nonzero" fill-opacity="1" xmlns:xlink="http://www.w3.org/1999/xlink" stroke-linecap="round" d="M116.397,50.907C119.712,50.907,122.948,50.445,126.074,49.62C120.515,26.856,102.638,8.979,79.874,3.421C79.055,6.541,78.587,9.783,78.587,13.098C78.587,23.195,82.522,32.688,89.662,39.833C96.801,46.977,106.3,50.907,116.397,50.907ZM13.397,78.288C10.082,78.288,6.846,78.751,3.72,79.575C9.278,102.339,27.156,120.216,49.919,125.775C50.739,122.654,51.206,119.413,51.206,116.098C51.206,106,47.271,96.507,40.132,89.363C32.992,82.218,23.494,78.288,13.397,78.288ZM13.397,78.288"/>
  <path fill-opacity="1" stroke="none" stroke-opacity="1" stroke-linecap="round" stroke-width="1px" stroke-miterlimit="10" version="1.1" xmlns:xlink="http://www.w3.org/1999/xlink" stroke-dasharray="none" xmlns:vectornator="http://vectornator.io" fill-rule="nonzero" clip-rule="evenodd" stroke-linejoin="round" opacity="1" fill="#000000" xml:space="preserve" vectornator:layerName="Layer 1" d="M116.397,61.414C103.489,61.414,91.359,56.386,82.233,47.261C73.108,38.136,68.08,26.005,68.08,13.098C68.08,9.231,68.585,5.454,69.462,1.787C67.949,1.677,66.436,1.556,64.897,1.556C30.082,1.556,1.855,29.783,1.855,64.598C1.855,66.137,1.976,67.65,2.086,69.163C5.753,68.286,9.53,67.781,13.397,67.781C26.304,67.781,38.435,72.809,47.56,81.934C56.686,91.06,61.713,103.19,61.713,116.098C61.713,119.964,61.209,123.741,60.331,127.409C61.844,127.519,63.357,127.64,64.897,127.64C99.712,127.64,127.939,99.413,127.939,64.598C127.939,63.058,127.818,61.545,127.708,60.032C124.041,60.91,120.263,61.414,116.397,61.414ZM116.397,61.414"/>
</g>
  <g id="Black-M" transform="matrix(1.0,0.0,0.0,1.0,2884.637414106889,1040.7274336381392)">  <path stroke="none" stroke-linejoin="round" stroke-miterlimit="10" xml:space="preserve" fill-opacity="1" xmlns:vectornator="http://vectornator.io" fill="#000000" opacity="1" clip-rule="evenodd" stroke-linecap="round" version="1.1" fill-rule="nonzero" vectornator:layerName="Layer 1" stroke-opacity="1" stroke-width="1px" xmlns:xlink="http://www.w3.org/1999/xlink" stroke-dasharray="none" d="M90.23,39.463C92.8,39.463,95.308,39.104,97.732,38.465C93.423,20.819,79.564,6.96,61.918,2.652C61.283,5.071,60.92,7.583,60.92,10.153C60.92,17.981,63.971,25.339,69.505,30.878C75.04,36.417,82.403,39.463,90.23,39.463ZM10.385,60.689C7.815,60.689,5.307,61.047,2.884,61.686C7.192,79.332,21.051,93.191,38.697,97.5C39.332,95.081,39.695,92.568,39.695,89.998C39.695,82.171,36.644,74.812,31.11,69.273C25.575,63.735,18.212,60.689,10.385,60.689ZM10.385,60.689"/>
  <path fill-rule="nonzero" xmlns:vectornator="http://vectornator.io" version="1.1" stroke-opacity="1" xmlns:xlink="http://www.w3.org/1999/xlink" opacity="1" stroke-miterlimit="10" stroke-dasharray="none" vectornator:layerName="Layer 1" fill="#000000" fill-opacity="1" stroke="none" stroke-linecap="round" xml:space="preserve" clip-rule="evenodd" stroke-linejoin="round" stroke-width="1px" d="M90.23,47.608C80.224,47.608,70.821,43.71,63.747,36.637C56.673,29.563,52.775,20.159,52.775,10.153C52.775,7.156,53.166,4.228,53.847,1.385C52.674,1.3,51.501,1.206,50.308,1.206C23.319,1.206,1.438,23.087,1.438,50.076C1.438,51.269,1.531,52.442,1.617,53.615C4.46,52.935,7.388,52.544,10.385,52.544C20.391,52.544,29.794,56.441,36.868,63.515C43.942,70.589,47.84,79.992,47.84,89.998C47.84,92.996,47.449,95.924,46.769,98.767C47.941,98.852,49.114,98.946,50.308,98.946C77.296,98.946,99.177,77.064,99.177,50.076C99.177,48.882,99.083,47.71,98.998,46.537C96.155,47.217,93.227,47.608,90.23,47.608ZM90.23,47.608"/>
</g>
  <g id="Heavy-M" transform="matrix(1.0,0.0,0.0,1.0,2587.927414106889,1040.7274336381392)">  <path vectornator:layerName="Layer 1" opacity="1" stroke-linejoin="round" stroke-opacity="1" xml:space="preserve" version="1.1" fill-opacity="1" stroke-width="1px" stroke-linecap="round" stroke="none" xmlns:vectornator="http://vectornator.io" stroke-dasharray="none" clip-rule="evenodd" fill="#000000" fill-rule="nonzero" stroke-miterlimit="10" xmlns:xlink="http://www.w3.org/1999/xlink" d="M90.23,39.463C92.8,39.463,95.308,39.104,97.732,38.465C93.423,20.819,79.564,6.96,61.918,2.652C61.283,5.071,60.92,7.583,60.92,10.153C60.92,17.981,63.971,25.339,69.505,30.878C75.04,36.417,82.403,39.463,90.23,39.463ZM10.385,60.689C7.815,60.689,5.307,61.047,2.884,61.686C7.192,79.332,21.051,93.191,38.697,97.5C39.332,95.081,39.695,92.568,39.695,89.998C39.695,82.171,36.644,74.812,31.11,69.273C25.575,63.735,18.212,60.689,10.385,60.689ZM10.385,60.689"/>
  <path opacity="1" stroke-linejoin="round" xml:space="preserve" stroke-width="1px" fill-opacity="1" vectornator:layerName="Layer 1" version="1.1" xmlns:vectornator="http://vectornator.io" clip-rule="evenodd" stroke-linecap="round" stroke-dasharray="none" stroke="none" stroke-opacity="1" fill="#000000" fill-rule="nonzero" xmlns:xlink="http://www.w3.org/1999/xlink" stroke-miterlimit="10" d="M90.23,47.608C80.224,47.608,70.821,43.71,63.747,36.637C56.673,29.563,52.775,20.159,52.775,10.153C52.775,7.156,53.166,4.228,53.847,1.385C52.674,1.3,51.501,1.206,50.308,1.206C23.319,1.206,1.438,23.087,1.438,50.076C1.438,51.269,1.531,52.442,1.617,53.615C4.46,52.935,7.388,52.544,10.385,52.544C20.391,52.544,29.794,56.441,36.868,63.515C43.942,70.589,47.84,79.992,47.84,89.998C47.84,92.996,47.449,95.924,46.769,98.767C47.941,98.852,49.114,98.946,50.308,98.946C77.296,98.946,99.177,77.064,99.177,50.076C99.177,48.882,99.083,47.71,98.998,46.537C96.155,47.217,93.227,47.608,90.23,47.608ZM90.23,47.608"/>
</g>
  <g id="Bold-M" transform="matrix(1.0,0.0,0.0,1.0,2291.217414106889,1040.7274336381392)">  <path vectornator:layerName="Layer 1" stroke-linejoin="round" stroke="none" stroke-linecap="round" fill="#000000" xml:space="preserve" stroke-dasharray="none" stroke-miterlimit="10" opacity="1" fill-rule="nonzero" xmlns:xlink="http://www.w3.org/1999/xlink" clip-rule="evenodd" fill-opacity="1" stroke-width="1px" stroke-opacity="1" xmlns:vectornator="http://vectornator.io" version="1.1" d="M90.23,39.463C92.8,39.463,95.308,39.104,97.732,38.465C93.423,20.819,79.564,6.96,61.918,2.652C61.283,5.071,60.92,7.583,60.92,10.153C60.92,17.981,63.971,25.339,69.505,30.878C75.04,36.417,82.403,39.463,90.23,39.463ZM10.385,60.689C7.815,60.689,5.307,61.047,2.884,61.686C7.192,79.332,21.051,93.191,38.697,97.5C39.332,95.081,39.695,92.568,39.695,89.998C39.695,82.171,36.644,74.812,31.11,69.273C25.575,63.735,18.212,60.689,10.385,60.689ZM10.385,60.689"/>
  <path stroke-dasharray="none" fill="#000000" opacity="1" xmlns:xlink="http://www.w3.org/1999/xlink" clip-rule="evenodd" fill-rule="nonzero" stroke-miterlimit="10" stroke-linejoin="round" stroke="none" xmlns:vectornator="http://vectornator.io" stroke-linecap="round" version="1.1" stroke-width="1px" vectornator:layerName="Layer 1" fill-opacity="1" stroke-opacity="1" xml:space="preserve" d="M90.23,47.608C80.224,47.608,70.821,43.71,63.747,36.637C56.673,29.563,52.775,20.159,52.775,10.153C52.775,7.156,53.166,4.228,53.847,1.385C52.674,1.3,51.501,1.206,50.308,1.206C23.319,1.206,1.438,23.087,1.438,50.076C1.438,51.269,1.531,52.442,1.617,53.615C4.46,52.935,7.388,52.544,10.385,52.544C20.391,52.544,29.794,56.441,36.868,63.515C43.942,70.589,47.84,79.992,47.84,89.998C47.84,92.996,47.449,95.924,46.769,98.767C47.941,98.852,49.114,98.946,50.308,98.946C77.296,98.946,99.177,77.064,99.177,50.076C99.177,48.882,99.083,47.71,98.998,46.537C96.155,47.217,93.227,47.608,90.23,47.608ZM90.23,47.608"/>
</g>
  <g id="Semibold-M" transform="matrix(1.0,0.0,0.0,1.0,1994.5074141068892,1040.7274336381392)">  <path vectornator:layerName="Layer 1" stroke-miterlimit="10" opacity="1" fill-opacity="1" stroke-linejoin="round" fill="#000000" fill-rule="nonzero" xml:space="preserve" stroke-linecap="round" stroke-dasharray="none" xmlns:xlink="http://www.w3.org/1999/xlink" clip-rule="evenodd" xmlns:vectornator="http://vectornator.io" version="1.1" stroke="none" stroke-width="1px" stroke-opacity="1" d="M90.23,39.463C92.8,39.463,95.308,39.104,97.732,38.465C93.423,20.819,79.564,6.96,61.918,2.652C61.283,5.071,60.92,7.583,60.92,10.153C60.92,17.981,63.971,25.339,69.505,30.878C75.04,36.417,82.403,39.463,90.23,39.463ZM10.385,60.689C7.815,60.689,5.307,61.047,2.884,61.686C7.192,79.332,21.051,93.191,38.697,97.5C39.332,95.081,39.695,92.568,39.695,89.998C39.695,82.171,36.644,74.812,31.11,69.273C25.575,63.735,18.212,60.689,10.385,60.689ZM10.385,60.689"/>
  <path stroke-linecap="round" fill="#000000" stroke-width="1px" stroke-miterlimit="10" stroke-linejoin="round" xmlns:vectornator="http://vectornator.io" opacity="1" fill-opacity="1" xmlns:xlink="http://www.w3.org/1999/xlink" fill-rule="nonzero" vectornator:layerName="Layer 1" stroke-opacity="1" xml:space="preserve" version="1.1" stroke-dasharray="none" stroke="none" clip-rule="evenodd" d="M90.23,47.608C80.224,47.608,70.821,43.71,63.747,36.637C56.673,29.563,52.775,20.159,52.775,10.153C52.775,7.156,53.166,4.228,53.847,1.385C52.674,1.3,51.501,1.206,50.308,1.206C23.319,1.206,1.438,23.087,1.438,50.076C1.438,51.269,1.531,52.442,1.617,53.615C4.46,52.935,7.388,52.544,10.385,52.544C20.391,52.544,29.794,56.441,36.868,63.515C43.942,70.589,47.84,79.992,47.84,89.998C47.84,92.996,47.449,95.924,46.769,98.767C47.941,98.852,49.114,98.946,50.308,98.946C77.296,98.946,99.177,77.064,99.177,50.076C99.177,48.882,99.083,47.71,98.998,46.537C96.155,47.217,93.227,47.608,90.23,47.608ZM90.23,47.608"/>
</g>
  <g id="Medium-M" transform="matrix(1.0,0.0,0.0,1.0,1697.7974141068892,1040.7274336381392)">  <path fill-opacity="1" xmlns:xlink="http://www.w3.org/1999/xlink" xmlns:vectornator="http://vectornator.io" fill-rule="nonzero" xml:space="preserve" stroke-linejoin="round" clip-rule="evenodd" stroke-opacity="1" fill="#000000" stroke-linecap="round" stroke-width="1px" stroke-miterlimit="10" stroke="none" version="1.1" opacity="1" stroke-dasharray="none" vectornator:layerName="Layer 1" d="M90.23,39.463C92.8,39.463,95.308,39.104,97.732,38.465C93.423,20.819,79.564,6.96,61.918,2.652C61.283,5.071,60.92,7.583,60.92,10.153C60.92,17.981,63.971,25.339,69.505,30.878C75.04,36.417,82.403,39.463,90.23,39.463ZM10.385,60.689C7.815,60.689,5.307,61.047,2.884,61.686C7.192,79.332,21.051,93.191,38.697,97.5C39.332,95.081,39.695,92.568,39.695,89.998C39.695,82.171,36.644,74.812,31.11,69.273C25.575,63.735,18.212,60.689,10.385,60.689ZM10.385,60.689"/>
  <path stroke="none" version="1.1" fill-rule="nonzero" fill-opacity="1" fill="#000000" xml:space="preserve" stroke-linejoin="round" stroke-width="1px" stroke-linecap="round" clip-rule="evenodd" vectornator:layerName="Layer 1" stroke-dasharray="none" opacity="1" stroke-miterlimit="10" xmlns:vectornator="http://vectornator.io" stroke-opacity="1" xmlns:xlink="http://www.w3.org/1999/xlink" d="M90.23,47.608C80.224,47.608,70.821,43.71,63.747,36.637C56.673,29.563,52.775,20.159,52.775,10.153C52.775,7.156,53.166,4.228,53.847,1.385C52.674,1.3,51.501,1.206,50.308,1.206C23.319,1.206,1.438,23.087,1.438,50.076C1.438,51.269,1.531,52.442,1.617,53.615C4.46,52.935,7.388,52.544,10.385,52.544C20.391,52.544,29.794,56.441,36.868,63.515C43.942,70.589,47.84,79.992,47.84,89.998C47.84,92.996,47.449,95.924,46.769,98.767C47.941,98.852,49.114,98.946,50.308,98.946C77.296,98.946,99.177,77.064,99.177,50.076C99.177,48.882,99.083,47.71,98.998,46.537C96.155,47.217,93.227,47.608,90.23,47.608ZM90.23,47.608"/>
</g>
  <g id="Regular-M" transform="matrix(1.0,0.0,0.0,1.0,1401.0874141068891,1040.7274336381392)">  <path fill-rule="nonzero" version="1.1" opacity="1" stroke-linecap="round" xml:space="preserve" xmlns:vectornator="http://vectornator.io" fill-opacity="1" stroke-linejoin="round" stroke-width="1px" stroke-dasharray="none" stroke-opacity="1" stroke="none" vectornator:layerName="Layer 1" xmlns:xlink="http://www.w3.org/1999/xlink" stroke-miterlimit="10" clip-rule="evenodd" fill="#000000" d="M90.23,39.463C92.8,39.463,95.308,39.104,97.732,38.465C93.423,20.819,79.564,6.96,61.918,2.652C61.283,5.071,60.92,7.583,60.92,10.153C60.92,17.981,63.971,25.339,69.505,30.878C75.04,36.417,82.403,39.463,90.23,39.463ZM10.385,60.689C7.815,60.689,5.307,61.047,2.884,61.686C7.192,79.332,21.051,93.191,38.697,97.5C39.332,95.081,39.695,92.568,39.695,89.998C39.695,82.171,36.644,74.812,31.11,69.273C25.575,63.735,18.212,60.689,10.385,60.689ZM10.385,60.689"/>
  <path fill-opacity="1" stroke-dasharray="none" stroke-width="1px" clip-rule="evenodd" xmlns:xlink="http://www.w3.org/1999/xlink" stroke-linecap="round" xml:space="preserve" stroke="none" stroke-opacity="1" opacity="1" version="1.1" stroke-linejoin="round" vectornator:layerName="Layer 1" stroke-miterlimit="10" xmlns:vectornator="http://vectornator.io" fill-rule="nonzero" fill="#000000" d="M90.23,47.608C80.224,47.608,70.821,43.71,63.747,36.637C56.673,29.563,52.775,20.159,52.775,10.153C52.775,7.156,53.166,4.228,53.847,1.385C52.674,1.3,51.501,1.206,50.308,1.206C23.319,1.206,1.438,23.087,1.438,50.076C1.438,51.269,1.531,52.442,1.617,53.615C4.46,52.935,7.388,52.544,10.385,52.544C20.391,52.544,29.794,56.441,36.868,63.515C43.942,70.589,47.84,79.992,47.84,89.998C47.84,92.996,47.449,95.924,46.769,98.767C47.941,98.852,49.114,98.946,50.308,98.946C77.296,98.946,99.177,77.064,99.177,50.076C99.177,48.882,99.083,47.71,98.998,46.537C96.155,47.217,93.227,47.608,90.23,47.608ZM90.23,47.608"/>
</g>
  <g id="Light-M" transform="matrix(1.0,0.0,0.0,1.0,1104.3774141068893,1040.7274336381392)">  <path fill-rule="nonzero" xmlns:vectornator="http://vectornator.io" xmlns:xlink="http://www.w3.org/1999/xlink" stroke-linejoin="round" stroke-dasharray="none" fill="#000000" vectornator:layerName="Layer 1" opacity="1" stroke-opacity="1" clip-rule="evenodd" stroke-miterlimit="10" stroke-width="1px" xml:space="preserve" stroke="none" fill-opacity="1" version="1.1" stroke-linecap="round" d="M90.23,39.463C92.8,39.463,95.308,39.104,97.732,38.465C93.423,20.819,79.564,6.96,61.918,2.652C61.283,5.071,60.92,7.583,60.92,10.153C60.92,17.981,63.971,25.339,69.505,30.878C75.04,36.417,82.403,39.463,90.23,39.463ZM10.385,60.689C7.815,60.689,5.307,61.047,2.884,61.686C7.192,79.332,21.051,93.191,38.697,97.5C39.332,95.081,39.695,92.568,39.695,89.998C39.695,82.171,36.644,74.812,31.11,69.273C25.575,63.735,18.212,60.689,10.385,60.689ZM10.385,60.689"/>
  <path fill-opacity="1" stroke-width="1px" fill-rule="nonzero" fill="#000000" stroke-linejoin="round" version="1.1" stroke-linecap="round" stroke="none" opacity="1" xml:space="preserve" xmlns:vectornator="http://vectornator.io" stroke-miterlimit="10" stroke-opacity="1" clip-rule="evenodd" vectornator:layerName="Layer 1" xmlns:xlink="http://www.w3.org/1999/xlink" stroke-dasharray="none" d="M90.23,47.608C80.224,47.608,70.821,43.71,63.747,36.637C56.673,29.563,52.775,20.159,52.775,10.153C52.775,7.156,53.166,4.228,53.847,1.385C52.674,1.3,51.501,1.206,50.308,1.206C23.319,1.206,1.438,23.087,1.438,50.076C1.438,51.269,1.531,52.442,1.617,53.615C4.46,52.935,7.388,52.544,10.385,52.544C20.391,52.544,29.794,56.441,36.868,63.515C43.942,70.589,47.84,79.992,47.84,89.998C47.84,92.996,47.449,95.924,46.769,98.767C47.941,98.852,49.114,98.946,50.308,98.946C77.296,98.946,99.177,77.064,99.177,50.076C99.177,48.882,99.083,47.71,98.998,46.537C96.155,47.217,93.227,47.608,90.23,47.608ZM90.23,47.608"/>
</g>
  <g id="Thin-M" transform="matrix(1.0,0.0,0.0,1.0,807.6674141068893,1040.7274336381392)">  <path xmlns:xlink="http://www.w3.org/1999/xlink" fill-rule="nonzero" version="1.1" stroke-opacity="1" stroke-linejoin="round" stroke-width="1px" stroke-linecap="round" xml:space="preserve" stroke-dasharray="none" fill-opacity="1" stroke-miterlimit="10" opacity="1" fill="#000000" xmlns:vectornator="http://vectornator.io" clip-rule="evenodd" vectornator:layerName="Layer 1" stroke="none" d="M90.23,39.463C92.8,39.463,95.308,39.104,97.732,38.465C93.423,20.819,79.564,6.96,61.918,2.652C61.283,5.071,60.92,7.583,60.92,10.153C60.92,17.981,63.971,25.339,69.505,30.878C75.04,36.417,82.403,39.463,90.23,39.463ZM10.385,60.689C7.815,60.689,5.307,61.047,2.884,61.686C7.192,79.332,21.051,93.191,38.697,97.5C39.332,95.081,39.695,92.568,39.695,89.998C39.695,82.171,36.644,74.812,31.11,69.273C25.575,63.735,18.212,60.689,10.385,60.689ZM10.385,60.689"/>
  <path xml:space="preserve" fill="#000000" fill-rule="nonzero" clip-rule="evenodd" xmlns:vectornator="http://vectornator.io" stroke-dasharray="none" stroke="none" stroke-width="1px" version="1.1" xmlns:xlink="http://www.w3.org/1999/xlink" opacity="1" stroke-linejoin="round" stroke-opacity="1" vectornator:layerName="Layer 1" stroke-miterlimit="10" fill-opacity="1" stroke-linecap="round" d="M90.23,47.608C80.224,47.608,70.821,43.71,63.747,36.637C56.673,29.563,52.775,20.159,52.775,10.153C52.775,7.156,53.166,4.228,53.847,1.385C52.674,1.3,51.501,1.206,50.308,1.206C23.319,1.206,1.438,23.087,1.438,50.076C1.438,51.269,1.531,52.442,1.617,53.615C4.46,52.935,7.388,52.544,10.385,52.544C20.391,52.544,29.794,56.441,36.868,63.515C43.942,70.589,47.84,79.992,47.84,89.998C47.84,92.996,47.449,95.924,46.769,98.767C47.941,98.852,49.114,98.946,50.308,98.946C77.296,98.946,99.177,77.064,99.177,50.076C99.177,48.882,99.083,47.71,98.998,46.537C96.155,47.217,93.227,47.608,90.23,47.608ZM90.23,47.608"/>
</g>
  <g id="Ultralight-M" transform="matrix(1.0,0.0,0.0,1.0,510.9574141068892,1040.7274336381392)">  <path stroke="none" stroke-miterlimit="10" version="1.1" stroke-linejoin="round" stroke-width="1px" stroke-dasharray="none" opacity="1" xmlns:vectornator="http://vectornator.io" xml:space="preserve" clip-rule="evenodd" vectornator:layerName="Layer 1" fill="#000000" stroke-opacity="1" fill-rule="nonzero" fill-opacity="1" xmlns:xlink="http://www.w3.org/1999/xlink" stroke-linecap="round" d="M90.23,39.463C92.8,39.463,95.308,39.104,97.732,38.465C93.423,20.819,79.564,6.96,61.918,2.652C61.283,5.071,60.92,7.583,60.92,10.153C60.92,17.981,63.971,25.339,69.505,30.878C75.04,36.417,82.403,39.463,90.23,39.463ZM10.385,60.689C7.815,60.689,5.307,61.047,2.884,61.686C7.192,79.332,21.051,93.191,38.697,97.5C39.332,95.081,39.695,92.568,39.695,89.998C39.695,82.171,36.644,74.812,31.11,69.273C25.575,63.735,18.212,60.689,10.385,60.689ZM10.385,60.689"/>
  <path fill-opacity="1" stroke="none" stroke-opacity="1" stroke-linecap="round" stroke-width="1px" stroke-miterlimit="10" version="1.1" xmlns:xlink="http://www.w3.org/1999/xlink" stroke-dasharray="none" xmlns:vectornator="http://vectornator.io" fill-rule="nonzero" clip-rule="evenodd" stroke-linejoin="round" opacity="1" fill="#000000" xml:space="preserve" vectornator:layerName="Layer 1" d="M90.23,47.608C80.224,47.608,70.821,43.71,63.747,36.637C56.673,29.563,52.775,20.159,52.775,10.153C52.775,7.156,53.166,4.228,53.847,1.385C52.674,1.3,51.501,1.206,50.308,1.206C23.319,1.206,1.438,23.087,1.438,50.076C1.438,51.269,1.531,52.442,1.617,53.615C4.46,52.935,7.388,52.544,10.385,52.544C20.391,52.544,29.794,56.441,36.868,63.515C43.942,70.589,47.84,79.992,47.84,89.998C47.84,92.996,47.449,95.924,46.769,98.767C47.941,98.852,49.114,98.946,50.308,98.946C77.296,98.946,99.177,77.064,99.177,50.076C99.177,48.882,99.083,47.71,98.998,46.537C96.155,47.217,93.227,47.608,90.23,47.608ZM90.23,47.608"/>
</g>
  <g id="Black-S" transform="matrix(1.0,0.0,0.0,1.0,2895.496655245694,621.5866747769443)">  <path stroke="none" stroke-linejoin="round" stroke-miterlimit="10" xml:space="preserve" fill-opacity="1" xmlns:vectornator="http://vectornator.io" fill="#000000" opacity="1" clip-rule="evenodd" stroke-linecap="round" version="1.1" fill-rule="nonzero" vectornator:layerName="Layer 1" stroke-opacity="1" stroke-width="1px" xmlns:xlink="http://www.w3.org/1999/xlink" stroke-dasharray="none" d="M70.65,30.899C72.662,30.899,74.626,30.619,76.524,30.118C73.15,16.301,62.299,5.45,48.482,2.076C47.984,3.97,47.701,5.938,47.701,7.95C47.701,14.079,50.089,19.841,54.423,24.178C58.756,28.514,64.521,30.899,70.65,30.899ZM8.131,47.519C6.119,47.519,4.155,47.8,2.258,48.3C5.632,62.117,16.483,72.969,30.3,76.342C30.797,74.448,31.081,72.481,31.081,70.469C31.081,64.34,28.693,58.578,24.359,54.241C20.026,49.904,14.26,47.519,8.131,47.519ZM8.131,47.519"/>
  <path fill-rule="nonzero" xmlns:vectornator="http://vectornator.io" version="1.1" stroke-opacity="1" xmlns:xlink="http://www.w3.org/1999/xlink" opacity="1" stroke-miterlimit="10" stroke-dasharray="none" vectornator:layerName="Layer 1" fill="#000000" fill-opacity="1" stroke="none" stroke-linecap="round" xml:space="preserve" clip-rule="evenodd" stroke-linejoin="round" stroke-width="1px" d="M70.65,37.277C62.815,37.277,55.453,34.225,49.914,28.686C44.375,23.148,41.323,15.785,41.323,7.95C41.323,5.603,41.629,3.31,42.162,1.085C41.243,1.018,40.325,0.944,39.391,0.944C18.259,0.944,1.126,18.077,1.126,39.209C1.126,40.144,1.199,41.062,1.266,41.98C3.492,41.448,5.785,41.142,8.131,41.142C15.966,41.142,23.329,44.193,28.868,49.732C34.407,55.271,37.458,62.634,37.458,70.469C37.458,72.816,37.152,75.108,36.62,77.334C37.538,77.401,38.456,77.474,39.391,77.474C60.523,77.474,77.656,60.341,77.656,39.209C77.656,38.275,77.582,37.357,77.516,36.438C75.29,36.971,72.997,37.277,70.65,37.277ZM70.65,37.277"/>
</g>
  <g id="Heavy-S" transform="matrix(1.0,0.0,0.0,1.0,2598.786655245694,621.5866747769443)">  <path vectornator:layerName="Layer 1" opacity="1" stroke-linejoin="round" stroke-opacity="1" xml:space="preserve" version="1.1" fill-opacity="1" stroke-width="1px" stroke-linecap="round" stroke="none" xmlns:vectornator="http://vectornator.io" stroke-dasharray="none" clip-rule="evenodd" fill="#000000" fill-rule="nonzero" stroke-miterlimit="10" xmlns:xlink="http://www.w3.org/1999/xlink" d="M70.65,30.899C72.662,30.899,74.626,30.619,76.524,30.118C73.15,16.301,62.299,5.45,48.482,2.076C47.984,3.97,47.701,5.938,47.701,7.95C47.701,14.079,50.089,19.841,54.423,24.178C58.756,28.514,64.521,30.899,70.65,30.899ZM8.131,47.519C6.119,47.519,4.155,47.8,2.258,48.3C5.632,62.117,16.483,72.969,30.3,76.342C30.797,74.448,31.081,72.481,31.081,70.469C31.081,64.34,28.693,58.578,24.359,54.241C20.026,49.904,14.26,47.519,8.131,47.519ZM8.131,47.519"/>
  <path opacity="1" stroke-linejoin="round" xml:space="preserve" stroke-width="1px" fill-opacity="1" vectornator:layerName="Layer 1" version="1.1" xmlns:vectornator="http://vectornator.io" clip-rule="evenodd" stroke-linecap="round" stroke-dasharray="none" stroke="none" stroke-opacity="1" fill="#000000" fill-rule="nonzero" xmlns:xlink="http://www.w3.org/1999/xlink" stroke-miterlimit="10" d="M70.65,37.277C62.815,37.277,55.453,34.225,49.914,28.686C44.375,23.148,41.323,15.785,41.323,7.95C41.323,5.603,41.629,3.31,42.162,1.085C41.243,1.018,40.325,0.944,39.391,0.944C18.259,0.944,1.126,18.077,1.126,39.209C1.126,40.144,1.199,41.062,1.266,41.98C3.492,41.448,5.785,41.142,8.131,41.142C15.966,41.142,23.329,44.193,28.868,49.732C34.407,55.271,37.458,62.634,37.458,70.469C37.458,72.816,37.152,75.108,36.62,77.334C37.538,77.401,38.456,77.474,39.391,77.474C60.523,77.474,77.656,60.341,77.656,39.209C77.656,38.275,77.582,37.357,77.516,36.438C75.29,36.971,72.997,37.277,70.65,37.277ZM70.65,37.277"/>
</g>
  <g id="Bold-S" transform="matrix(1.0,0.0,0.0,1.0,2302.076655245694,621.5866747769443)">  <path vectornator:layerName="Layer 1" stroke-linejoin="round" stroke="none" stroke-linecap="round" fill="#000000" xml:space="preserve" stroke-dasharray="none" stroke-miterlimit="10" opacity="1" fill-rule="nonzero" xmlns:xlink="http://www.w3.org/1999/xlink" clip-rule="evenodd" fill-opacity="1" stroke-width="1px" stroke-opacity="1" xmlns:vectornator="http://vectornator.io" version="1.1" d="M70.65,30.899C72.662,30.899,74.626,30.619,76.524,30.118C73.15,16.301,62.299,5.45,48.482,2.076C47.984,3.97,47.701,5.938,47.701,7.95C47.701,14.079,50.089,19.841,54.423,24.178C58.756,28.514,64.521,30.899,70.65,30.899ZM8.131,47.519C6.119,47.519,4.155,47.8,2.258,48.3C5.632,62.117,16.483,72.969,30.3,76.342C30.797,74.448,31.081,72.481,31.081,70.469C31.081,64.34,28.693,58.578,24.359,54.241C20.026,49.904,14.26,47.519,8.131,47.519ZM8.131,47.519"/>
  <path stroke-dasharray="none" fill="#000000" opacity="1" xmlns:xlink="http://www.w3.org/1999/xlink" clip-rule="evenodd" fill-rule="nonzero" stroke-miterlimit="10" stroke-linejoin="round" stroke="none" xmlns:vectornator="http://vectornator.io" stroke-linecap="round" version="1.1" stroke-width="1px" vectornator:layerName="Layer 1" fill-opacity="1" stroke-opacity="1" xml:space="preserve" d="M70.65,37.277C62.815,37.277,55.453,34.225,49.914,28.686C44.375,23.148,41.323,15.785,41.323,7.95C41.323,5.603,41.629,3.31,42.162,1.085C41.243,1.018,40.325,0.944,39.391,0.944C18.259,0.944,1.126,18.077,1.126,39.209C1.126,40.144,1.199,41.062,1.266,41.98C3.492,41.448,5.785,41.142,8.131,41.142C15.966,41.142,23.329,44.193,28.868,49.732C34.407,55.271,37.458,62.634,37.458,70.469C37.458,72.816,37.152,75.108,36.62,77.334C37.538,77.401,38.456,77.474,39.391,77.474C60.523,77.474,77.656,60.341,77.656,39.209C77.656,38.275,77.582,37.357,77.516,36.438C75.29,36.971,72.997,37.277,70.65,37.277ZM70.65,37.277"/>
</g>
  <g id="Semibold-S" transform="matrix(1.0,0.0,0.0,1.0,2005.3666552456941,621.5866747769443)">  <path vectornator:layerName="Layer 1" stroke-miterlimit="10" opacity="1" fill-opacity="1" stroke-linejoin="round" fill="#000000" fill-rule="nonzero" xml:space="preserve" stroke-linecap="round" stroke-dasharray="none" xmlns:xlink="http://www.w3.org/1999/xlink" clip-rule="evenodd" xmlns:vectornator="http://vectornator.io" version="1.1" stroke="none" stroke-width="1px" stroke-opacity="1" d="M70.65,30.899C72.662,30.899,74.626,30.619,76.524,30.118C73.15,16.301,62.299,5.45,48.482,2.076C47.984,3.97,47.701,5.938,47.701,7.95C47.701,14.079,50.089,19.841,54.423,24.178C58.756,28.514,64.521,30.899,70.65,30.899ZM8.131,47.519C6.119,47.519,4.155,47.8,2.258,48.3C5.632,62.117,16.483,72.969,30.3,76.342C30.797,74.448,31.081,72.481,31.081,70.469C31.081,64.34,28.693,58.578,24.359,54.241C20.026,49.904,14.26,47.519,8.131,47.519ZM8.131,47.519"/>
  <path stroke-linecap="round" fill="#000000" stroke-width="1px" stroke-miterlimit="10" stroke-linejoin="round" xmlns:vectornator="http://vectornator.io" opacity="1" fill-opacity="1" xmlns:xlink="http://www.w3.org/1999/xlink" fill-rule="nonzero" vectornator:layerName="Layer 1" stroke-opacity="1" xml:space="preserve" version="1.1" stroke-dasharray="none" stroke="none" clip-rule="evenodd" d="M70.65,37.277C62.815,37.277,55.453,34.225,49.914,28.686C44.375,23.148,41.323,15.785,41.323,7.95C41.323,5.603,41.629,3.31,42.162,1.085C41.243,1.018,40.325,0.944,39.391,0.944C18.259,0.944,1.126,18.077,1.126,39.209C1.126,40.144,1.199,41.062,1.266,41.98C3.492,41.448,5.785,41.142,8.131,41.142C15.966,41.142,23.329,44.193,28.868,49.732C34.407,55.271,37.458,62.634,37.458,70.469C37.458,72.816,37.152,75.108,36.62,77.334C37.538,77.401,38.456,77.474,39.391,77.474C60.523,77.474,77.656,60.341,77.656,39.209C77.656,38.275,77.582,37.357,77.516,36.438C75.29,36.971,72.997,37.277,70.65,37.277ZM70.65,37.277"/>
</g>
  <g id="Medium-S" transform="matrix(1.0,0.0,0.0,1.0,1708.656655245694,621.5866747769443)">  <path fill-opacity="1" xmlns:xlink="http://www.w3.org/1999/xlink" xmlns:vectornator="http://vectornator.io" fill-rule="nonzero" xml:space="preserve" stroke-linejoin="round" clip-rule="evenodd" stroke-opacity="1" fill="#000000" stroke-linecap="round" stroke-width="1px" stroke-miterlimit="10" stroke="none" version="1.1" opacity="1" stroke-dasharray="none" vectornator:layerName="Layer 1" d="M70.65,30.899C72.662,30.899,74.626,30.619,76.524,30.118C73.15,16.301,62.299,5.45,48.482,2.076C47.984,3.97,47.701,5.938,47.701,7.95C47.701,14.079,50.089,19.841,54.423,24.178C58.756,28.514,64.521,30.899,70.65,30.899ZM8.131,47.519C6.119,47.519,4.155,47.8,2.258,48.3C5.632,62.117,16.483,72.969,30.3,76.342C30.797,74.448,31.081,72.481,31.081,70.469C31.081,64.34,28.693,58.578,24.359,54.241C20.026,49.904,14.26,47.519,8.131,47.519ZM8.131,47.519"/>
  <path stroke="none" version="1.1" fill-rule="nonzero" fill-opacity="1" fill="#000000" xml:space="preserve" stroke-linejoin="round" stroke-width="1px" stroke-linecap="round" clip-rule="evenodd" vectornator:layerName="Layer 1" stroke-dasharray="none" opacity="1" stroke-miterlimit="10" xmlns:vectornator="http://vectornator.io" stroke-opacity="1" xmlns:xlink="http://www.w3.org/1999/xlink" d="M70.65,37.277C62.815,37.277,55.453,34.225,49.914,28.686C44.375,23.148,41.323,15.785,41.323,7.95C41.323,5.603,41.629,3.31,42.162,1.085C41.243,1.018,40.325,0.944,39.391,0.944C18.259,0.944,1.126,18.077,1.126,39.209C1.126,40.144,1.199,41.062,1.266,41.98C3.492,41.448,5.785,41.142,8.131,41.142C15.966,41.142,23.329,44.193,28.868,49.732C34.407,55.271,37.458,62.634,37.458,70.469C37.458,72.816,37.152,75.108,36.62,77.334C37.538,77.401,38.456,77.474,39.391,77.474C60.523,77.474,77.656,60.341,77.656,39.209C77.656,38.275,77.582,37.357,77.516,36.438C75.29,36.971,72.997,37.277,70.65,37.277ZM70.65,37.277"/>
</g>
  <g id="Regular-S" transform="matrix(1.0,0.0,0.0,1.0,1411.946655245694,621.5866747769443)">  <path fill-rule="nonzero" version="1.1" opacity="1" stroke-linecap="round" xml:space="preserve" xmlns:vectornator="http://vectornator.io" fill-opacity="1" stroke-linejoin="round" stroke-width="1px" stroke-dasharray="none" stroke-opacity="1" stroke="none" vectornator:layerName="Layer 1" xmlns:xlink="http://www.w3.org/1999/xlink" stroke-miterlimit="10" clip-rule="evenodd" fill="#000000" d="M70.65,30.899C72.662,30.899,74.626,30.619,76.524,30.118C73.15,16.301,62.299,5.45,48.482,2.076C47.984,3.97,47.701,5.938,47.701,7.95C47.701,14.079,50.089,19.841,54.423,24.178C58.756,28.514,64.521,30.899,70.65,30.899ZM8.131,47.519C6.119,47.519,4.155,47.8,2.258,48.3C5.632,62.117,16.483,72.969,30.3,76.342C30.797,74.448,31.081,72.481,31.081,70.469C31.081,64.34,28.693,58.578,24.359,54.241C20.026,49.904,14.26,47.519,8.131,47.519ZM8.131,47.519"/>
  <path fill-opacity="1" stroke-dasharray="none" stroke-width="1px" clip-rule="evenodd" xmlns:xlink="http://www.w3.org/1999/xlink" stroke-linecap="round" xml:space="preserve" stroke="none" stroke-opacity="1" opacity="1" version="1.1" stroke-linejoin="round" vectornator:layerName="Layer 1" stroke-miterlimit="10" xmlns:vectornator="http://vectornator.io" fill-rule="nonzero" fill="#000000" d="M70.65,37.277C62.815,37.277,55.453,34.225,49.914,28.686C44.375,23.148,41.323,15.785,41.323,7.95C41.323,5.603,41.629,3.31,42.162,1.085C41.243,1.018,40.325,0.944,39.391,0.944C18.259,0.944,1.126,18.077,1.126,39.209C1.126,40.144,1.199,41.062,1.266,41.98C3.492,41.448,5.785,41.142,8.131,41.142C15.966,41.142,23.329,44.193,28.868,49.732C34.407,55.271,37.458,62.634,37.458,70.469C37.458,72.816,37.152,75.108,36.62,77.334C37.538,77.401,38.456,77.474,39.391,77.474C60.523,77.474,77.656,60.341,77.656,39.209C77.656,38.275,77.582,37.357,77.516,36.438C75.29,36.971,72.997,37.277,70.65,37.277ZM70.65,37.277"/>
</g>
  <g id="Light-S" transform="matrix(1.0,0.0,0.0,1.0,1115.2366552456942,621.5866747769443)">  <path fill-rule="nonzero" xmlns:vectornator="http://vectornator.io" xmlns:xlink="http://www.w3.org/1999/xlink" stroke-linejoin="round" stroke-dasharray="none" fill="#000000" vectornator:layerName="Layer 1" opacity="1" stroke-opacity="1" clip-rule="evenodd" stroke-miterlimit="10" stroke-width="1px" xml:space="preserve" stroke="none" fill-opacity="1" version="1.1" stroke-linecap="round" d="M70.65,30.899C72.662,30.899,74.626,30.619,76.524,30.118C73.15,16.301,62.299,5.45,48.482,2.076C47.984,3.97,47.701,5.938,47.701,7.95C47.701,14.079,50.089,19.841,54.423,24.178C58.756,28.514,64.521,30.899,70.65,30.899ZM8.131,47.519C6.119,47.519,4.155,47.8,2.258,48.3C5.632,62.117,16.483,72.969,30.3,76.342C30.797,74.448,31.081,72.481,31.081,70.469C31.081,64.34,28.693,58.578,24.359,54.241C20.026,49.904,14.26,47.519,8.131,47.519ZM8.131,47.519"/>
  <path fill-opacity="1" stroke-width="1px" fill-rule="nonzero" fill="#000000" stroke-linejoin="round" version="1.1" stroke-linecap="round" stroke="none" opacity="1" xml:space="preserve" xmlns:vectornator="http://vectornator.io" stroke-miterlimit="10" stroke-opacity="1" clip-rule="evenodd" vectornator:layerName="Layer 1" xmlns:xlink="http://www.w3.org/1999/xlink" stroke-dasharray="none" d="M70.65,37.277C62.815,37.277,55.453,34.225,49.914,28.686C44.375,23.148,41.323,15.785,41.323,7.95C41.323,5.603,41.629,3.31,42.162,1.085C41.243,1.018,40.325,0.944,39.391,0.944C18.259,0.944,1.126,18.077,1.126,39.209C1.126,40.144,1.199,41.062,1.266,41.98C3.492,41.448,5.785,41.142,8.131,41.142C15.966,41.142,23.329,44.193,28.868,49.732C34.407,55.271,37.458,62.634,37.458,70.469C37.458,72.816,37.152,75.108,36.62,77.334C37.538,77.401,38.456,77.474,39.391,77.474C60.523,77.474,77.656,60.341,77.656,39.209C77.656,38.275,77.582,37.357,77.516,36.438C75.29,36.971,72.997,37.277,70.65,37.277ZM70.65,37.277"/>
</g>
  <g id="Thin-S" transform="matrix(1.0,0.0,0.0,1.0,818.5266552456943,621.5866747769443)">  <path xmlns:xlink="http://www.w3.org/1999/xlink" fill-rule="nonzero" version="1.1" stroke-opacity="1" stroke-linejoin="round" stroke-width="1px" stroke-linecap="round" xml:space="preserve" stroke-dasharray="none" fill-opacity="1" stroke-miterlimit="10" opacity="1" fill="#000000" xmlns:vectornator="http://vectornator.io" clip-rule="evenodd" vectornator:layerName="Layer 1" stroke="none" d="M70.65,30.899C72.662,30.899,74.626,30.619,76.524,30.118C73.15,16.301,62.299,5.45,48.482,2.076C47.984,3.97,47.701,5.938,47.701,7.95C47.701,14.079,50.089,19.841,54.423,24.178C58.756,28.514,64.521,30.899,70.65,30.899ZM8.131,47.519C6.119,47.519,4.155,47.8,2.258,48.3C5.632,62.117,16.483,72.969,30.3,76.342C30.797,74.448,31.081,72.481,31.081,70.469C31.081,64.34,28.693,58.578,24.359,54.241C20.026,49.904,14.26,47.519,8.131,47.519ZM8.131,47.519"/>
  <path xml:space="preserve" fill="#000000" fill-rule="nonzero" clip-rule="evenodd" xmlns:vectornator="http://vectornator.io" stroke-dasharray="none" stroke="none" stroke-width="1px" version="1.1" xmlns:xlink="http://www.w3.org/1999/xlink" opacity="1" stroke-linejoin="round" stroke-opacity="1" vectornator:layerName="Layer 1" stroke-miterlimit="10" fill-opacity="1" stroke-linecap="round" d="M70.65,37.277C62.815,37.277,55.453,34.225,49.914,28.686C44.375,23.148,41.323,15.785,41.323,7.95C41.323,5.603,41.629,3.31,42.162,1.085C41.243,1.018,40.325,0.944,39.391,0.944C18.259,0.944,1.126,18.077,1.126,39.209C1.126,40.144,1.199,41.062,1.266,41.98C3.492,41.448,5.785,41.142,8.131,41.142C15.966,41.142,23.329,44.193,28.868,49.732C34.407,55.271,37.458,62.634,37.458,70.469C37.458,72.816,37.152,75.108,36.62,77.334C37.538,77.401,38.456,77.474,39.391,77.474C60.523,77.474,77.656,60.341,77.656,39.209C77.656,38.275,77.582,37.357,77.516,36.438C75.29,36.971,72.997,37.277,70.65,37.277ZM70.65,37.277"/>
</g>
  <g id="Ultralight-S" transform="matrix(1.0,0.0,0.0,1.0,521.8166552456943,621.5866747769443)">  <path stroke="none" stroke-miterlimit="10" version="1.1" stroke-linejoin="round" stroke-width="1px" stroke-dasharray="none" opacity="1" xmlns:vectornator="http://vectornator.io" xml:space="preserve" clip-rule="evenodd" vectornator:layerName="Layer 1" fill="#000000" stroke-opacity="1" fill-rule="nonzero" fill-opacity="1" xmlns:xlink="http://www.w3.org/1999/xlink" stroke-linecap="round" d="M70.65,30.899C72.662,30.899,74.626,30.619,76.524,30.118C73.15,16.301,62.299,5.45,48.482,2.076C47.984,3.97,47.701,5.938,47.701,7.95C47.701,14.079,50.089,19.841,54.423,24.178C58.756,28.514,64.521,30.899,70.65,30.899ZM8.131,47.519C6.119,47.519,4.155,47.8,2.258,48.3C5.632,62.117,16.483,72.969,30.3,76.342C30.797,74.448,31.081,72.481,31.081,70.469C31.081,64.34,28.693,58.578,24.359,54.241C20.026,49.904,14.26,47.519,8.131,47.519ZM8.131,47.519"/>
  <path fill-opacity="1" stroke="none" stroke-opacity="1" stroke-linecap="round" stroke-width="1px" stroke-miterlimit="10" version="1.1" xmlns:xlink="http://www.w3.org/1999/xlink" stroke-dasharray="none" xmlns:vectornator="http://vectornator.io" fill-rule="nonzero" clip-rule="evenodd" stroke-linejoin="round" opacity="1" fill="#000000" xml:space="preserve" vectornator:layerName="Layer 1" d="M70.65,37.277C62.815,37.277,55.453,34.225,49.914,28.686C44.375,23.148,41.323,15.785,41.323,7.95C41.323,5.603,41.629,3.31,42.162,1.085C41.243,1.018,40.325,0.944,39.391,0.944C18.259,0.944,1.126,18.077,1.126,39.209C1.126,40.144,1.199,41.062,1.266,41.98C3.492,41.448,5.785,41.142,8.131,41.142C15.966,41.142,23.329,44.193,28.868,49.732C34.407,55.271,37.458,62.634,37.458,70.469C37.458,72.816,37.152,75.108,36.62,77.334C37.538,77.401,38.456,77.474,39.391,77.474C60.523,77.474,77.656,60.341,77.656,39.209C77.656,38.275,77.582,37.357,77.516,36.438C75.29,36.971,72.997,37.277,70.65,37.277ZM70.65,37.277"/>
</g>
 </g>
</svg>
